<svg width="390" height="512" viewBox="0 0 390 512" fill="none" xmlns="http://www.w3.org/2000/svg">
<path d="M110.195 332.109L195 287.525L279.805 332.109L263.609 237.678L332.217 170.801L237.403 157.024L195 71.1069L152.598 157.024L57.7839 170.801L126.392 237.678L110.195 332.109ZM122.252 191.748L172.52 184.443L195 138.893L217.481 184.443L267.749 191.748L231.375 227.204L239.962 277.268L195 253.631L150.039 277.268L158.626 227.204L122.252 191.748Z" fill="white"/>
<path d="M390 60V0H0V60V90V511.971L195 392.588L390 511.971V90V60ZM360 458.429L195 357.412L30 458.428V30H360V458.429Z" fill="white"/>
</svg>
