<svg width="512" height="512" viewBox="0 0 512 512" fill="none" xmlns="http://www.w3.org/2000/svg">
<path d="M287 0C278.716 0 272 6.716 272 15V226C272 234.284 278.716 241 287 241H497C505.284 241 512 234.284 512 226C512 101.875 411.273 0 287 0ZM302 211V30.574C397.616 37.919 474.164 114.883 481.435 211H302Z" fill="#070707"/>
<path d="M314.792 478.395L242 283.293V76C242 67.716 235.284 61 227 61C103.476 61 0 161.147 0 286C0 409.919 102.473 512 227 512C254.176 512 280.763 507.182 306.021 497.678C313.759 494.767 317.683 486.142 314.792 478.395ZM227 482C118.374 482 30 394.075 30 286C30 183.471 110.354 99.169 212 91.56V286C212 287.79 212.32 289.566 212.946 291.244L281.255 474.327C263.699 479.424 245.512 482 227 482Z" fill="#070707"/>
<path d="M497 271H287C282.085 271 277.481 273.408 274.679 277.446C271.875 281.484 271.229 286.638 272.947 291.244L346.686 488.883C349.598 496.685 358.287 500.589 366.022 497.678C453.336 464.829 512 379.762 512 286C512 277.716 505.284 271 497 271ZM369.328 463.75L308.606 300.9H481.421C475.997 371.187 432.81 433.991 369.328 463.75Z" fill="#070707"/>
</svg>
