<svg width="512" height="512" viewBox="0 0 512 512" fill="none" xmlns="http://www.w3.org/2000/svg">
<g clip-path="url(#clip0)">
<path d="M448 351.667C442.478 351.667 438 356.144 438 361.667V485.524L260.616 393.224C257.722 391.719 254.279 391.719 251.384 393.224L74 485.524V196.5C74 190.977 69.522 186.5 64 186.5C58.478 186.5 54 190.977 54 196.5V502C54 505.495 55.824 508.735 58.811 510.549C61.801 512.363 65.518 512.483 68.616 510.871L256 413.368L443.384 510.871C444.834 511.625 446.418 512 448 512C449.801 512 451.598 511.514 453.188 510.549C456.176 508.735 458 505.495 458 502V357C458 351.477 453.522 351.667 448 351.667Z" fill="black"/>
<path d="M448 0H64C58.478 0 54 4.477 54 10V116C54 121.523 58.478 126 64 126C69.522 126 74 121.523 74 116V20H438V286.333C438 291.856 442.478 296.333 448 296.333C453.523 296.333 458 291.856 458 286.333V10C458 4.477 453.522 0 448 0Z" fill="black"/>
<path d="M384.171 176.273C382.994 172.653 379.864 170.015 376.097 169.469L299.302 158.331L264.94 88.7536C263.255 85.3416 259.78 83.1816 255.974 83.1816C255.973 83.1816 255.972 83.1816 255.971 83.1816C252.164 83.1826 248.689 85.3446 247.005 88.7586L212.681 158.354L135.893 169.533C132.127 170.081 128.998 172.72 127.822 176.341C126.647 179.961 127.628 183.935 130.355 186.591L185.937 240.741L172.839 317.226C172.196 320.978 173.739 324.769 176.819 327.006C178.561 328.27 180.624 328.914 182.696 328.914C184.289 328.914 185.888 328.534 187.352 327.765L256.027 291.637L324.721 327.729C328.091 329.5 332.173 329.204 335.252 326.965C338.332 324.727 339.873 320.935 339.228 317.184L326.09 240.705L381.644 186.525C384.368 183.867 385.348 179.893 384.171 176.273ZM308.362 230.056C306.007 232.355 304.931 235.665 305.489 238.909L316.087 300.598L260.676 271.485C257.763 269.954 254.283 269.955 251.368 271.487L195.972 300.63L206.537 238.934C207.093 235.689 206.016 232.38 203.659 230.083L158.824 186.404L220.766 177.388C224.023 176.914 226.838 174.868 228.294 171.916L255.981 115.778L283.699 171.901C285.156 174.851 287.972 176.896 291.229 177.369L353.174 186.353L308.362 230.056Z" fill="black"/>
<path d="M74 118C74 118 66.63 118 64 118C61.37 118 54.0001 118 54.0001 118C54.0001 118 54 154.03 54 156.67C54 159.3 54 195.5 54 195.5C54 195.5 61.37 195.5 64 195.5C66.63 195.5 74 195.5 74 195.5C74 195.5 74 159.3 74 156.67C74 154.04 74 118 74 118Z" fill="black"/>
<path d="M458 287.5C458 287.5 450.63 287.5 448 287.5C445.37 287.5 438 287.5 438 287.5C438 287.5 438 320.37 438 323C438 325.63 438 360 438 360C438 360 445.37 360 448 360C450.63 360 458 358.5 458 358.5C458 358.5 458 325.63 458 323C458 320.37 458 287.5 458 287.5Z" fill="black"/>
</g>
<defs>
<clipPath id="clip0">
<rect width="512" height="512" fill="white"/>
</clipPath>
</defs>
</svg>
