<svg width="78" height="79" viewBox="0 0 78 79" fill="none" xmlns="http://www.w3.org/2000/svg">
<path d="M40.953 52.8261C33.935 53.9681 27.181 49.6601 25.248 42.8091C24.837 41.3461 24.668 39.8211 24.749 38.2711C24.785 37.6181 25.106 37.0161 25.635 36.6311C25.917 36.4191 26.245 36.2871 26.584 36.2351C26.868 36.1891 27.168 36.1941 27.469 36.2701L28.758 36.5901L29.326 34.1421C29.523 33.3001 30.206 32.6401 31.08 32.4871L34.274 31.9171L34.615 30.8331C34.853 30.0851 35.487 29.5241 36.26 29.3731C36.291 29.3721 36.323 29.3641 36.356 29.3511C37.091 29.2321 37.85 29.4991 38.35 30.0701L39.63 31.5411L40.97 30.1691C41.305 29.8441 41.733 29.6171 42.191 29.5411C42.35 29.5141 42.526 29.4951 42.704 29.5141C43.34 29.5691 43.927 29.8961 44.311 30.4231L45.341 31.8621L47.344 30.5831C47.607 30.4131 47.89 30.3061 48.172 30.2641C48.984 30.1311 49.851 30.4701 50.343 31.2091C51.166 32.4451 51.803 33.7941 52.199 35.2061C53.206 38.8001 52.768 42.5751 50.937 45.8411C49.115 49.1091 46.125 51.4621 42.525 52.4871C42.003 52.6201 41.474 52.7421 40.953 52.8261Z" fill="black"/>
<path d="M29.655 39.6511C29.375 39.6941 29.075 39.6891 28.784 39.6121L26.57 39.0601C25.465 38.7961 24.75 37.6981 24.941 36.5621C25.895 31.2261 29.716 26.9981 34.916 25.5261C40.084 24.0701 45.774 25.7891 49.291 29.8371C49.697 30.3081 49.891 30.9471 49.803 31.5751C49.704 32.2001 49.354 32.7601 48.824 33.1061L46.333 34.7001C45.353 35.3251 44.061 35.0881 43.382 34.1341L42.451 32.8351L41.164 34.1591C40.733 34.5941 40.153 34.8371 39.541 34.8131C38.932 34.7911 38.358 34.5231 37.952 34.0631L37.006 32.9761L36.91 33.2501C36.665 34.0111 36.015 34.5771 35.218 34.7161L32.064 35.2951L31.446 37.9881C31.305 38.5591 30.945 39.0451 30.458 39.3611C30.208 39.5071 29.944 39.6031 29.655 39.6511Z" fill="black"/>
<path d="M34.864 77.8163C34.214 77.9303 33.564 77.9843 32.905 77.9993C25.671 78.1473 19.425 72.6243 18.694 65.4293C18.665 65.1333 18.699 64.8433 18.774 64.5603C18.67 64.2933 18.612 64.0053 18.622 63.7003C18.77 56.9503 23.699 51.2683 30.347 50.1923C30.993 50.0873 31.651 50.0243 32.319 50.0153C36.049 49.9323 39.601 51.3043 42.299 53.8953C44.999 56.4803 46.526 59.9733 46.604 63.7103C46.753 70.6503 41.704 76.7193 34.864 77.8163Z" fill="black"/>
<path d="M22.3469 35.0624C16.1449 36.0594 9.98391 32.7664 7.37591 27.0454C6.75991 25.6914 6.36591 24.2354 6.20291 22.7344C6.07891 21.6174 6.84091 20.5814 7.94291 20.3504C9.36291 20.0744 12.1479 19.4204 14.8449 18.1774C18.0369 16.7034 20.0209 14.9544 20.7449 12.9784C20.9989 12.2664 21.5929 11.7574 22.3119 11.5944C22.3599 11.5894 22.4079 11.5714 22.4539 11.5694C23.1289 11.4594 23.8229 11.6714 24.3279 12.1594C25.3889 13.1914 27.1809 14.3474 29.6619 13.9494C29.8169 13.9224 29.9959 13.8854 30.1679 13.8504C30.2209 13.8324 30.2819 13.8254 30.3369 13.8094C31.2939 13.6534 32.2429 14.1594 32.6649 15.0504C32.7339 15.1944 32.7929 15.3014 32.8449 15.4114C36.0469 22.4324 32.9569 30.7504 25.9339 33.9584C24.7869 34.4844 23.5799 34.8444 22.3469 35.0624Z" fill="black"/>
<path d="M18.5691 11.7263C17.7221 11.8573 16.8931 12.1053 16.1051 12.4783C13.6561 13.5953 11.8521 15.6303 11.0131 18.0793C12.0131 17.7723 13.1231 17.3693 14.2411 16.8663C16.0741 16.0253 19.2061 14.2443 19.5671 11.7913L19.5961 11.6063C19.2501 11.6223 18.9131 11.6673 18.5691 11.7263ZM8.65906 23.1903C8.03606 23.2883 7.38806 23.1123 6.90206 22.7003C6.39906 22.2763 6.11006 21.6453 6.12906 20.9853C6.22106 15.6253 9.42806 10.7283 14.2931 8.48634C15.4371 7.96234 16.6371 7.60234 17.8701 7.40534C23.2751 6.53034 28.7221 8.90734 31.7421 13.4683C32.1571 14.0783 32.2321 14.8553 31.9521 15.5233C31.6631 16.2023 31.0611 16.6983 30.3401 16.8293L30.0971 16.8713C27.9171 17.2253 25.8411 16.7843 23.9221 15.5433C23.6031 15.3483 23.3341 15.1423 23.0731 14.9423C21.8761 17.2563 19.4951 19.2673 16.0581 20.8403C13.8911 21.8213 11.7051 22.4663 10.2581 22.8253C9.67306 22.9653 9.15806 23.0893 8.71606 23.1763C8.70306 23.1763 8.67806 23.1853 8.65906 23.1903Z" fill="black"/>
<path d="M14.051 51.1744C13.111 51.3234 12.306 51.6184 11.706 52.0094C11.258 52.3114 11.073 52.5844 11.078 52.6734C11.08 52.7094 11.322 52.9444 11.827 53.1484C12.605 53.4544 13.654 53.5564 14.751 53.4394C14.909 53.4294 15.063 53.4074 15.22 53.3804C16.148 53.2304 16.959 52.9394 17.572 52.5494C18.006 52.2514 18.194 51.9914 18.183 51.8844C18.186 51.8444 17.95 51.6114 17.447 51.4174C16.669 51.1014 15.629 50.9974 14.517 51.1114C14.351 51.1274 14.2 51.1454 14.051 51.1744ZM16.249 60.0454C15.981 60.0904 15.712 60.1294 15.438 60.1544C11.72 60.5334 8.07801 59.4544 5.17801 57.0974C2.26501 54.7334 0.458007 51.3904 0.0750075 47.6644C-0.685992 40.2994 4.44401 33.5924 11.747 32.4064C12.017 32.3604 12.295 32.3314 12.573 32.2934C16.281 31.9174 19.924 32.9974 22.823 35.3624C25.732 37.7164 27.539 41.0714 27.922 44.7934C28.692 52.1614 23.564 58.8634 16.249 60.0454Z" fill="black"/>
<path d="M15.7111 56.268C15.4931 56.306 15.2701 56.332 15.0431 56.352C13.4901 56.522 11.9461 56.346 10.7331 55.855C9.21711 55.25 8.27811 54.186 8.17411 52.945C8.02711 51.702 8.72411 50.486 10.0861 49.577C11.1661 48.872 12.6231 48.37 14.2101 48.205C15.7681 48.038 17.3011 48.218 18.5231 48.697C20.0351 49.303 20.9871 50.391 21.1031 51.62C21.1721 52.29 21.0611 53.723 19.1871 54.983C18.2621 55.604 17.0241 56.051 15.7111 56.268Z" fill="black"/>
<path d="M59.5561 70.6154C52.9981 71.6734 46.5441 67.9154 44.2131 61.6874C41.5101 54.4544 45.2011 46.3774 52.4241 43.6804C53.3011 43.3524 54.1921 43.1084 55.1001 42.9574C61.6601 41.8994 68.1121 45.6544 70.4401 51.8924C71.7491 55.3954 71.6251 59.1984 70.0681 62.5894C68.5171 65.9994 65.7291 68.5984 62.2231 69.9064C61.3611 70.2194 60.4641 70.4654 59.5561 70.6154Z" fill="black"/>
<path d="M65.974 28.7731C66.006 28.9091 66.019 29.0521 66.028 29.1951C66.026 29.4231 66.052 29.5991 66.091 29.7321C66.401 30.7791 67.448 31.4341 68.516 31.2631C68.616 31.2481 68.706 31.2231 68.806 31.1971C69.358 31.0221 69.817 30.6561 70.087 30.1391C70.365 29.6331 70.432 29.0431 70.271 28.4891C69.947 27.4471 68.906 26.7841 67.844 26.9621C67.743 26.9731 67.656 26.9931 67.563 27.0221C66.874 27.2301 66.348 27.7381 66.11 28.4321C66.078 28.5461 66.023 28.6641 65.974 28.7731ZM58.333 29.7921C58.24 29.8051 58.151 29.8271 58.054 29.8501C56.912 30.1961 56.26 31.4121 56.604 32.5621C56.912 33.6081 57.954 34.2631 59.024 34.0871C59.119 34.0741 59.21 34.0591 59.315 34.0211C59.868 33.8611 60.329 33.4841 60.6 32.9711C60.877 32.4661 60.941 31.8751 60.769 31.3141C60.734 31.1781 60.659 31.0211 60.55 30.8351C60.487 30.7181 60.421 30.5941 60.378 30.4701C60.263 30.4031 60.142 30.3291 60.043 30.2491C59.563 29.8601 58.939 29.6981 58.333 29.7921ZM65.661 45.6111C58.751 46.7281 52.016 42.5091 50.018 35.7781C47.821 28.3921 52.042 20.5641 59.441 18.3651C60.027 18.1891 60.616 18.0581 61.21 17.9601C68.12 16.8501 74.856 21.0641 76.856 27.7761C77.937 31.3691 77.533 35.1521 75.756 38.4401C73.979 41.7331 71.025 44.1391 67.44 45.2111C66.855 45.3751 66.264 45.5111 65.661 45.6111Z" fill="black"/>
<path d="M58.566 31.2244C58.529 31.2334 58.503 31.2344 58.472 31.2414C58.098 31.3514 57.877 31.7654 57.983 32.1524C58.1 32.5234 58.508 32.7534 58.902 32.6324C59.278 32.5144 59.497 32.1174 59.379 31.7364C59.283 31.3864 58.924 31.1714 58.566 31.2244ZM59.511 36.9714C56.992 37.3814 54.534 35.8454 53.798 33.3984C53.01 30.7024 54.544 27.8654 57.221 27.0534C57.44 26.9874 57.653 26.9414 57.864 26.9124C60.376 26.4944 62.838 28.0384 63.571 30.4814C64.369 33.1664 62.829 36.0104 60.149 36.8204C59.926 36.8924 59.724 36.9374 59.511 36.9714Z" fill="black"/>
<path d="M68.0499 28.393C68.0279 28.394 67.9909 28.404 67.9619 28.418C67.5899 28.53 67.3609 28.937 67.4779 29.324C67.5889 29.666 67.9379 29.889 68.2959 29.832C68.3219 29.829 68.3499 29.82 68.3879 29.806C68.7719 29.69 68.9829 29.284 68.8709 28.906C68.7709 28.562 68.4229 28.334 68.0499 28.393ZM68.9959 34.145C66.4829 34.543 64.0289 33.019 63.2959 30.572C62.4999 27.877 64.0349 25.036 66.7139 24.223C66.9429 24.158 67.1459 24.106 67.3589 24.077C69.8789 23.674 72.3199 25.202 73.0659 27.65C73.8639 30.353 72.3269 33.193 69.6339 33.997C69.4199 34.059 69.2059 34.107 68.9959 34.145Z" fill="black"/>
<path d="M47.0531 27.8272C40.1001 28.9502 33.3701 24.6992 31.3961 17.9302C29.2311 10.5282 33.4951 2.73121 40.9061 0.565206C41.4591 0.398206 42.0351 0.275206 42.5991 0.180206C49.5531 -0.945794 56.2801 3.30721 58.2731 10.0792C60.4441 17.4802 56.1681 25.2752 48.7561 27.4472C48.2051 27.6172 47.6241 27.7372 47.0581 27.8272H47.0531V27.8272Z" fill="black"/>
<path d="M43.278 38.815C42.473 39.046 41.625 38.575 41.393 37.763C41.167 36.947 41.635 36.11 42.45 35.881C43.265 35.659 44.105 36.123 44.328 36.939C44.564 37.746 44.083 38.591 43.278 38.815ZM35.088 41.131C34.286 41.365 33.449 40.885 33.217 40.078C32.977 39.265 33.461 38.418 34.261 38.189C35.082 37.962 35.929 38.431 36.152 39.252C36.383 40.05 35.911 40.904 35.088 41.131ZM48.52 32.416L44.778 34.816L42.527 31.701L39.538 34.754L36.705 31.501L35.949 33.843L31.455 34.641L30.394 39.27L26.937 38.389C26.86 39.645 26.986 40.937 27.348 42.219C29.122 48.494 35.653 52.141 41.932 50.369C48.209 48.6 51.86 42.083 50.092 35.8C49.752 34.561 49.204 33.44 48.52 32.416Z" fill="white"/>
<path d="M27.0969 36.9482L29.3109 37.4982L30.2609 33.3842L34.8369 32.5702L36.1119 28.6252L39.6139 32.6312L42.6979 29.4512L45.1539 32.8562L47.6409 31.2672C44.7329 27.9262 40.0589 26.3552 35.5129 27.6282C31.0139 28.9062 27.8579 32.6342 27.0969 36.9482Z" fill="white"/>
<path d="M36.5939 66.3074C35.7529 66.3224 35.0509 65.6504 35.0259 64.8094C35.0129 63.9594 35.6899 63.2664 36.5239 63.2464C37.3729 63.2304 38.0619 63.8974 38.0829 64.7464C38.1079 65.5824 37.4389 66.2874 36.5939 66.3074ZM28.0969 66.4744C27.2469 66.5014 26.5479 65.8294 26.5309 64.9874C26.5149 64.1454 27.1929 63.4384 28.0329 63.4314C28.8719 63.4114 29.5689 64.0824 29.5869 64.9214C29.6059 65.7574 28.9449 66.4584 28.0969 66.4744ZM32.3679 52.1964C26.0069 52.3254 20.9479 57.4624 20.8049 63.7574C21.3179 63.7074 21.3679 63.6204 21.4799 63.4594C21.6179 63.2674 21.7229 62.7464 21.8539 62.0704C22.1289 60.7074 22.7739 58.7184 25.3349 57.1224C26.2239 56.5484 27.2779 56.1944 28.3959 56.1704C29.8249 56.1424 31.3559 56.6384 32.9619 57.7194C34.4019 58.7034 36.3429 59.6814 38.0769 59.6394C39.1789 59.6174 40.2029 59.2364 41.2069 58.1634L42.2689 59.1474C41.0389 60.5004 39.5449 61.0664 38.1129 61.0924C35.8199 61.1234 33.7019 59.9624 32.1499 58.9134C30.7199 57.9514 29.4929 57.6104 28.4279 57.6194C27.5789 57.6364 26.8139 57.8984 26.1059 58.3514C22.8329 60.5024 23.6479 62.4314 22.7379 64.1974C22.4079 64.7864 21.6929 65.1914 20.8619 65.2144C21.4799 71.2764 26.6579 75.9404 32.8609 75.8074C39.3769 75.6774 44.5649 70.2824 44.4209 63.7524C44.2859 57.2274 38.8939 52.0504 32.3679 52.1964Z" fill="white"/>
<path d="M24.64 20.7872C23.867 21.1402 22.96 20.8022 22.614 20.0392C22.265 19.2692 22.604 18.3692 23.364 18.0162C24.137 17.6542 25.046 18.0022 25.392 18.7642C25.734 19.5352 25.406 20.4502 24.64 20.7872ZM16.914 24.3202C16.141 24.6782 15.237 24.3412 14.888 23.5692C14.538 22.8182 14.877 21.8962 15.648 21.5442C16.408 21.2002 17.315 21.5372 17.657 22.3042C18.018 23.0682 17.675 23.9752 16.914 24.3202ZM30.683 15.9682C26.853 16.8902 24.135 15.0202 22.809 13.7222C21.687 16.8002 18.694 18.8162 15.747 20.1632C12.827 21.5162 9.85098 22.2132 8.37598 22.5002C8.50498 23.7302 8.83198 24.9542 9.36998 26.1482C12.075 32.0712 19.094 34.6842 25.023 31.9752C30.962 29.2512 33.565 22.2402 30.852 16.3122C30.8 16.1922 30.733 16.0862 30.683 15.9682Z" fill="white"/>
<path d="M15.1449 18.8562C18.3749 17.3742 21.2889 15.1502 21.7259 12.1022L22.0119 10.3122L23.0519 11.8092C23.0489 11.7972 23.2069 12.0402 23.5639 12.4162C23.9019 12.7852 24.4329 13.2772 25.0969 13.7032C26.2879 14.4672 27.8849 15.0672 29.9339 14.6822C26.7759 9.92921 20.5479 8.03721 15.1989 10.4832C10.9289 12.4332 8.39593 16.6232 8.30493 21.0232C8.70693 20.9482 9.17793 20.8392 9.73093 20.7122C11.2409 20.3372 13.2239 19.7342 15.1449 18.8562Z" fill="white"/>
<path d="M18.764 54.3663C17.787 55.0153 16.465 55.4603 14.969 55.6203C13.492 55.7713 12.11 55.5963 11.009 55.1793C9.94102 54.7423 9.03902 53.9973 8.90102 52.8763C8.80302 51.7403 9.53902 50.8263 10.5 50.1933C11.484 49.5433 12.8 49.1023 14.289 48.9373C15.768 48.7853 17.161 48.9543 18.253 49.3833C19.33 49.8153 20.232 50.5513 20.366 51.6973C20.466 52.8193 19.733 53.7363 18.764 54.3663ZM8.71302 39.5313C9.55102 39.4353 10.307 40.0493 10.385 40.8833C10.472 41.7293 9.85802 42.4793 9.02202 42.5643C8.18302 42.6443 7.43102 42.0423 7.34502 41.1963C7.26002 40.3653 7.87602 39.6113 8.71302 39.5313ZM17.171 38.6533C18.007 38.5633 18.753 39.1813 18.849 40.0073C18.92 40.8543 18.318 41.6013 17.475 41.6923C16.635 41.7723 15.887 41.1723 15.805 40.3313C15.717 39.4853 16.319 38.7363 17.171 38.6533ZM12.796 34.4753C6.29602 35.1453 1.58202 40.9453 2.24802 47.4353C2.92102 53.9253 8.72302 58.6513 15.213 57.9773C21.705 57.3073 26.427 51.5083 25.752 45.0163C25.084 38.5253 19.278 33.8033 12.796 34.4753Z" fill="white"/>
<path d="M17.714 50.7371C16.9 50.4121 15.714 50.2441 14.434 50.3831C13.155 50.5131 12.033 50.9141 11.298 51.3951C10.54 51.9021 10.302 52.4101 10.341 52.7221C10.358 53.0411 10.711 53.4921 11.558 53.8231C12.362 54.1461 13.537 54.3211 14.836 54.1821C16.105 54.0441 17.236 53.6501 17.969 53.1581C18.724 52.6551 18.973 52.1441 18.928 51.8351C18.912 51.5171 18.556 51.0661 17.714 50.7371Z" fill="white"/>
<path d="M60.824 65.0351C60.805 65.0291 60.793 65.0371 60.793 65.0371C57.308 66.3261 53.319 65.3141 50.834 62.8771L51.962 61.7531C53.967 63.7481 57.409 64.6161 60.227 63.5451C62.519 62.6711 64.501 60.6091 65.165 56.5881L65.168 56.5871L66.744 56.8301C66.044 61.2791 63.659 63.9671 60.824 65.0351ZM51.744 54.2681C52.533 53.9701 53.42 54.3711 53.708 55.1631C54.015 55.9471 53.602 56.8311 52.812 57.1231C52.026 57.4231 51.15 57.0251 50.839 56.2191C50.552 55.4411 50.957 54.5581 51.744 54.2681ZM59.709 51.2841C60.494 50.9871 61.378 51.4031 61.672 52.1791C61.97 52.9731 61.565 53.8571 60.778 54.1371C59.986 54.4451 59.1 54.0501 58.808 53.2441C58.52 52.4621 58.912 51.5861 59.709 51.2841ZM53.195 45.7231C47.074 48.0101 43.972 54.8101 46.264 60.9191C48.551 67.0301 55.359 70.1461 61.469 67.8511C67.573 65.5791 70.677 58.7601 68.39 52.6601C66.117 46.5371 59.301 43.4361 53.195 45.7231Z" fill="white"/>
<path d="M69.4299 33.281C67.1169 33.978 64.6909 32.662 63.9909 30.356C63.8919 29.984 63.8439 29.626 63.8339 29.261C63.6869 29.102 63.4769 29.01 62.9909 29.104L62.9579 29.106C62.6609 29.175 62.5109 29.482 62.4329 29.733C62.6149 30.033 62.7759 30.344 62.8679 30.691C63.5559 33 62.2429 35.427 59.9309 36.117C57.6209 36.813 55.1939 35.491 54.5099 33.182C53.8219 30.874 55.1329 28.446 57.4389 27.758C58.8729 27.333 60.3449 27.68 61.4129 28.553C61.6589 28.222 62.0109 27.902 62.5609 27.717C62.5839 27.71 62.6269 27.693 62.6759 27.684C63.2109 27.539 63.6649 27.595 64.0399 27.735C64.4799 26.429 65.5169 25.352 66.9309 24.931C69.2429 24.243 71.6669 25.56 72.3559 27.868C73.0549 30.168 71.7309 32.601 69.4299 33.281ZM60.0709 20.46C53.8159 22.328 50.2519 28.906 52.1179 35.157C53.9849 41.414 60.5639 44.974 66.8139 43.105C73.0769 41.241 76.6239 34.658 74.7699 28.405C72.8999 22.153 66.3129 18.597 60.0709 20.46Z" fill="white"/>
<path d="M57.852 29.1444C56.309 29.6064 55.439 31.2344 55.892 32.7764C56.362 34.3124 57.974 35.1924 59.519 34.7364C61.06 34.2674 61.935 32.6484 61.48 31.1184C61.013 29.5734 59.393 28.6934 57.852 29.1444Z" fill="white"/>
<path d="M67.3439 26.3174C65.8079 26.7784 64.9319 28.3914 65.3789 29.9424C65.8549 31.4824 67.4719 32.3574 69.0079 31.9024C70.5519 31.4354 71.4299 29.8234 70.9759 28.2774C70.5069 26.7394 68.8899 25.8584 67.3439 26.3174Z" fill="white"/>
<path d="M44.267 9.49943L50.441 16.9054L45.31 18.7264L44.833 17.3574L47.997 16.2234L41.895 8.93343L49.274 5.76843H49.276L49.847 7.09843L44.267 9.49943ZM49.391 12.0284C48.581 12.2724 47.738 11.8034 47.5 10.9884C47.265 10.1814 47.727 9.34043 48.537 9.10143C49.349 8.86943 50.189 9.33343 50.426 10.1394C50.667 10.9474 50.206 11.7964 49.391 12.0284ZM41.236 14.4124C40.422 14.6444 39.581 14.1744 39.339 13.3774C39.11 12.5644 39.574 11.7184 40.377 11.4844C41.199 11.2474 42.035 11.7094 42.277 12.5224C42.516 13.3234 42.042 14.1794 41.236 14.4124ZM41.526 2.66343C35.256 4.50143 31.654 11.0604 33.492 17.3204C35.318 23.5834 41.872 27.1744 48.15 25.3454C54.407 23.5184 58.004 16.9574 56.175 10.6944C54.335 4.43843 47.781 0.841427 41.526 2.66343Z" fill="white"/>
</svg>
