<svg width="908" height="802" viewBox="0 0 908 802" fill="none" xmlns="http://www.w3.org/2000/svg">
<g clip-path="url(#clip0)">
<path opacity="0.1" d="M289.44 794.29C333.7 794.29 369.58 783.778 369.58 770.81C369.58 757.842 333.7 747.33 289.44 747.33C245.18 747.33 209.3 757.842 209.3 770.81C209.3 783.778 245.18 794.29 289.44 794.29Z" fill="#6C63FF"/>
<path opacity="0.1" d="M477.27 673.88C667.907 673.88 822.45 666.426 822.45 657.23C822.45 648.035 667.907 640.58 477.27 640.58C286.632 640.58 132.09 648.035 132.09 657.23C132.09 666.426 286.632 673.88 477.27 673.88Z" fill="#6C63FF"/>
<path opacity="0.1" d="M280.16 31.2698C310.95 3.83982 359.27 -1.73017 403.25 0.429828C541.41 7.28983 666.12 73.9898 773.99 149.43C812.99 176.74 851.49 206.17 876.84 243.78C928.44 320.34 913.14 426.41 841.38 489.48C816.97 510.94 787.38 527.39 756.99 541.98C702.99 567.91 644.68 588.72 583.37 594.65C539.65 598.87 495.37 595.44 451.92 589.54C330.47 573.08 211.26 536.66 111.35 474.35C67.5298 447.02 26.2298 413.05 8.15976 368.85C-9.91024 324.65 1.65976 268.62 46.4098 242.45C64.9098 231.62 87.0398 226.74 108.7 222.15C140.59 215.39 172.99 208.73 201.76 194.99C231.49 180.81 266.68 153.37 260.76 121.99C254.48 88.2598 249.41 58.6698 280.16 31.2698Z" fill="#6C63FF"/>
<path d="M809.84 109.51H150.06C137.457 109.51 127.24 119.727 127.24 132.33V634.41C127.24 647.013 137.457 657.23 150.06 657.23H809.84C822.443 657.23 832.66 647.013 832.66 634.41V132.33C832.66 119.727 822.443 109.51 809.84 109.51Z" fill="#474157"/>
<path d="M776.94 158.92H184.01V605.72H776.94V158.92Z" fill="#EDEDF4"/>
<path d="M160.88 392.04C166.248 392.04 170.6 387.688 170.6 382.32C170.6 376.951 166.248 372.6 160.88 372.6C155.512 372.6 151.16 376.951 151.16 382.32C151.16 387.688 155.512 392.04 160.88 392.04Z" fill="#E6E8EC"/>
<path d="M803.22 399.4C812.074 399.4 819.25 392.223 819.25 383.37C819.25 374.517 812.074 367.34 803.22 367.34C794.367 367.34 787.19 374.517 787.19 383.37C787.19 392.223 794.367 399.4 803.22 399.4Z" fill="#E6E8EC"/>
<path d="M523.59 356.09C523.714 355.992 523.863 355.931 524.02 355.914C524.177 355.897 524.335 355.925 524.477 355.994C524.619 356.063 524.738 356.17 524.822 356.304C524.906 356.437 524.95 356.592 524.95 356.75V385.51C524.95 387.3 524.239 389.017 522.973 390.283C521.707 391.549 519.99 392.26 518.2 392.26H459.66C457.87 392.26 456.153 391.549 454.887 390.283C453.621 389.017 452.91 387.3 452.91 385.51V356.76C452.912 356.602 452.959 356.448 453.044 356.315C453.129 356.182 453.249 356.075 453.391 356.006C453.533 355.938 453.692 355.91 453.849 355.927C454.006 355.943 454.155 356.003 454.28 356.1C457.43 358.55 461.6 361.66 475.95 372.1C478.95 374.26 483.95 378.82 488.95 378.79C493.95 378.76 499.08 374.18 501.95 372.1C516.27 361.66 520.44 358.54 523.59 356.09ZM488.95 374.26C492.21 374.26 496.95 370.15 499.27 368.44C517.93 354.89 519.35 353.71 523.66 350.34C524.062 350.023 524.387 349.618 524.61 349.158C524.834 348.697 524.95 348.192 524.95 347.68V345.01C524.95 343.22 524.239 341.503 522.973 340.237C521.707 338.971 519.99 338.26 518.2 338.26H459.66C457.87 338.26 456.153 338.971 454.887 340.237C453.621 341.503 452.91 343.22 452.91 345.01V347.68C452.912 348.192 453.029 348.696 453.252 349.157C453.475 349.617 453.799 350.022 454.2 350.34C458.51 353.7 459.93 354.89 478.59 368.44C480.95 370.15 485.65 374.31 488.91 374.26H488.95Z" fill="#6C63FF"/>
<path opacity="0.2" d="M383.66 259.03H328.22C326.524 259.033 324.899 259.708 323.701 260.908C322.503 262.108 321.83 263.735 321.83 265.43V303.85C321.83 305.546 322.503 307.172 323.701 308.372C324.899 309.572 326.524 310.248 328.22 310.25H383.66C385.357 310.248 386.983 309.572 388.183 308.373C389.382 307.173 390.057 305.547 390.06 303.85V265.43C390.057 263.734 389.382 262.107 388.183 260.908C386.983 259.708 385.357 259.033 383.66 259.03V259.03ZM383.66 265.43V270.85C380.66 273.28 375.9 277.07 365.72 285.04C363.47 286.81 359.03 291.04 355.93 291.04C352.83 291.04 348.39 286.85 346.15 285.04C335.96 277.04 331.15 273.28 328.2 270.85V265.41L383.66 265.43ZM328.22 303.85V279.08C331.28 281.51 335.61 284.93 342.22 290.08C345.14 292.37 350.22 297.43 355.96 297.4C361.7 297.37 366.69 292.4 369.7 290.08C376.3 284.91 380.63 281.49 383.7 279.08V303.85H328.22Z" fill="#6C63FF"/>
<path opacity="0.1" d="M329.66 365.85H274.22C273.38 365.85 272.548 366.015 271.772 366.337C270.996 366.659 270.292 367.13 269.698 367.725C269.105 368.319 268.634 369.025 268.314 369.801C267.993 370.578 267.829 371.41 267.83 372.25V410.65C267.83 412.345 268.503 413.972 269.701 415.172C270.899 416.372 272.524 417.047 274.22 417.05H329.66C331.357 417.047 332.983 416.372 334.183 415.172C335.382 413.973 336.057 412.346 336.06 410.65V372.26C336.061 371.418 335.897 370.585 335.576 369.807C335.255 369.03 334.784 368.323 334.189 367.728C333.595 367.132 332.889 366.66 332.112 366.338C331.334 366.015 330.501 365.85 329.66 365.85V365.85ZM329.66 372.25V377.69C326.66 380.12 321.9 383.91 311.72 391.88C309.47 393.65 305.03 397.88 301.93 397.88C298.83 397.88 294.39 393.69 292.15 391.88C281.96 383.88 277.15 380.12 274.2 377.69V372.25H329.66ZM274.22 410.65V385.91C277.28 388.34 281.61 391.75 288.22 396.91C291.14 399.21 296.22 404.27 301.96 404.24C307.7 404.21 312.69 399.24 315.7 396.92C322.3 391.75 326.63 388.33 329.7 385.92V410.65H274.22Z" fill="#6C63FF"/>
<path opacity="0.2" d="M390.08 462.54H334.66C332.963 462.543 331.337 463.218 330.137 464.418C328.938 465.617 328.262 467.244 328.26 468.94V507.33C328.262 509.027 328.938 510.653 330.137 511.853C331.337 513.052 332.963 513.727 334.66 513.73H390.12C391.815 513.727 393.441 513.052 394.639 511.852C395.837 510.652 396.51 509.026 396.51 507.33V468.94C396.51 468.097 396.343 467.262 396.02 466.484C395.696 465.706 395.222 464.999 394.625 464.404C394.027 463.809 393.318 463.338 392.538 463.019C391.758 462.699 390.923 462.536 390.08 462.54ZM390.08 468.94V474.38C387.08 476.81 382.32 480.6 372.14 488.57C369.89 490.34 365.44 494.57 362.35 494.57C359.26 494.57 354.81 490.38 352.56 488.57C342.38 480.6 337.66 476.85 334.66 474.38V468.94H390.08ZM334.66 507.33V482.59C337.72 485.02 342.05 488.44 348.66 493.59C351.57 495.88 356.66 500.94 362.4 500.91C368.14 500.88 373.13 495.91 376.14 493.59C382.74 488.42 387.07 485 390.14 482.59V507.33H334.66Z" fill="#6C63FF"/>
<path opacity="0.2" d="M501.66 194.6H446.22C445.38 194.6 444.548 194.765 443.772 195.087C442.997 195.409 442.292 195.88 441.698 196.475C441.105 197.069 440.634 197.775 440.314 198.551C439.993 199.328 439.829 200.16 439.83 201V239.39C439.83 241.085 440.503 242.712 441.701 243.912C442.899 245.112 444.524 245.787 446.22 245.79H501.66C503.357 245.787 504.983 245.112 506.183 243.912C507.382 242.713 508.057 241.086 508.06 239.39V201C508.06 199.302 507.386 197.674 506.186 196.474C504.985 195.274 503.357 194.6 501.66 194.6ZM501.66 201V206.44C498.66 208.87 493.9 212.65 483.72 220.63C481.47 222.4 477.03 226.63 473.93 226.63C470.83 226.63 466.39 222.44 464.15 220.63C453.96 212.63 449.15 208.87 446.15 206.44V201H501.66ZM446.2 239.39V214.65C449.26 217.08 453.59 220.49 460.2 225.65C463.12 227.95 468.2 233.01 473.94 232.98C479.68 232.95 484.67 227.98 487.68 225.65C494.28 220.48 498.61 217.07 501.68 214.65V239.39H446.2Z" fill="#6C63FF"/>
<path opacity="0.2" d="M501.66 525.66H446.22C444.524 525.663 442.899 526.338 441.701 527.538C440.503 528.738 439.83 530.365 439.83 532.06V570.45C439.83 572.146 440.503 573.772 441.701 574.972C442.899 576.172 444.524 576.848 446.22 576.85H501.66C503.357 576.848 504.983 576.172 506.183 574.973C507.382 573.773 508.057 572.147 508.06 570.45V532.06C508.057 530.364 507.382 528.737 506.183 527.538C504.983 526.338 503.357 525.663 501.66 525.66ZM501.66 532.06V537.5C498.66 539.93 493.9 543.72 483.72 551.69C481.47 553.46 477.03 557.69 473.93 557.69C470.83 557.69 466.39 553.5 464.15 551.69C453.96 543.69 449.15 539.93 446.15 537.5V532.06H501.66ZM446.22 570.45V545.71C449.28 548.14 453.61 551.56 460.22 556.71C463.14 559 468.22 564.06 473.96 564.03C479.7 564 484.69 559.03 487.7 556.71C494.3 551.54 498.63 548.12 501.7 545.71V570.45H446.22Z" fill="#6C63FF"/>
<path opacity="0.2" d="M565.83 265.43V303.85C565.83 305.546 566.503 307.172 567.701 308.372C568.899 309.572 570.524 310.248 572.22 310.25H627.66C629.357 310.248 630.983 309.572 632.183 308.373C633.382 307.173 634.057 305.547 634.06 303.85V265.43C634.057 263.734 633.382 262.107 632.183 260.908C630.983 259.708 629.357 259.033 627.66 259.03H572.22C570.524 259.033 568.899 259.708 567.701 260.908C566.503 262.108 565.83 263.735 565.83 265.43V265.43ZM627.68 265.43V270.85C624.68 273.28 619.92 277.07 609.74 285.04C607.49 286.81 603.04 291.04 599.95 291.04C596.86 291.04 592.41 286.85 590.17 285.04C579.98 277.04 575.17 273.28 572.17 270.85V265.41L627.68 265.43ZM572.22 303.85V279.08C575.28 281.51 579.61 284.93 586.22 290.08C589.22 292.44 594.27 297.43 599.96 297.4C605.65 297.37 610.79 292.4 613.7 290.08C620.3 284.91 624.63 281.49 627.7 279.08V303.85H572.22Z" fill="#6C63FF"/>
<path opacity="0.2" d="M616.09 368.18V406.57C616.09 408.268 616.764 409.896 617.964 411.096C619.165 412.296 620.792 412.97 622.49 412.97H677.94C679.636 412.968 681.263 412.292 682.462 411.093C683.662 409.893 684.337 408.267 684.34 406.57V368.18C684.337 366.484 683.662 364.857 682.462 363.658C681.263 362.458 679.636 361.783 677.94 361.78H622.49C621.649 361.78 620.817 361.946 620.041 362.267C619.264 362.589 618.559 363.06 617.964 363.655C617.37 364.249 616.899 364.955 616.577 365.731C616.255 366.508 616.09 367.34 616.09 368.18V368.18ZM677.94 368.18V373.62C674.94 376.05 670.18 379.84 660 387.81C657.76 389.58 653.31 393.81 650.21 393.81C647.11 393.81 642.67 389.62 640.43 387.81C630.24 379.81 625.48 376.05 622.49 373.62V368.18H677.94ZM622.49 406.57V381.85C625.49 384.28 629.87 387.7 636.49 392.85C639.49 395.21 644.49 400.2 650.22 400.17C655.95 400.14 661.05 395.17 663.96 392.85C670.56 387.68 674.9 384.26 677.96 381.85V406.59L622.49 406.57Z" fill="#6C63FF"/>
<path opacity="0.2" d="M559.43 468.94V507.33C559.43 509.027 560.104 510.655 561.304 511.856C562.504 513.056 564.132 513.73 565.83 513.73H621.28C622.976 513.727 624.603 513.052 625.802 511.853C627.002 510.653 627.677 509.027 627.68 507.33V468.94C627.677 467.243 627.002 465.617 625.802 464.417C624.603 463.218 622.976 462.543 621.28 462.54H565.83C564.132 462.54 562.504 463.214 561.304 464.415C560.104 465.615 559.43 467.243 559.43 468.94ZM621.28 468.94V474.38C618.28 476.81 613.52 480.6 603.34 488.57C601.09 490.34 596.65 494.57 593.55 494.57C590.45 494.57 586.01 490.38 583.77 488.57C573.58 480.57 568.77 476.81 565.83 474.38V468.94H621.28ZM565.83 507.33V482.59C568.88 485.02 573.21 488.44 579.83 493.59C582.83 495.95 587.83 500.94 593.56 500.91C599.29 500.88 604.39 495.91 607.3 493.59C613.9 488.42 618.23 485 621.3 482.59V507.33H565.83Z" fill="#6C63FF"/>
<path d="M439.56 351.43L438.63 351.05C437.777 349.828 436.809 348.689 435.74 347.65C435.74 347.65 410.27 339.11 405.09 335.96C401.881 334.057 398.221 333.049 394.49 333.04L385.25 331.47C385.25 331.47 380.06 330.35 377.58 329.47C375.1 328.59 370.58 326.78 370.58 326.78C370.58 326.78 365.17 324.53 364.26 323.18C363.35 321.83 358.85 320.71 358.85 320.71L349.61 313.71C349.61 313.71 342.17 309.21 341.04 304.94C339.91 300.67 335.63 288.76 321.21 296.4C321.21 296.4 313.99 294.4 312.21 292.13C310.43 289.86 293.51 292.35 293.51 292.35L288.24 283.35C287.601 278.313 287.46 273.225 287.82 268.16C287.82 267.68 287.9 267.16 287.95 266.71C292.728 263.045 296.132 257.878 297.614 252.042C299.097 246.206 298.57 240.041 296.12 234.54C295.97 234.2 295.8 233.86 295.64 233.54C296.051 232.757 296.344 231.918 296.51 231.05C296.51 230.83 296.58 230.61 296.61 230.39C296.66 229.879 296.677 229.364 296.66 228.85C296.654 227.878 296.526 226.911 296.28 225.97L296.07 225.27C295.383 223.17 294.114 221.307 292.41 219.9C290.74 218.54 288.64 217.61 287.41 215.9C285.6 213.32 286.07 209.67 284.41 207.02C284.244 206.773 284.064 206.536 283.87 206.31L283.72 206.15C283.55 205.97 283.37 205.81 283.19 205.65L283.08 205.56C280.63 203.56 276.81 203.39 273.62 204.2C269.77 205.2 266.2 207.2 262.26 207.78C259.13 208.2 255.97 207.61 252.82 207.41C249.67 207.21 246.3 207.41 243.71 209.25C240.52 211.48 239.22 215.59 236.43 218.31C233.64 221.03 229.19 222.31 226.75 225.52C225.871 226.702 225.301 228.086 225.093 229.544C224.886 231.002 225.046 232.49 225.56 233.87C226.56 236.44 228.75 238.51 229.25 241.22C229.81 244.22 228.25 247.54 229.3 250.27C229.381 250.466 229.475 250.656 229.58 250.84C229.713 250.83 229.847 250.83 229.98 250.84H230.29H230.37L230.75 250.91C230.876 250.934 230.999 250.968 231.12 251.01C231.92 251.312 232.638 251.797 233.218 252.425C233.798 253.054 234.223 253.809 234.46 254.63C235.11 256.76 234.75 259.06 234.46 261.27C234.17 263.48 233.85 265.8 234.64 267.88C234.675 267.983 234.719 268.084 234.77 268.18V268.18C234.837 268.335 234.921 268.483 235.02 268.62L235.08 268.7C235.177 268.834 235.292 268.955 235.42 269.06C236.007 269.403 236.671 269.592 237.35 269.61V269.61C237.58 269.61 237.81 269.69 238.03 269.74C238.25 269.79 238.33 269.82 238.47 269.86L238.68 269.92C238.87 269.98 239.05 270.04 239.24 270.12H239.29C239.49 270.21 239.69 270.29 239.88 270.39C240.91 270.87 241.834 271.55 242.6 272.39C242.91 272.73 243.2 273.1 243.5 273.45L243.93 273.9C244.084 274.044 244.248 274.178 244.42 274.3C245.157 274.773 246.025 275.001 246.9 274.95C248.023 274.881 249.132 274.665 250.2 274.31L250.29 275.15C250.47 276.75 250.63 278.33 250.76 279.87C250.76 280.09 250.76 280.3 250.81 280.51C247.506 283.28 244.786 286.679 242.81 290.51L243.11 291.51C242.997 291.637 242.897 291.767 242.81 291.9V296.39C242.81 296.39 218.91 300.66 216.2 302.69C213.49 304.72 208.54 304.93 208.54 304.93C208.54 304.93 195.01 304.26 195.01 316.84C195.01 316.84 194.56 322.68 191.86 322.91C189.16 323.14 187.8 326.73 187.8 326.73L174.05 341.56L153.98 357.74C153.98 357.74 145.07 366.12 142.79 369.6C142.518 369.944 142.336 370.349 142.26 370.78C142.26 370.78 117.94 397.85 144.56 409.21L145.39 409.55L168.66 426.98L197.66 443.38L198.53 442.15L198.99 442.46L202.48 444.76L206.94 437.57L207.53 437.7C209.17 438.08 211.13 438.88 212.03 440.54C213.36 443 221.39 448.21 226.28 448.72L226.1 449.26L223.36 457.99C223.36 457.99 217.95 464.28 219.08 466.53C220.21 468.78 217.08 485.41 217.08 485.41C217.08 485.41 222.08 487.41 224.52 488.78C224.991 488.964 225.481 489.098 225.98 489.18C225.98 489.62 225.89 490.07 225.84 490.5C225.762 492.071 225.223 493.584 224.29 494.85C221.58 497.54 221.81 502.94 221.81 502.94C221.81 502.94 220.45 510.8 221.81 511.7C223.17 512.6 221.2 514.62 221.2 514.62C221.2 514.62 223.3 521.36 221.2 524.06C219.1 526.76 214.77 563.16 222.79 580.91C222.79 580.91 229.94 596.19 226.1 601.59C222.26 606.99 217.39 624.29 218.1 627.43C218.81 630.57 217.05 638.22 217.05 638.22C217.05 638.22 219.98 654.22 217.95 657.54C215.92 660.86 210.51 712.15 217.05 724.54C217.05 724.54 210.51 732.86 207.13 732.86C203.75 732.86 210.06 745.86 212.76 748.37C215.46 750.88 216.68 762.97 216.68 762.97L217.07 763.15C217.18 763.63 217.31 764.15 217.44 764.66C218.87 770.23 221.32 777.88 224.04 778.03C228.32 778.25 244.78 777.13 245.45 773.08C246.12 769.03 245.22 762.29 248.6 760.27C251.98 758.25 263.71 752.41 256.5 738.48C255.62 738.382 254.734 738.355 253.85 738.4H253.79L255.14 708.4L260.55 664.58C260.55 664.58 265.29 649.52 265.97 647.5C266.65 645.48 264.84 642.11 264.84 642.11L266.11 629.97C266.11 629.97 265.29 616.49 267.99 614.69C270.69 612.89 269.12 606.16 269.12 606.16C269.12 606.16 271.38 598.29 271.6 594.02C271.85 590.906 272.379 587.82 273.18 584.8C273.18 584.8 274.08 580.8 275.66 575.37C276.697 571.393 277.367 567.33 277.66 563.23C277.66 563.23 283.74 555.59 283.07 549.52C282.4 543.45 283.52 533.79 285.77 535.81C288.02 537.83 289.38 544.81 289.38 544.81L292.76 563.69C292.76 563.69 298.62 582.34 297.94 585.04C297.26 587.74 299.75 597.62 299.75 597.62C299.75 597.62 299.3 609.08 300.65 611.78C302 614.48 300.65 619.87 300.65 619.87C300.65 619.87 305.16 631.33 304.48 633.58C303.8 635.83 304.55 649.08 304.55 649.08L305.84 658.97C305.84 658.97 307.19 666.84 305.84 671.11C304.49 675.38 311.74 731.11 313.75 735.61C315.76 740.11 312.6 749.31 312.6 749.31C312.6 749.31 310.12 756.73 320.71 762.31L323.87 775.12L324.1 775.19C324.1 775.64 324.17 776.11 324.24 776.57C325.13 782.49 329.62 788.57 346.19 783.44C346.19 783.44 351.19 781.7 352.5 778.08C353.81 774.46 364.22 770.63 364.22 770.63C364.22 770.63 373.34 760.22 365.35 752.88C364.291 751.775 362.917 751.024 361.415 750.731C359.913 750.437 358.357 750.615 356.96 751.24C356.638 748.339 357.122 745.404 358.36 742.76C360.84 737.6 355.88 726.58 354.31 724.76C352.74 722.94 356.31 714.65 356.31 714.65C355.631 712.352 354.803 710.1 353.83 707.91C352.93 706.33 352.03 665.43 352.03 665.43C352.03 665.43 350.23 642.96 345.49 633.52C345.49 633.52 346.62 626.78 347.07 623.86C347.52 620.94 346.62 572.4 346.62 572.4C346.62 572.4 356.31 556.4 349.55 532.62C349.582 529.155 349.883 525.698 350.45 522.28C351.35 517.34 349.1 508.57 349.1 508.57C349.1 508.57 351.58 496.21 346.85 492.57C344.85 491.09 344.01 487.7 343.65 484.22C343.65 483.78 343.58 483.34 343.55 482.91C349.87 481.24 354.49 479.39 354.96 477.52C356.54 471.23 346.17 441.52 346.17 441.52L333.66 405.18C333.66 405.18 338.4 388.55 336.37 383.38C334.34 378.21 340.88 365.17 340.88 365.17C340.88 365.17 337.94 356.64 339.97 354.39C340.121 354.2 340.243 353.987 340.33 353.76L345.16 357.31C345.16 357.31 353.28 359.56 355.24 361.8C357.2 364.04 365.9 363.38 365.9 363.38C365.9 363.38 374.45 363.13 379.9 364.22C381.357 364.387 382.741 364.95 383.9 365.85C386.61 368.78 395.63 369.85 397.43 368.55C398.11 368.03 399.43 368.04 400.92 368.24C402.567 368.512 404.189 368.916 405.77 369.45L435.77 373.27C436.448 372.709 437.096 372.111 437.71 371.48L438.1 371.78C462.37 389.45 463.28 372.15 463.28 372.15C463.28 372.15 471.84 374.39 471.84 369.15C471.81 364.98 449.32 355.39 439.56 351.43ZM216.56 423.17L215.92 423.12L216.35 422.43L213.96 421.31L213.45 421.07L214.35 419.78L190.66 405.61C189.064 404.692 187.8 403.292 187.05 401.61C185.7 398.69 179.84 398.02 179.84 398.02L173.19 392.17C173.19 392.17 180.97 382.73 183.19 382.73C185.41 382.73 189.28 379.94 189.28 379.94L198.79 373.52L198.97 373.75C198.97 373.75 207.31 384.08 207.97 385.88C208.63 387.68 216.08 395.54 216.08 395.54C216.08 395.54 223.98 405.43 227.58 416.44C228.899 418.258 230.422 419.919 232.12 421.39C225.94 422.07 218.56 423.39 218.56 423.39L216.56 423.17Z" fill="url(#paint0_linear)"/>
<path d="M289.66 271.63C288.52 285.73 292.61 300.16 292.61 300.16C292.61 300.16 249.31 302.84 252.43 297.04C252.849 296.092 253.09 295.075 253.14 294.04C253.369 290.464 253.295 286.874 252.92 283.31C252.79 281.78 252.63 280.21 252.46 278.61C251.88 273.38 251.11 268 250.46 263.77C250.35 263.12 250.25 262.49 250.16 261.9C249.55 258.17 249.1 255.71 249.1 255.71C249.1 255.71 282.39 245.92 292.46 249.26C295.3 250.2 296.3 252.17 294.19 255.71C291.714 260.154 290.224 265.079 289.82 270.15C289.71 270.67 289.66 271.15 289.66 271.63Z" fill="#BE6F72"/>
<path d="M471.81 371.93C471.81 377.17 463.33 374.93 463.33 374.93C463.33 374.93 462.43 392.12 438.4 374.56C437.79 374.11 437.16 373.64 436.51 373.14L435.51 353.72V352.6C435.51 352.6 437.21 353.27 439.88 354.35C449.54 358.3 471.81 367.85 471.81 371.93Z" fill="#BE6F72"/>
<path d="M250.84 760.41C247.49 762.41 248.39 769.12 247.72 773.13C247.05 777.14 230.72 778.27 226.51 778.05C223.82 777.9 221.39 770.3 219.98 764.77C219.17 761.59 218.69 759.09 218.69 759.09C218.69 759.09 245.69 748.36 247.94 743C249.36 739.58 253.35 738.8 256.03 738.69C256.904 738.645 257.78 738.669 258.65 738.76C265.8 752.6 254.18 758.4 250.84 760.41Z" fill="#464A5F"/>
<path d="M365.34 770.68C365.34 770.68 355.08 774.47 353.74 778.08C352.4 781.69 347.49 783.41 347.49 783.41C331.08 788.52 326.64 782.46 325.76 776.58C325.42 773.861 325.597 771.103 326.28 768.45L350.39 758.37C350.39 758.37 353.66 753.31 358.07 751.45C359.46 750.806 361.017 750.614 362.522 750.901C364.027 751.188 365.404 751.94 366.46 753.05C374.37 760.34 365.34 770.68 365.34 770.68Z" fill="#464A5F"/>
<path opacity="0.1" d="M256.03 738.69L255.52 749.93C248.39 754.83 247.52 764.43 247.52 764.43C243.191 766.328 238.525 767.337 233.799 767.395C229.073 767.453 224.384 766.561 220.01 764.77C219.2 761.59 218.72 759.09 218.72 759.09C218.72 759.09 245.72 748.36 247.97 743C249.36 739.58 253.35 738.85 256.03 738.69Z" fill="black"/>
<path opacity="0.1" d="M358.42 754.39C349.94 781.49 328.81 777.33 325.76 776.58C325.42 773.862 325.597 771.103 326.28 768.45L350.39 758.37C350.39 758.37 353.66 753.31 358.07 751.45C358.08 752.44 358.197 753.426 358.42 754.39V754.39Z" fill="black"/>
<path d="M359.54 743C358.073 746.136 357.68 749.668 358.42 753.05C349.27 782.29 325.42 775.14 325.42 775.14L322.29 762.42C311.8 756.84 314.29 749.48 314.29 749.48C314.29 749.48 317.42 740.32 315.43 735.86C313.44 731.4 306.25 676.04 307.59 671.8C308.93 667.56 307.59 659.75 307.59 659.75L306.32 649.92C306.32 649.92 305.58 636.76 306.25 634.52C306.92 632.28 302.46 620.91 302.46 620.91C302.46 620.91 303.8 615.55 302.46 612.91C301.12 610.27 301.57 598.85 301.57 598.85C301.57 598.85 299.11 589.03 299.78 586.35C300.45 583.67 294.65 565.15 294.65 565.15L291.3 546.4C291.3 546.4 289.96 539.48 287.72 537.47C285.48 535.46 284.38 545.06 285.05 551.09C285.72 557.12 279.66 564.66 279.66 564.66C279.367 568.733 278.698 572.77 277.66 576.72C276.1 582.07 275.21 586.09 275.21 586.09C274.415 589.087 273.889 592.149 273.64 595.24C273.42 599.48 271.19 607.3 271.19 607.3C271.19 607.3 272.75 613.99 270.07 615.77C267.39 617.55 268.21 630.95 268.21 630.95L266.95 643.01C266.95 643.01 268.73 646.36 268.06 648.36C267.39 650.36 262.71 665.36 262.71 665.36L257.31 708.85L255.52 748.59C248.39 753.49 247.52 763.09 247.52 763.09C243.067 765.056 238.253 766.071 233.385 766.071C228.518 766.071 223.703 765.056 219.25 763.09C219.25 763.09 218.05 751.09 215.38 748.59C212.71 746.09 206.45 733.19 209.8 733.19C213.15 733.19 219.62 724.92 219.62 724.92C213.15 712.65 218.5 661.76 220.51 658.41C222.52 655.06 219.62 639.21 219.62 639.21C219.62 639.21 221.4 631.62 220.67 628.5C219.94 625.38 224.75 608.19 228.55 602.83C232.35 597.47 225.28 582.29 225.28 582.29C217.33 564.66 221.63 528.5 223.71 525.82C225.79 523.14 223.71 516.45 223.71 516.45C223.71 516.45 225.65 514.45 224.3 513.55C222.95 512.65 224.3 504.85 224.3 504.85C224.3 504.85 224.07 499.49 226.75 496.85C227.679 495.595 228.212 494.09 228.28 492.53C228.59 489.291 228.59 486.029 228.28 482.79L259.08 464.71L297.69 461.58L345.01 476.31C344.713 479.637 344.713 482.983 345.01 486.31C345.36 489.76 346.23 493.13 348.17 494.6C352.86 498.18 350.4 510.45 350.4 510.45C350.4 510.45 352.63 519.16 351.74 524.07C351.179 527.465 350.881 530.899 350.85 534.34C357.54 558 347.94 573.85 347.94 573.85C347.94 573.85 348.84 622.06 348.39 624.96C347.94 627.86 346.83 634.55 346.83 634.55C351.52 643.93 353.3 666.25 353.3 666.25C353.3 666.25 354.19 706.87 355.09 708.44C356.052 710.618 356.871 712.856 357.54 715.14C357.54 715.14 353.97 723.39 355.54 725.14C357.11 726.89 361.99 737.85 359.54 743Z" fill="#5F5D7E"/>
<path opacity="0.1" d="M294.14 255.75C291.664 260.194 290.174 265.119 289.77 270.19C289.71 270.67 289.67 271.19 289.63 271.63C285.15 275.05 278.24 273.32 272.16 273.32C270.02 273.32 270.53 270.17 268.53 269.7C261.36 267.97 254.02 270.02 250.41 263.81C250.3 263.16 250.2 262.53 250.11 261.94C249.5 258.21 249.05 255.75 249.05 255.75C249.05 255.75 282.34 245.96 292.41 249.3C295.25 250.24 296.25 252.21 294.14 255.75Z" fill="black"/>
<path d="M300.15 249.07C300.15 252.573 299.459 256.043 298.119 259.28C296.778 262.517 294.813 265.458 292.335 267.935C289.858 270.413 286.917 272.378 283.68 273.719C280.443 275.06 276.973 275.75 273.47 275.75C271.368 275.746 269.275 275.502 267.23 275.02C262.357 273.85 257.911 271.332 254.403 267.754C250.894 264.175 248.464 259.682 247.39 254.787C246.316 249.892 246.642 244.793 248.33 240.075C250.018 235.356 253.001 231.209 256.937 228.106C260.872 225.004 265.602 223.072 270.584 222.532C275.567 221.992 280.6 222.866 285.109 225.054C289.618 227.241 293.42 230.653 296.08 234.901C298.74 239.148 300.15 244.058 300.15 249.07V249.07Z" fill="#BE6F72"/>
<path opacity="0.1" d="M286.4 287.72C276.08 284.55 261.89 289.88 253.11 294.08C253.339 290.504 253.265 286.914 252.89 283.35C258.79 278.42 268.1 274.78 281.1 281.35C282.29 281.96 283.51 282.65 284.77 283.42L286.4 287.72Z" fill="black"/>
<path d="M286.4 288.39C272.56 284.13 251.75 295.19 246.4 298.27L245.4 294.87L245.11 293.92C245.11 293.92 256.48 269.53 281.17 282.02C282.36 282.63 283.58 283.32 284.84 284.09L286.4 288.39Z" fill="#6C63FF"/>
<path opacity="0.1" d="M345 486.28C330.19 490.22 305.82 493.17 304.41 493.01C302.41 492.79 284.54 496.81 284.54 496.81C285.21 494.57 279.19 470.47 279.19 470.47L274.94 498.15C274.94 498.15 236.2 494.15 228.26 492.49C228.569 489.251 228.569 485.989 228.26 482.75L259.06 464.67L297.67 461.54L344.99 476.27C344.695 479.6 344.698 482.95 345 486.28V486.28Z" fill="black"/>
<path d="M356.19 479.62C354.66 485.85 306.41 491.85 304.41 491.67C302.41 491.49 284.54 495.47 284.54 495.47C285.21 493.23 279.19 469.13 279.19 469.13L274.94 496.85C274.94 496.85 229.41 492.16 226.94 490.85C224.47 489.54 219.57 487.51 219.57 487.51C219.57 487.51 222.69 470.99 221.57 468.76C220.45 466.53 225.81 460.27 225.81 460.27L228.53 451.61L236.74 425.45C236.261 425.177 235.8 424.873 235.36 424.54C233.342 422.941 231.555 421.069 230.05 418.98C226.51 407.97 218.66 398.15 218.66 398.15C218.66 398.15 211.3 390.34 210.66 388.55C210.02 386.76 201.73 376.5 201.73 376.5L176.96 344.58L190.57 329.85C190.57 329.85 191.91 326.28 194.57 326.06C197.23 325.84 197.7 320.06 197.7 320.06C197.7 307.56 211.09 308.23 211.09 308.23C211.09 308.23 216 308.01 218.67 306C221.34 303.99 245.02 299.74 245.02 299.74V295.95C264.88 269.61 290.02 286.73 290.02 286.73L295.25 295.73C295.25 295.73 311.98 293.28 313.76 295.51C315.54 297.74 322.69 299.74 322.69 299.74C336.98 292.16 341.21 303.99 342.33 308.23C343.45 312.47 350.82 316.93 350.82 316.93C350.82 316.93 343.22 355.1 341.21 357.33C339.2 359.56 342.11 368.05 342.11 368.05C342.11 368.05 335.66 380.97 337.66 386.09C339.66 391.21 334.98 407.75 334.98 407.75L347.48 443.91C347.48 443.91 357.75 473.37 356.19 479.62Z" fill="#464A5F"/>
<path opacity="0.1" d="M295.27 297.04C282.78 277.84 245.04 301.04 245.04 301.04V297.25C264.9 270.91 290.04 288.03 290.04 288.03L295.27 297.04Z" fill="black"/>
<path opacity="0.1" d="M286.4 288.39C272.56 284.13 251.75 295.19 246.4 298.27L245.08 299.04V295.25L245.37 294.87C257.75 278.76 272.11 279.33 281.14 282.02C282.33 282.63 283.55 283.32 284.81 284.09L286.4 288.39Z" fill="black"/>
<path d="M295.27 295.7C282.78 276.51 245.04 299.7 245.04 299.7V295.91C264.9 269.57 290.04 286.69 290.04 286.69L295.27 295.7Z" fill="#464A5F"/>
<path opacity="0.1" d="M285.88 440.11L279.19 469.11L280.47 474.36C280.47 474.36 287.66 444.13 285.88 440.11Z" fill="black"/>
<path opacity="0.1" d="M334.32 391.9C334.32 391.9 330.97 418.9 309.09 426.72C309.09 426.72 327.17 410.43 334.32 391.9Z" fill="black"/>
<path opacity="0.1" d="M243.66 416.01C243.66 416.01 270.22 404.62 270.22 409.31C270.22 414 243.66 416.01 243.66 416.01Z" fill="black"/>
<path opacity="0.1" d="M300.39 393.02C300.39 393.02 318.92 379.85 322.93 383.2C326.94 386.55 300.39 393.02 300.39 393.02Z" fill="black"/>
<path opacity="0.1" d="M438.4 374.57C437.79 374.12 437.16 373.65 436.51 373.15L435.51 353.73V352.61C435.51 352.61 437.21 353.28 439.88 354.36C442.94 358.9 446.14 366.85 438.4 374.57Z" fill="black"/>
<path d="M436.1 376.05L406.41 372.26C404.844 371.733 403.239 371.332 401.61 371.06C400.19 370.86 398.83 370.85 398.15 371.36C396.37 372.7 387.44 371.59 384.76 368.68C383.6 367.784 382.216 367.224 380.76 367.06C375.35 365.99 366.89 366.23 366.89 366.23C366.89 366.23 358.28 366.9 356.33 364.67C354.38 362.44 346.33 360.21 346.33 360.21L337.85 353.95L343.2 315.12L350.8 316.9L359.94 323.82C359.94 323.82 364.41 324.94 365.3 326.28C366.19 327.62 371.55 329.85 371.55 329.85C371.55 329.85 376.01 331.63 378.47 332.53C380.93 333.43 386.06 334.53 386.06 334.53L395.21 336.1C398.906 336.108 402.533 337.109 405.71 339C410.83 342.13 436.06 350.61 436.06 350.61C436.06 350.61 450.66 364 436.1 376.05Z" fill="#464A5F"/>
<path opacity="0.1" d="M405.66 364.7C404.834 366.906 403.457 368.865 401.66 370.39C400.24 370.19 398.88 370.18 398.2 370.69C396.42 372.03 387.49 370.92 384.81 368.02C383.654 367.116 382.269 366.552 380.81 366.39C380.12 361.39 378.3 340.94 395.54 342.27C415.09 343.77 405.66 364.7 405.66 364.7Z" fill="black"/>
<path d="M405.66 365.37C404.834 367.576 403.457 369.535 401.66 371.06C400.24 370.86 398.88 370.85 398.2 371.36C396.42 372.7 387.49 371.59 384.81 368.68C383.651 367.784 382.267 367.223 380.81 367.06C380.12 362.11 378.3 341.61 395.54 342.94C415.09 344.44 405.66 365.37 405.66 365.37Z" fill="#5F5D7E"/>
<path d="M431.49 364.61C432.043 364.61 432.49 363.862 432.49 362.94C432.49 362.017 432.043 361.27 431.49 361.27C430.938 361.27 430.49 362.017 430.49 362.94C430.49 363.862 430.938 364.61 431.49 364.61Z" fill="#6C63FF"/>
<path d="M433.5 365.28C434.052 365.28 434.5 364.533 434.5 363.61C434.5 362.688 434.052 361.94 433.5 361.94C432.948 361.94 432.5 362.688 432.5 363.61C432.5 364.533 432.948 365.28 433.5 365.28Z" fill="#6C63FF"/>
<path d="M435.51 365.91C436.062 365.91 436.51 365.163 436.51 364.24C436.51 363.318 436.062 362.57 435.51 362.57C434.957 362.57 434.51 363.318 434.51 364.24C434.51 365.163 434.957 365.91 435.51 365.91Z" fill="#6C63FF"/>
<path opacity="0.1" d="M361.02 326.7C361.02 326.7 362.69 327.87 359.6 331.47C356.51 335.07 361.02 326.7 361.02 326.7Z" fill="black"/>
<path opacity="0.1" d="M377.01 335.49C377.01 335.49 381.53 351.97 377.68 354.82C373.83 357.67 377.01 335.49 377.01 335.49Z" fill="black"/>
<path d="M247.27 500.26C248.192 500.26 248.94 499.512 248.94 498.59C248.94 497.668 248.192 496.92 247.27 496.92C246.347 496.92 245.6 497.668 245.6 498.59C245.6 499.512 246.347 500.26 247.27 500.26Z" fill="#6C63FF"/>
<path d="M327.01 498.48C327.932 498.48 328.68 497.732 328.68 496.81C328.68 495.887 327.932 495.14 327.01 495.14C326.088 495.14 325.34 495.887 325.34 496.81C325.34 497.732 326.088 498.48 327.01 498.48Z" fill="#6C63FF"/>
<path opacity="0.1" d="M236.55 537.85C236.55 537.85 253.55 553.47 275.84 537.85C275.84 537.85 251.13 542.85 236.55 537.85Z" fill="black"/>
<path opacity="0.1" d="M299.27 542.56C299.27 542.56 328.07 544.35 335.21 537.88C342.35 531.41 299.27 542.56 299.27 542.56Z" fill="black"/>
<path opacity="0.1" d="M230.3 578.72C230.75 579.84 240.35 608.19 253.96 608.41L230.3 578.72Z" fill="black"/>
<path opacity="0.1" d="M346.15 549.93C346.15 549.93 333.87 602.85 320.03 609.75L346.15 549.93Z" fill="black"/>
<path opacity="0.1" d="M214.66 737.65C214.66 737.65 240.55 743 237.43 745.46C234.31 747.92 218.66 747.24 218.66 747.24L214.66 737.65Z" fill="black"/>
<path opacity="0.1" d="M338.56 726.71C338.56 726.71 347.71 737.2 350.83 731.4C353.95 725.6 338.56 726.71 338.56 726.71Z" fill="black"/>
<path opacity="0.1" d="M322.04 749.03C324.04 748.81 332.09 750.15 338.56 749.03C345.03 747.91 323.56 745.47 320.92 749.48C318.28 753.49 322.04 749.03 322.04 749.03Z" fill="black"/>
<path opacity="0.1" d="M297.85 238.23C297.572 238.697 297.236 239.127 296.85 239.51C295.96 240.39 294.85 241 294.01 241.95C292.31 243.9 292.46 246.61 292.39 249.3C292.393 250.382 292.282 251.461 292.06 252.52C291.674 254.081 290.876 255.51 289.751 256.658C288.625 257.807 287.213 258.632 285.66 259.05C284.447 256.662 282.531 254.704 280.17 253.44C279.762 253.17 279.278 253.037 278.79 253.06C278.222 253.212 277.731 253.568 277.41 254.06C275.279 256.674 273.949 259.848 273.58 263.2C273.395 264.831 273.435 266.48 273.7 268.1C273.9 269.22 275.2 271.65 274.7 272.69C273.92 274.25 270.03 274.69 267.22 275.03C266.22 275.14 265.41 275.24 264.88 275.36C260.926 276.24 257.013 277.273 253.14 278.46L252.42 278.66C251.76 272.66 250.82 266.39 250.1 261.95C248.349 258.797 247.255 255.321 246.885 251.733C246.515 248.145 246.876 244.52 247.947 241.075C249.018 237.631 250.776 234.44 253.115 231.694C255.455 228.948 258.326 226.706 261.557 225.101C264.787 223.497 268.309 222.564 271.91 222.359C275.512 222.155 279.117 222.682 282.508 223.911C285.9 225.139 289.007 227.042 291.642 229.505C294.277 231.967 296.386 234.939 297.84 238.24L297.85 238.23Z" fill="black"/>
<path d="M276.78 253.38C277.099 252.886 277.591 252.53 278.16 252.38C278.647 252.354 279.131 252.483 279.54 252.75C281.899 254.02 283.817 255.976 285.04 258.36C286.587 257.938 287.993 257.11 289.113 255.962C290.233 254.814 291.026 253.387 291.41 251.83C292.24 248.28 290.97 244.02 293.36 241.25C294.17 240.31 295.31 239.7 296.2 238.82C297.411 237.516 298.163 235.851 298.34 234.08C298.569 232.151 298.313 230.195 297.593 228.391C296.873 226.587 295.714 224.991 294.22 223.75C292.56 222.39 290.49 221.47 289.22 219.75C287.42 217.19 287.9 213.56 286.22 210.93C284.09 207.62 279.35 207.15 275.53 208.13C271.71 209.11 268.19 211.13 264.29 211.68C261.19 212.1 258.06 211.52 254.94 211.32C251.82 211.12 248.48 211.32 245.94 213.14C242.78 215.36 241.5 219.44 238.74 222.14C235.98 224.84 231.56 226.14 229.14 229.3C228.271 230.477 227.708 231.853 227.504 233.302C227.3 234.751 227.46 236.228 227.97 237.6C228.97 240.15 231.13 242.21 231.62 244.9C232.22 248.09 230.33 251.69 231.96 254.5C234.16 254.24 236.15 256.14 236.79 258.26C237.43 260.38 237.08 262.66 236.79 264.85C236.5 267.04 236.19 269.35 236.97 271.42C237.118 271.871 237.383 272.275 237.74 272.59C238.319 272.932 238.977 273.118 239.65 273.13C241.656 273.43 243.495 274.42 244.85 275.93C245.372 276.641 245.98 277.286 246.66 277.85C248.33 278.99 250.58 278.41 252.52 277.85C256.393 276.67 260.306 275.636 264.26 274.75C266.33 274.28 273.04 274.17 274.09 272.08C274.61 271.08 273.31 268.61 273.09 267.49C272.683 265.027 272.802 262.506 273.44 260.093C274.077 257.68 275.219 255.43 276.79 253.49L276.78 253.38Z" fill="#464A5F"/>
<path opacity="0.1" d="M232.45 450.91C231.66 451.75 230.25 451.91 228.56 451.54L236.77 425.38C236.29 425.108 235.829 424.804 235.39 424.47C239.02 424.08 242.2 423.91 243.17 424.38C245.76 425.64 235.55 447.65 232.45 450.91Z" fill="black"/>
<path d="M231.79 450.24C228.66 453.51 216.3 445.97 214.66 442.85C213.77 441.2 211.83 440.41 210.21 440.03C209.363 439.831 208.499 439.714 207.63 439.68L216.34 425.36L219.14 425.6L221.19 425.78C221.19 425.78 239.94 422.43 242.54 423.69C245.14 424.95 234.88 446.98 231.79 450.24Z" fill="#BE6F72"/>
<path opacity="0.1" d="M219.1 425.62L210.17 440.05C209.323 439.851 208.459 439.734 207.59 439.7L216.3 425.38L219.1 425.62Z" fill="black"/>
<path d="M218.89 424.88L205.16 447.06L201.71 444.77L199.72 443.46L211.94 421.62L216.52 423.76L218.89 424.88Z" fill="#6C63FF"/>
<path opacity="0.1" d="M216.52 423.76L201.71 444.77L199.72 443.46L211.94 421.62L216.52 423.76Z" fill="black"/>
<path d="M216.91 422.25L200.39 445.69L171.6 429.4L148.6 412.09L147.78 411.75C121.42 400.49 145.47 373.6 145.47 373.6C145.547 373.174 145.725 372.773 145.99 372.43C148.25 368.97 157.08 360.65 157.08 360.65L176.95 344.58L184.95 342.13L203.48 374.94L192.1 382.65C192.1 382.65 188.3 385.43 186.1 385.43C183.9 385.43 176.16 394.8 176.16 394.8L182.75 400.61C182.75 400.61 188.55 401.28 189.89 404.17C190.628 405.85 191.882 407.25 193.47 408.17L216.91 422.25Z" fill="#464A5F"/>
<path opacity="0.1" d="M162.89 384.31C162.89 384.31 180.08 381.44 180.97 382.65C181.86 383.86 162.89 384.31 162.89 384.31Z" fill="black"/>
<path opacity="0.1" d="M162.89 393.02C165.222 393.636 167.627 393.935 170.04 393.91C174.28 393.91 162.89 393.02 162.89 393.02Z" fill="black"/>
<path opacity="0.1" d="M148.46 411.75C122.1 400.49 146.15 373.6 146.15 373.6C146.227 373.174 146.406 372.773 146.67 372.43C151.54 371.62 158.94 373.56 160.05 392.32C160.71 403.54 155.27 409.11 148.46 411.75Z" fill="black"/>
<path d="M147.79 411.75C121.43 400.49 145.48 373.6 145.48 373.6C145.557 373.174 145.736 372.773 146 372.43C150.87 371.62 158.27 373.56 159.38 392.32C160.04 403.54 154.6 409.11 147.79 411.75Z" fill="#5F5D7E"/>
<g opacity="0.1">
<path opacity="0.1" d="M231.47 253.31C231.577 253.722 231.738 254.119 231.95 254.49C232.465 254.431 232.987 254.486 233.48 254.65C232.933 254.042 232.241 253.581 231.47 253.31V253.31Z" fill="black"/>
<path opacity="0.1" d="M237.6 271.78L237.06 271.71C237.198 272.048 237.418 272.347 237.7 272.58C238.279 272.922 238.937 273.108 239.61 273.12C240.482 273.252 241.329 273.519 242.12 273.91C240.852 272.776 239.281 272.036 237.6 271.78V271.78Z" fill="black"/>
<path opacity="0.1" d="M294.22 223.77C292.56 222.41 290.49 221.49 289.22 219.77C287.42 217.21 287.9 213.58 286.22 210.95C285.515 209.88 284.51 209.041 283.33 208.54C283.663 208.862 283.958 209.221 284.21 209.61C285.91 212.24 285.43 215.87 287.21 218.43C288.45 220.18 290.52 221.1 292.21 222.43C293.704 223.671 294.864 225.267 295.584 227.071C296.303 228.875 296.56 230.831 296.33 232.76C296.154 234.531 295.402 236.196 294.19 237.5C293.3 238.38 292.19 238.99 291.35 239.93C288.97 242.7 290.23 246.93 289.4 250.51C289.059 251.896 288.394 253.181 287.458 254.259C286.523 255.337 285.344 256.177 284.02 256.71C284.393 257.242 284.727 257.8 285.02 258.38C286.567 257.958 287.974 257.13 289.094 255.982C290.214 254.834 291.006 253.407 291.39 251.85C292.22 248.3 290.95 244.04 293.34 241.27C294.15 240.33 295.29 239.72 296.18 238.84C297.392 237.536 298.144 235.871 298.32 234.1C298.552 232.173 298.299 230.218 297.583 228.414C296.867 226.61 295.711 225.013 294.22 223.77V223.77Z" fill="black"/>
<path opacity="0.1" d="M277.529 251.43C277.12 251.163 276.637 251.034 276.149 251.06C275.581 251.21 275.089 251.566 274.769 252.06C273.199 254 272.057 256.25 271.419 258.664C270.782 261.077 270.662 263.597 271.069 266.06C271.259 267.19 272.559 269.62 272.069 270.65C271.019 272.74 264.309 272.85 262.239 273.32C258.286 274.2 254.373 275.233 250.499 276.42C248.986 277.021 247.338 277.204 245.729 276.95C245.999 277.268 246.308 277.55 246.649 277.79C248.319 278.93 250.569 278.35 252.509 277.79C256.383 276.61 260.296 275.577 264.249 274.69C266.319 274.22 273.029 274.11 274.079 272.02C274.599 271.02 273.299 268.55 273.079 267.43C272.672 264.967 272.792 262.447 273.43 260.034C274.067 257.62 275.209 255.37 276.779 253.43C277.099 252.936 277.591 252.58 278.159 252.43C278.643 252.399 279.123 252.526 279.529 252.79C278.905 252.277 278.236 251.822 277.529 251.43V251.43Z" fill="black"/>
</g>
<path opacity="0.1" d="M86.5997 754.9C105.057 754.9 120.02 752.37 120.02 749.25C120.02 746.129 105.057 743.6 86.5997 743.6C68.1423 743.6 53.1797 746.129 53.1797 749.25C53.1797 752.37 68.1423 754.9 86.5997 754.9Z" fill="#6C63FF"/>
<path d="M93.4996 677.9C93.4996 677.9 99.6396 685.9 90.6696 698.04C81.6996 710.18 74.2996 720.39 77.2896 727.94C77.2896 727.94 90.8296 705.44 101.84 705.12C112.85 704.8 105.66 691.43 93.4996 677.9Z" fill="#6C63FF"/>
<path opacity="0.1" d="M93.4997 677.9C94.0365 678.677 94.4608 679.525 94.7597 680.42C105.5 693.05 111.23 704.83 100.9 705.12C91.2697 705.4 79.7297 722.6 76.9697 726.95C77.0597 727.28 77.1697 727.61 77.2897 727.95C77.2897 727.95 90.8297 705.45 101.84 705.13C112.85 704.81 105.66 691.43 93.4997 677.9Z" fill="black"/>
<path d="M104.91 688.13C104.91 690.95 104.59 693.24 104.2 693.24C103.81 693.24 103.49 690.95 103.49 688.13C103.49 685.31 103.89 686.63 104.28 686.63C104.67 686.63 104.91 685.31 104.91 688.13Z" fill="#FFD037"/>
<path d="M108.82 691.5C106.34 692.85 104.18 693.67 103.99 693.33C103.8 692.99 105.67 691.61 108.15 690.26C110.63 688.91 109.65 689.89 109.84 690.26C110.03 690.63 111.3 690.15 108.82 691.5Z" fill="#FFD037"/>
<path d="M61.0898 677.9C61.0898 677.9 54.9498 685.9 63.9198 698.04C72.8898 710.18 80.2799 720.39 77.2899 727.94C77.2899 727.94 63.7598 705.44 52.7498 705.12C41.7398 704.8 48.9698 691.43 61.0898 677.9Z" fill="#6C63FF"/>
<path opacity="0.1" d="M61.0901 677.9C60.5533 678.677 60.1291 679.525 59.8301 680.42C49.0901 693.05 43.3601 704.85 53.6601 705.12C63.2801 705.4 74.8301 722.6 77.5901 726.95C77.4985 727.29 77.3884 727.623 77.2601 727.95C77.2601 727.95 63.7301 705.45 52.7201 705.13C41.7101 704.81 48.9701 691.43 61.0901 677.9Z" fill="black"/>
<path d="M49.6602 688.13C49.6602 690.95 49.9802 693.24 50.3702 693.24C50.7602 693.24 51.0802 690.95 51.0802 688.13C51.0802 685.31 50.6802 686.63 50.2902 686.63C49.9002 686.63 49.6602 685.31 49.6602 688.13Z" fill="#FFD037"/>
<path d="M45.7702 691.5C48.2502 692.85 50.4102 693.67 50.5902 693.33C50.7702 692.99 48.9202 691.61 46.4402 690.26C43.9602 688.91 44.9402 689.89 44.7502 690.26C44.5602 690.63 43.2902 690.15 45.7702 691.5Z" fill="#FFD037"/>
<path d="M51.6602 726.85C51.6602 726.85 68.8202 726.32 73.9902 722.64C79.1602 718.96 100.38 714.56 101.67 720.47C102.96 726.38 127.45 749.83 108.08 749.99C88.7102 750.15 63.0802 746.99 57.9102 743.83C52.7402 740.67 51.6602 726.85 51.6602 726.85Z" fill="#5F5D7E"/>
<path opacity="0.2" d="M108.4 747.98C89.0304 748.13 63.4004 744.98 58.2304 741.81C54.3004 739.42 52.7304 730.81 52.2304 726.87H51.6504C51.6504 726.87 52.7404 740.71 57.9004 743.87C63.0604 747.03 88.7004 750.19 108.07 750.03C113.66 750.03 115.59 748.03 115.49 745.03C114.66 746.85 112.56 747.94 108.4 747.98Z" fill="black"/>
<path opacity="0.1" d="M705.219 778.85C724.66 778.85 740.419 776.186 740.419 772.9C740.419 769.614 724.66 766.95 705.219 766.95C685.779 766.95 670.02 769.614 670.02 772.9C670.02 776.186 685.779 778.85 705.219 778.85Z" fill="#6C63FF"/>
<path d="M681.59 745.26C681.59 745.26 701.66 744.64 707.71 740.33C713.76 736.02 738.6 730.88 740.1 737.79C741.6 744.7 770.27 772.16 747.6 772.34C724.93 772.52 694.94 768.81 688.9 765.13C682.86 761.45 681.59 745.26 681.59 745.26Z" fill="#5F5D7E"/>
<path opacity="0.2" d="M748.01 769.93C725.34 770.12 695.34 766.4 689.3 762.72C684.7 759.92 682.87 749.87 682.3 745.23H681.63C681.63 745.23 682.9 761.42 688.94 765.1C694.98 768.78 724.94 772.49 747.64 772.31C754.19 772.31 756.45 769.93 756.32 766.48C755.37 768.59 752.88 769.85 748.01 769.93Z" fill="black"/>
<path d="M834.62 801.69C855.795 801.69 872.96 798.789 872.96 795.211C872.96 791.632 855.795 788.73 834.62 788.73C813.446 788.73 796.28 791.632 796.28 795.211C796.28 798.789 813.446 801.69 834.62 801.69Z" fill="#6C63FF"/>
<path d="M850.47 784.61C852.217 783.18 853.493 781.256 854.13 779.09C854.6 776.9 853.67 774.28 851.57 773.47C849.23 772.58 846.72 774.2 844.82 775.85C842.92 777.5 840.74 779.36 838.25 779.01C839.528 777.85 840.484 776.38 841.026 774.742C841.567 773.103 841.676 771.353 841.34 769.66C841.234 768.959 840.936 768.302 840.48 767.76C839.18 766.37 836.82 766.96 835.26 768.06C830.26 771.55 828.92 778.28 828.89 784.35C828.39 782.16 828.81 779.88 828.8 777.64C828.79 775.4 828.17 772.91 826.28 771.7C825.101 771.069 823.777 770.759 822.44 770.8C820.21 770.72 817.73 770.94 816.2 772.57C814.31 774.57 814.8 778 816.45 780.23C818.1 782.46 820.6 783.85 822.9 785.39C824.747 786.493 826.322 787.997 827.51 789.79C827.652 790.04 827.766 790.305 827.85 790.58H841.85C844.981 788.99 847.881 786.982 850.47 784.61Z" fill="#6C63FF"/>
</g>
<defs>
<linearGradient id="paint0_linear" x1="301.95" y1="785.33" x2="301.95" y2="203.74" gradientUnits="userSpaceOnUse">
<stop stop-color="#808080" stop-opacity="0.25"/>
<stop offset="0.54" stop-color="#808080" stop-opacity="0.12"/>
<stop offset="1" stop-color="#808080" stop-opacity="0.1"/>
</linearGradient>
<clipPath id="clip0">
<rect width="907.32" height="801.69" fill="white"/>
</clipPath>
</defs>
</svg>
