<svg width="777" height="408" viewBox="0 0 777 408" fill="none" xmlns="http://www.w3.org/2000/svg">
<g clip-path="url(#clip0)">
<path d="M423.64 46.2588H244.04C240.395 46.2635 236.9 47.7137 234.323 50.2913C231.745 52.8689 230.295 56.3635 230.29 60.0088V149.999H257.93C259.952 149.993 261.941 150.504 263.71 151.482C265.48 152.46 266.97 153.874 268.04 155.589L277.62 170.839L286.78 185.409L288.5 188.149L298.98 204.819L299.1 205.009H437.39V60.0087C437.385 56.3635 435.935 52.8689 433.358 50.2913C430.78 47.7137 427.285 46.2635 423.64 46.2588V46.2588Z" fill="#CCCCCC"/>
<path d="M352.45 73.7686H263.459C261.1 73.7686 258.838 74.7057 257.17 76.3738C255.502 78.042 254.564 80.3044 254.564 82.6635C254.564 85.0226 255.502 87.2851 257.17 88.9533C258.838 90.6214 261.1 91.5586 263.459 91.5586H352.45C354.809 91.5586 357.071 90.6214 358.739 88.9533C360.408 87.2851 361.345 85.0226 361.345 82.6635C361.345 80.3044 360.408 78.042 358.739 76.3738C357.071 74.7057 354.809 73.7686 352.45 73.7686Z" fill="white"/>
<path d="M401.799 117.448H264.27C261.694 117.448 259.225 118.471 257.404 120.292C255.583 122.113 254.56 124.583 254.56 127.158C254.56 129.733 255.583 132.203 257.404 134.024C259.225 135.845 261.694 136.868 264.27 136.868H401.799C404.375 136.868 406.844 135.845 408.665 134.024C410.486 132.203 411.509 129.733 411.509 127.158C411.509 124.583 410.486 122.113 408.665 120.292C406.844 118.471 404.375 117.448 401.799 117.448V117.448Z" fill="white"/>
<path d="M410.581 157.019C409.799 155.349 408.558 153.937 407.003 152.947C405.448 151.957 403.644 151.43 401.8 151.429H264.271C264.061 151.429 263.86 151.439 263.65 151.449C265.445 152.429 266.957 153.855 268.041 155.589L277.621 170.839H401.8C403.433 170.839 405.04 170.427 406.471 169.641C407.903 168.855 409.112 167.72 409.988 166.342C410.864 164.963 411.377 163.386 411.481 161.756C411.585 160.126 411.275 158.497 410.581 157.019V157.019Z" fill="white"/>
<path d="M411.41 193.808C411.094 191.483 409.946 189.351 408.179 187.807C406.413 186.263 404.146 185.411 401.8 185.408H286.78L288.5 188.148L298.98 204.818H401.8C403.82 204.822 405.791 204.189 407.43 203.008C408.689 202.111 409.715 200.926 410.423 199.552C411.131 198.178 411.5 196.654 411.5 195.108C411.501 194.673 411.471 194.239 411.41 193.808V193.808Z" fill="white"/>
<path d="M521.19 123.758L507.19 118.288L437.39 91.0485L353.88 58.4585C350.481 57.1393 346.697 57.2217 343.359 58.6876C340.02 60.1535 337.399 62.8832 336.07 66.2785L333.15 73.7685L326.2 91.5585L316.1 117.448L308.52 136.868L302.84 151.428L295.26 170.838L289.57 185.408L289.41 185.828L288.5 188.148L298.98 204.818L299.1 205.008H493.21C494.992 205.007 496.751 205.405 498.359 206.173C499.967 206.942 501.382 208.061 502.5 209.448L503.32 207.368L513.34 181.708L529 141.578C530.322 138.179 530.242 134.395 528.778 131.054C527.314 127.714 524.585 125.09 521.19 123.758V123.758Z" fill="#6C63FF"/>
<path d="M444.871 123.499L437.391 120.579L361.971 91.1488C359.771 90.2977 357.325 90.351 355.165 91.2971C353.004 92.2432 351.306 94.0052 350.44 96.1988C349.588 98.3992 349.642 100.848 350.59 103.008C351.538 105.169 353.304 106.866 355.5 107.729L380.411 117.449L411.221 129.469L437.391 139.689L438.4 140.079C440.598 140.932 443.044 140.878 445.202 139.93C447.361 138.981 449.054 137.214 449.911 135.018C450.768 132.822 450.719 130.376 449.774 128.216C448.829 126.056 447.065 124.36 444.871 123.499V123.499Z" fill="white"/>
<path d="M474.951 182.139L437.391 167.479L410.581 157.019L396.26 151.429L358.96 136.869L346.84 132.139C344.579 131.256 342.07 131.252 339.806 132.127C337.543 133.003 335.689 134.694 334.61 136.869C334.491 137.119 334.371 137.379 334.271 137.649C333.807 138.836 333.582 140.103 333.607 141.377C333.633 142.651 333.91 143.908 334.422 145.075C334.934 146.242 335.67 147.297 336.59 148.18C337.509 149.062 338.594 149.755 339.781 150.219L342.88 151.429L392.601 170.839L437.391 188.319L467.891 200.229C469.012 200.667 470.206 200.891 471.411 200.889C473.675 200.893 475.87 200.105 477.615 198.661C479.36 197.217 480.545 195.209 480.965 192.983C481.385 190.758 481.014 188.456 479.916 186.475C478.817 184.495 477.061 182.961 474.951 182.139H474.951Z" fill="white"/>
<path d="M437.39 203.948L434.98 203.008L411.41 193.808L389.88 185.408L352.54 170.838L334.48 163.788C333.292 163.323 332.023 163.097 330.748 163.123C329.472 163.149 328.214 163.426 327.046 163.938C325.877 164.45 324.821 165.188 323.938 166.108C323.054 167.029 322.361 168.115 321.898 169.304C321.435 170.493 321.21 171.761 321.238 173.037C321.265 174.312 321.543 175.57 322.057 176.738C322.571 177.906 323.31 178.961 324.232 179.843C325.154 180.725 326.241 181.417 327.43 181.878L336.47 185.408L381.57 203.008L386.21 204.818L386.69 205.008H440.1L437.39 203.948Z" fill="white"/>
<path d="M346.16 204.818L341.52 203.008L322.13 195.438C320.776 194.908 319.319 194.689 317.868 194.798C316.417 194.907 315.01 195.341 313.75 196.068C312.49 196.795 311.409 197.796 310.589 198.998C309.768 200.199 309.229 201.57 309.01 203.008C308.914 203.606 308.877 204.213 308.9 204.818C308.898 204.882 308.902 204.945 308.91 205.008H346.65L346.16 204.818Z" fill="white"/>
<path d="M386.21 204.818L381.57 203.008H309.01C308.914 203.606 308.877 204.213 308.9 204.818H298.98L299.1 205.008H386.69L386.21 204.818ZM386.21 204.818H298.98L299.1 205.008H386.69L386.21 204.818ZM386.21 204.818H298.98L299.1 205.008H386.69L386.21 204.818ZM386.69 205.008L386.21 204.818H298.98L299.1 205.008H386.69ZM211.68 405.258C208.515 405.253 205.481 403.994 203.243 401.756C201.005 399.517 199.745 396.483 199.74 393.318V161.948C199.743 158.781 201.001 155.745 203.24 153.505C205.478 151.265 208.513 150.003 211.68 149.998H230.29V147.998H211.68C207.983 148.005 204.44 149.477 201.827 152.092C199.214 154.707 197.745 158.251 197.74 161.948V393.318C197.743 395.992 198.515 398.609 199.964 400.857C201.412 403.106 203.476 404.89 205.91 405.998H382.09C381.93 405.758 381.77 405.508 381.61 405.258H211.68ZM503.32 207.368C502.021 205.99 500.454 204.892 498.716 204.143C496.977 203.393 495.103 203.007 493.21 203.008H300.21L289.41 185.828L289.15 185.408L279.99 170.838L269.73 154.518C268.473 152.524 266.731 150.881 264.668 149.741C262.605 148.601 260.287 148.002 257.93 147.998H211.68C207.983 148.005 204.44 149.477 201.827 152.092C199.214 154.707 197.745 158.251 197.74 161.948V393.318C197.743 395.992 198.515 398.609 199.964 400.858C201.412 403.106 203.476 404.89 205.91 405.998C207.72 406.831 209.688 407.261 211.68 407.258H493.21C495.205 407.261 497.177 406.831 498.99 405.998C501.424 404.89 503.488 403.105 504.937 400.857C506.385 398.609 507.157 395.992 507.16 393.318V216.958C507.163 213.386 505.787 209.951 503.32 207.368V207.368ZM505.16 393.318C505.155 396.485 503.894 399.52 501.653 401.758C499.413 403.997 496.377 405.255 493.21 405.258H211.68C208.515 405.253 205.481 403.994 203.243 401.756C201.005 399.517 199.745 396.483 199.74 393.318V161.948C199.743 158.781 201.001 155.745 203.24 153.505C205.478 151.265 208.513 150.003 211.68 149.998H257.93C259.952 149.993 261.941 150.503 263.71 151.481C265.48 152.459 266.97 153.873 268.04 155.588L277.62 170.838L286.78 185.408L288.5 188.148L298.98 204.818L299.1 205.008H493.21C496.378 205.011 499.416 206.271 501.657 208.511C503.897 210.752 505.157 213.789 505.16 216.958V393.318ZM386.21 204.818H298.98L299.1 205.008H386.69L386.21 204.818ZM386.21 204.818H298.98L299.1 205.008H386.69L386.21 204.818ZM386.21 204.818H298.98L299.1 205.008H386.69L386.21 204.818ZM386.21 204.818L381.57 203.008H300.21L289.41 185.828L288.5 188.148L298.98 204.818L299.1 205.008H386.69L386.21 204.818Z" fill="#3F3D56"/>
<path d="M156.928 287.77L151.2 299.746L102.283 283.352L110.736 265.677L156.928 287.77Z" fill="#FFB8B8"/>
<path d="M143.155 307.775L154.733 283.568L169.275 290.523L151.273 328.16L150.161 327.628C146.599 325.925 143.86 322.876 142.546 319.153C141.232 315.43 141.451 311.337 143.155 307.775V307.775Z" fill="#2F2E41"/>
<path d="M168.459 394.715L155.192 394.267L154.633 342.623L170.186 343.541L168.459 394.715Z" fill="#FFB8B8"/>
<path d="M144.611 390.115L171.43 391.021L170.886 407.131L129.189 405.724L129.23 404.492C129.363 400.546 131.059 396.814 133.943 394.118C136.828 391.422 140.665 389.982 144.611 390.115Z" fill="#2F2E41"/>
<path d="M189.824 178.579C189.824 178.579 149.219 168.292 130.812 183.452L120.525 213.229L79.3789 271.7L138.933 307.432L149.761 280.362L123.774 267.369L155.175 240.298L149.761 383.228L170.334 386.476C170.334 386.476 215.812 209.98 189.824 178.579Z" fill="#2F2E41"/>
<path d="M128.221 187.856L128.716 186.976C133.933 177.701 133.087 162.598 131.46 151.562C130.096 142.318 130.137 126.027 130.412 113.988C130.479 109.925 131.929 106.005 134.521 102.875C137.113 99.7453 140.693 97.5911 144.673 96.7671C157.026 94.1965 172.19 93.652 180.131 93.5557L180.137 94.0971L180.131 93.5557C182.288 93.5471 184.363 94.3844 185.91 95.888C187.457 97.3916 188.353 99.4417 188.406 101.598C188.648 114.562 188.573 138.203 185.355 150.887C180.581 169.712 188.047 182.505 188.123 182.632L188.574 183.385L128.221 187.856Z" fill="#6C63FF"/>
<path d="M107.334 239.774C108.656 239.141 109.823 238.226 110.753 237.093C111.682 235.96 112.353 234.637 112.716 233.217C113.079 231.797 113.127 230.315 112.855 228.875C112.584 227.435 112 226.072 111.145 224.882L134.06 126.063H116.735L96.5111 222.934C94.6071 224.503 93.345 226.717 92.9638 229.155C92.5826 231.592 93.1089 234.085 94.443 236.161C95.777 238.237 97.8262 239.751 100.202 240.417C102.578 241.083 105.116 240.854 107.334 239.774Z" fill="#FFB8B8"/>
<path d="M246.671 142.502L208.429 106.326L198.093 120.796L223.932 143.535L190.045 170.445C189.801 170.429 189.557 170.408 189.308 170.408C187.222 170.406 185.181 171.005 183.427 172.133C181.673 173.261 180.281 174.87 179.418 176.768C178.555 178.667 178.257 180.773 178.559 182.837C178.862 184.9 179.753 186.832 181.125 188.402C182.497 189.972 184.293 191.114 186.297 191.691C188.301 192.267 190.429 192.254 192.425 191.653C194.422 191.052 196.203 189.888 197.556 188.301C198.909 186.714 199.776 184.771 200.053 182.704L200.16 182.811L246.671 142.502Z" fill="#FFB8B8"/>
<path d="M142.24 98.0376C142.24 98.0376 118.359 94.1206 116.194 112.528C114.028 130.936 112.945 130.936 112.945 130.936C112.945 130.936 130.27 127.687 134.601 132.019C138.933 136.35 142.24 98.0376 142.24 98.0376Z" fill="#6C63FF"/>
<path d="M177.914 95.2031C177.914 95.2031 197.404 91.9547 206.067 100.617C214.729 109.279 219.06 111.445 219.06 111.445C219.06 111.445 199.57 122.273 207.15 132.018C207.15 132.018 186.576 122.273 183.328 125.521C180.08 128.77 177.914 95.2031 177.914 95.2031Z" fill="#6C63FF"/>
<path d="M160.819 32.3383C154.671 27.4283 153.056 17.9521 156.623 10.9391C160.19 3.9261 168.254 -0.299011 176.116 0.0165189C183.978 0.332049 191.386 4.84561 195.94 11.2613C202.338 20.2737 203.681 32.7997 212.188 39.8553C219.872 46.2281 230.88 46.0455 240.85 45.5386C244.21 45.3677 247.68 45.1696 250.695 43.6764C253.711 42.1832 256.175 39.034 255.786 35.6915C258.291 39.6564 256.838 45.2155 253.477 48.4869C250.117 51.7584 245.332 53.1289 240.674 53.6746C232.457 54.5384 224.156 53.2467 216.59 49.9268C209.023 46.607 202.452 41.3735 197.523 34.7417C194.054 29.9563 191.377 24.3838 186.617 20.8802C181.857 17.3765 173.92 17.1326 170.998 22.2702C169.553 24.8112 169.695 27.9984 168.366 30.6021C167.037 33.2057 162.721 34.6096 161.441 31.9814" fill="#2F2E41"/>
<path d="M159.879 84.5557C176.447 84.5557 189.879 71.1242 189.879 54.5557C189.879 37.9871 176.447 24.5557 159.879 24.5557C143.31 24.5557 129.879 37.9871 129.879 54.5557C129.879 71.1242 143.31 84.5557 159.879 84.5557Z" fill="#2F2E41"/>
<path d="M159.698 86.9043C173.262 86.9043 184.259 75.9079 184.259 62.3433C184.259 48.7786 173.262 37.7822 159.698 37.7822C146.133 37.7822 135.137 48.7786 135.137 62.3433C135.137 75.9079 146.133 86.9043 159.698 86.9043Z" fill="#FFB8B8"/>
<path d="M137.303 44.3045C140.641 45.0346 139.548 50.6341 142.186 52.8061C144.565 54.7654 147.992 52.7505 150.987 52.0211C154.768 51.1001 158.725 52.4492 162.215 54.169C165.706 55.8889 169.072 58.0233 172.88 58.8245C176.688 59.6257 181.202 58.7227 183.337 55.4691C185.378 52.3582 184.627 48.163 183.03 44.8023C181.045 40.6239 177.929 37.0849 174.035 34.5864C170.142 32.0878 165.626 30.7296 161.001 30.6655C156.375 30.6014 151.824 31.834 147.862 34.2237C143.901 36.6133 140.688 40.0646 138.588 44.1865" fill="#2F2E41"/>
</g>
<defs>
<clipPath id="clip0">
<rect width="777.001" height="407.998" fill="white"/>
</clipPath>
</defs>
</svg>
