<svg width="766" height="648" viewBox="0 0 766 648" fill="none" xmlns="http://www.w3.org/2000/svg">
<g clip-path="url(#clip0)">
<path d="M614.857 169.663L601.817 118.383L583.477 46.2834L582.437 42.2134V42.2034L575.187 13.6933C573.994 9.02588 570.998 5.02224 566.857 2.56075C562.716 0.099252 557.767 -0.619082 553.097 0.56335L504.917 12.8134L203.877 89.3833C199.209 90.5764 195.206 93.5722 192.744 97.7134C190.283 101.855 189.565 106.803 190.747 111.473L201.137 152.333L227.537 256.123L237.467 295.173L237.977 297.173H240.177L239.667 295.173L230.177 257.833V257.823L202.637 149.563L192.817 110.953C191.774 106.831 192.408 102.463 194.581 98.8073C196.753 95.1517 200.287 92.5071 204.407 91.4534L504.817 15.0434L553.617 2.63341C557.74 1.59014 562.108 2.22441 565.763 4.39711C569.419 6.56981 572.063 10.1036 573.117 14.2234L580.817 44.4834L581.857 48.5934L599.677 118.663L612.647 169.663L613.187 171.803H615.407L614.857 169.663Z" fill="#CCCCCC"/>
<path d="M290.88 240.886C319.354 240.886 342.437 217.803 342.437 189.329C342.437 160.855 319.354 137.771 290.88 137.771C262.405 137.771 239.322 160.855 239.322 189.329C239.322 217.803 262.405 240.886 290.88 240.886Z" fill="#F2F2F2"/>
<path d="M407.837 169.663L410.307 171.803H371.047C366.794 171.807 362.717 173.499 359.71 176.506C356.703 179.513 355.012 183.59 355.007 187.843V310.203L354.437 339.173L329.347 316.733L326.997 317.333L308.397 300.923C305.659 298.504 302.131 297.17 298.477 297.173H249.537L250.287 295.173L260.067 269.043L315.517 120.793L321.217 105.563C321.568 104.627 322.139 103.789 322.884 103.122C323.628 102.454 324.522 101.977 325.491 101.731C326.46 101.484 327.474 101.475 328.447 101.706C329.419 101.936 330.322 102.398 331.077 103.053L368.387 135.423L390.347 154.483L407.837 169.663Z" fill="#E6E6E6"/>
<path d="M571.077 169.663L573.557 171.803H453.417L454.227 169.663L479.817 102.113C480.168 101.18 480.739 100.346 481.482 99.681C482.225 99.016 483.117 98.5401 484.083 98.2937C485.049 98.0473 486.06 98.0377 487.03 98.2657C488.001 98.4937 488.902 98.9526 489.657 99.6033L540.527 143.383L543.457 145.893L571.077 169.663Z" fill="#E6E6E6"/>
<path d="M617.649 190.652C612.963 190.649 608.34 191.733 604.144 193.819C599.949 195.906 596.294 198.937 593.469 202.676C590.436 201.371 587.127 200.839 583.839 201.129C580.55 201.419 577.384 202.52 574.627 204.335C571.869 206.151 569.605 208.622 568.039 211.528C566.472 214.434 565.651 217.683 565.65 220.985H647.982C647.982 217.002 647.197 213.057 645.673 209.377C644.148 205.697 641.914 202.353 639.097 199.537C636.281 196.72 632.937 194.486 629.257 192.961C625.577 191.437 621.632 190.652 617.649 190.652V190.652Z" fill="#E6E6E6"/>
<path d="M731.377 169.663H371.047C366.993 169.67 363.056 171.029 359.862 173.525C356.667 176.021 354.395 179.511 353.407 183.443V183.453C353.049 184.889 352.867 186.363 352.867 187.843V340.143L354.037 341.173L355.007 342.033V187.843C355.012 183.59 356.703 179.513 359.71 176.506C362.717 173.499 366.794 171.808 371.047 171.803H731.377C735.63 171.806 739.708 173.497 742.716 176.504C745.723 179.512 747.414 183.59 747.417 187.843V373.173H748.437C748.811 373.17 749.185 373.186 749.557 373.223V187.843C749.55 183.024 747.632 178.403 744.224 174.996C740.817 171.588 736.196 169.67 731.377 169.663V169.663Z" fill="#3F3D56"/>
<path d="M437.284 309.382C464.262 309.382 486.131 287.513 486.131 260.535C486.131 233.558 464.262 211.688 437.284 211.688C410.307 211.688 388.438 233.558 388.438 260.535C388.438 287.513 410.307 309.382 437.284 309.382Z" fill="#6C63FF"/>
<path d="M731.777 373.173H396.748C392.607 373.161 388.612 371.651 385.498 368.923L377.978 362.293L379.128 360.633L381.208 357.633L471.507 227.623L480.777 214.273C481.348 213.451 482.109 212.78 482.995 212.316C483.882 211.853 484.867 211.61 485.867 211.61C486.868 211.61 487.853 211.853 488.74 212.316C489.626 212.78 490.387 213.451 490.958 214.273L519.138 254.843V254.853L535.718 278.723L575.297 335.703L635.328 250.013C635.899 249.195 636.659 248.528 637.543 248.067C638.428 247.606 639.41 247.365 640.407 247.365C641.405 247.365 642.387 247.606 643.272 248.067C644.156 248.528 644.916 249.195 645.487 250.013L683.998 304.973L686.208 308.133L730.378 371.173L731.777 373.173Z" fill="#3F3D56"/>
<path d="M552.819 241.3C547.038 241.296 541.334 242.633 536.158 245.207C530.981 247.781 526.472 251.522 522.987 256.134C519.245 254.524 515.162 253.868 511.105 254.226C507.047 254.583 503.142 255.942 499.74 258.182C496.337 260.421 493.544 263.47 491.611 267.055C489.678 270.641 488.666 274.65 488.665 278.723H590.242C590.242 273.809 589.274 268.942 587.394 264.402C585.513 259.861 582.757 255.736 579.281 252.261C575.806 248.786 571.681 246.029 567.14 244.148C562.6 242.268 557.734 241.3 552.819 241.3V241.3Z" fill="#CCCCCC"/>
<path d="M377.908 359.553L365.468 348.593L365.437 348.573L365.397 348.543L365.368 348.513C364.978 348.233 364.587 347.943 364.208 347.643C364.107 347.573 364.018 347.503 363.928 347.433C363.877 347.393 363.837 347.363 363.788 347.323C363.768 347.313 363.757 347.293 363.737 347.283C363.458 347.063 363.167 346.833 362.888 346.603C362.748 346.503 362.618 346.393 362.478 346.283C362.098 345.973 361.718 345.653 361.337 345.333C360.937 344.993 360.538 344.653 360.138 344.303C360.127 344.293 360.107 344.283 360.098 344.273C360.018 344.203 359.947 344.133 359.868 344.073C359.487 343.733 359.107 343.393 358.728 343.033C358.408 342.743 358.087 342.443 357.777 342.153C357.487 341.883 357.197 341.613 356.917 341.323L356.857 341.263C356.647 341.063 356.437 340.853 356.218 340.633C356.007 340.433 355.808 340.223 355.607 340.013C355.397 339.813 355.197 339.603 355.007 339.393L354.848 339.233L354.797 339.183L352.868 337.473V340.143L354.038 341.173L355.007 342.033L375.558 360.153L377.487 361.863L377.978 362.293L378.438 361.623L379.128 360.633L377.908 359.553ZM676.567 371.173C676.598 371.833 676.647 372.503 676.697 373.173H747.417V371.173H676.567ZM377.908 359.553L365.468 348.593L365.437 348.573L365.397 348.543L365.368 348.513C364.978 348.233 364.587 347.943 364.208 347.643C364.107 347.573 364.018 347.503 363.928 347.433C363.877 347.393 363.837 347.363 363.788 347.323C363.768 347.313 363.757 347.293 363.737 347.283C363.458 347.063 363.167 346.833 362.888 346.603C362.748 346.503 362.618 346.393 362.478 346.283C362.098 345.973 361.718 345.653 361.337 345.333C360.937 344.993 360.538 344.653 360.138 344.303C360.127 344.293 360.107 344.283 360.098 344.273C360.018 344.203 359.947 344.133 359.868 344.073C359.487 343.733 359.107 343.393 358.728 343.033C358.408 342.743 358.087 342.443 357.777 342.153C357.487 341.883 357.197 341.613 356.917 341.323L356.857 341.263C356.647 341.063 356.437 340.853 356.218 340.633C356.007 340.433 355.808 340.223 355.607 340.013C355.397 339.813 355.197 339.603 355.007 339.393L354.848 339.233L354.797 339.183L352.868 337.473V340.143L354.038 341.173L355.007 342.033L375.558 360.153L377.487 361.863L377.978 362.293L378.438 361.623L379.128 360.633L377.908 359.553ZM730.377 371.173H676.567C676.598 371.833 676.647 372.503 676.697 373.173H731.777L730.377 371.173ZM377.908 359.553L365.468 348.593L365.437 348.573L365.397 348.543L365.368 348.513C364.978 348.233 364.587 347.943 364.208 347.643C364.107 347.573 364.018 347.503 363.928 347.433C363.877 347.393 363.837 347.363 363.788 347.323C363.768 347.313 363.757 347.293 363.737 347.283C363.458 347.063 363.167 346.833 362.888 346.603C362.748 346.503 362.618 346.393 362.478 346.283C362.098 345.973 361.718 345.653 361.337 345.333C360.937 344.993 360.538 344.653 360.138 344.303C360.127 344.293 360.107 344.283 360.098 344.273C360.018 344.203 359.947 344.133 359.868 344.073C359.487 343.733 359.107 343.393 358.728 343.033C358.408 342.743 358.087 342.443 357.777 342.153C357.487 341.883 357.197 341.613 356.917 341.323L356.857 341.263C356.647 341.063 356.437 340.853 356.218 340.633C356.007 340.433 355.808 340.223 355.607 340.013C355.397 339.813 355.197 339.603 355.007 339.393L354.848 339.233L354.797 339.183L352.868 337.473V340.143L354.038 341.173L355.007 342.033L375.558 360.153L377.487 361.863L377.978 362.293L378.438 361.623L379.128 360.633L377.908 359.553ZM329.348 316.733L309.718 299.423C306.615 296.683 302.617 295.171 298.477 295.173H239.667L240.178 297.173H298.477C302.131 297.17 305.659 298.504 308.397 300.923L326.997 317.333L352.868 340.143V337.473L329.348 316.733ZM749.558 371.213C749.187 371.183 748.817 371.173 748.438 371.173H396.747C393.367 371.177 390.085 370.035 387.437 367.933C387.227 367.773 387.027 367.603 386.828 367.423L379.848 361.263L379.127 360.633L377.908 359.553L365.468 348.593L365.437 348.573L365.397 348.543L365.368 348.513L357.058 341.173L355.007 339.363L354.848 339.233L354.797 339.183L352.868 337.473L329.348 316.733L309.718 299.423C306.615 296.683 302.617 295.172 298.478 295.173H212.438C207.931 295.179 203.61 296.972 200.424 300.159C197.237 303.346 195.444 307.666 195.438 312.173V630.173C195.444 634.68 197.237 639 200.424 642.187C203.61 645.373 207.931 647.167 212.438 647.173H748.438C752.944 647.167 757.265 645.373 760.451 642.187C763.638 639 765.431 634.68 765.438 630.173V388.173C765.43 383.861 763.787 379.712 760.839 376.564C757.892 373.416 753.86 371.504 749.558 371.213L749.558 371.213ZM763.438 630.173C763.433 634.15 761.851 637.962 759.039 640.774C756.227 643.586 752.414 645.168 748.438 645.173H212.437C208.461 645.168 204.648 643.586 201.836 640.774C199.024 637.962 197.442 634.15 197.437 630.173V312.173C197.442 308.196 199.024 304.384 201.836 301.572C204.648 298.76 208.461 297.178 212.437 297.173H298.477C302.131 297.17 305.659 298.504 308.397 300.923L326.997 317.333L352.868 340.143L354.038 341.173L355.007 342.033L375.558 360.153L377.487 361.863L377.977 362.293L385.497 368.923C388.612 371.651 392.607 373.161 396.747 373.173H748.437C748.811 373.169 749.185 373.186 749.558 373.223C753.329 373.508 756.854 375.206 759.427 377.978C762 380.75 763.433 384.391 763.437 388.173L763.438 630.173ZM377.908 359.553L365.468 348.593L365.438 348.573L365.397 348.543L365.368 348.513C364.978 348.233 364.587 347.943 364.208 347.643C364.107 347.573 364.018 347.503 363.928 347.433C363.877 347.393 363.837 347.363 363.788 347.323C363.768 347.313 363.757 347.293 363.737 347.283C363.458 347.063 363.167 346.833 362.888 346.603C362.748 346.503 362.618 346.393 362.478 346.283C362.098 345.973 361.718 345.653 361.337 345.333C360.937 344.993 360.538 344.653 360.138 344.303C360.127 344.293 360.107 344.283 360.098 344.273C360.018 344.203 359.947 344.133 359.868 344.073C359.487 343.733 359.107 343.393 358.728 343.033C358.408 342.743 358.087 342.443 357.777 342.153C357.487 341.883 357.197 341.613 356.918 341.323L356.857 341.263C356.647 341.063 356.438 340.853 356.218 340.633C356.007 340.433 355.808 340.223 355.607 340.013C355.397 339.813 355.197 339.603 355.007 339.393L354.848 339.233L354.797 339.183L352.868 337.473V340.143L354.038 341.173L355.007 342.033L375.558 360.153L377.487 361.863L377.978 362.293L378.438 361.623L379.128 360.633L377.908 359.553ZM676.567 371.173C676.598 371.833 676.647 372.503 676.697 373.173H747.417V371.173H676.567ZM377.908 359.553L365.468 348.593L365.438 348.573L365.397 348.543L365.368 348.513C364.978 348.233 364.587 347.943 364.208 347.643C364.107 347.573 364.018 347.503 363.928 347.433C363.877 347.393 363.837 347.363 363.788 347.323C363.768 347.313 363.757 347.293 363.737 347.283C363.458 347.063 363.167 346.833 362.888 346.603C362.748 346.503 362.618 346.393 362.478 346.283C362.098 345.973 361.718 345.653 361.337 345.333C360.937 344.993 360.538 344.653 360.138 344.303C360.127 344.293 360.107 344.283 360.098 344.273C360.018 344.203 359.947 344.133 359.868 344.073C359.487 343.733 359.107 343.393 358.728 343.033C358.408 342.743 358.087 342.443 357.777 342.153C357.487 341.883 357.197 341.613 356.918 341.323L356.857 341.263C356.647 341.063 356.438 340.853 356.218 340.633C356.007 340.433 355.808 340.223 355.607 340.013C355.397 339.813 355.197 339.603 355.007 339.393L354.848 339.233L354.797 339.183L352.868 337.473V340.143L354.038 341.173L355.007 342.033L375.558 360.153L377.487 361.863L377.978 362.293L378.438 361.623L379.128 360.633L377.908 359.553ZM377.908 359.553L365.468 348.593L365.438 348.573L365.397 348.543L365.368 348.513C364.978 348.233 364.587 347.943 364.208 347.643C364.107 347.573 364.018 347.503 363.928 347.433C363.877 347.393 363.837 347.363 363.788 347.323C363.768 347.313 363.757 347.293 363.737 347.283C363.458 347.063 363.167 346.833 362.888 346.603C362.748 346.503 362.618 346.393 362.478 346.283C362.098 345.973 361.718 345.653 361.337 345.333C360.937 344.993 360.538 344.653 360.138 344.303C360.127 344.293 360.107 344.283 360.098 344.273C360.018 344.203 359.947 344.133 359.868 344.073C359.487 343.733 359.107 343.393 358.728 343.033C358.408 342.743 358.087 342.443 357.777 342.153C357.487 341.883 357.197 341.613 356.918 341.323L356.857 341.263C356.647 341.063 356.438 340.853 356.218 340.633C356.007 340.433 355.808 340.223 355.607 340.013C355.397 339.813 355.197 339.603 355.007 339.393L354.848 339.233L354.797 339.183L352.868 337.473V340.143L354.038 341.173L355.007 342.033L375.558 360.153L377.487 361.863L377.978 362.293L378.438 361.623L379.128 360.633L377.908 359.553ZM730.377 371.173H676.567C676.598 371.833 676.647 372.503 676.697 373.173H731.777L730.377 371.173Z" fill="#3F3D56"/>
<path d="M52.9375 312.772V289.173C52.9375 279.758 56.6777 270.728 63.3352 264.071C69.9927 257.413 79.0223 253.673 88.4375 253.673C97.8527 253.673 106.882 257.413 113.54 264.071C120.197 270.728 123.938 279.758 123.938 289.173V312.772C123.937 313.276 123.737 313.759 123.38 314.116C123.024 314.472 122.541 314.672 122.037 314.673H119.903C119.536 314.673 119.176 314.566 118.868 314.365C118.56 314.165 118.316 313.88 118.167 313.544L117.661 312.406C117.577 312.218 117.431 312.064 117.247 311.97C117.063 311.876 116.853 311.849 116.651 311.892C116.449 311.935 116.268 312.045 116.138 312.206C116.008 312.366 115.938 312.566 115.938 312.772C115.937 313.276 115.737 313.759 115.38 314.116C115.024 314.472 114.541 314.672 114.037 314.673H54.8379C54.334 314.672 53.851 314.472 53.4948 314.116C53.1385 313.759 52.9381 313.276 52.9375 312.772V312.772Z" fill="#2F2E41"/>
<path d="M127.488 633.487H139.748L145.58 586.199L127.486 586.2L127.488 633.487Z" fill="#FFB8B8"/>
<path d="M163.392 644.87L124.861 644.872L124.86 629.985L148.504 629.984C152.452 629.984 156.239 631.552 159.031 634.344C161.823 637.135 163.391 640.922 163.392 644.87V644.87V644.87Z" fill="#2F2E41"/>
<path d="M36.4883 633.487H48.7483L54.5803 586.199L36.4863 586.2L36.4883 633.487Z" fill="#FFB8B8"/>
<path d="M72.3916 644.87L33.8608 644.872L33.8602 629.985L57.504 629.984C61.4523 629.984 65.2389 631.552 68.0309 634.344C70.8228 637.135 72.3914 640.922 72.3916 644.87V644.87V644.87Z" fill="#2F2E41"/>
<path d="M107.54 591.09L83.835 494.739C83.6346 493.925 83.1485 493.21 82.4653 492.724C81.782 492.238 80.947 492.013 80.1122 492.091C79.2773 492.169 78.4981 492.543 77.9163 493.147C77.3345 493.751 76.9887 494.544 76.942 495.381L71.6651 589.611C71.6314 590.21 71.4783 590.796 71.2147 591.335C70.9512 591.874 70.5825 592.355 70.1305 592.749C69.6784 593.143 69.1521 593.443 68.5824 593.631C68.0128 593.819 67.4113 593.891 66.8133 593.844L24.6656 590.472C23.5178 590.382 22.4486 589.854 21.6784 588.998C20.9082 588.142 20.4957 587.023 20.526 585.872C21.0809 565.139 31.693 420.499 61.9608 388.882C62.4937 388.337 63.1566 387.937 63.8869 387.72C64.6173 387.503 65.3909 387.476 66.1348 387.64L106.555 398.641C107.389 398.825 108.154 399.241 108.761 399.842C109.368 400.444 109.792 401.205 109.983 402.037L154.518 581.547C154.65 582.134 154.664 582.742 154.557 583.334C154.451 583.926 154.227 584.491 153.898 584.995C153.569 585.5 153.143 585.933 152.644 586.269C152.144 586.606 151.583 586.838 150.992 586.954L112.775 594.43C111.64 594.654 110.462 594.432 109.488 593.81C108.513 593.187 107.815 592.213 107.54 591.09H107.54Z" fill="#2F2E41"/>
<path d="M93.2876 314.151C106.852 314.151 117.849 303.155 117.849 289.59C117.849 276.026 106.852 265.029 93.2876 265.029C79.7229 265.029 68.7266 276.026 68.7266 289.59C68.7266 303.155 79.7229 314.151 93.2876 314.151Z" fill="#FFB8B8"/>
<path d="M106.048 401.312L63.6422 391.793C62.7199 391.586 61.8861 391.095 61.2592 390.388C60.6324 389.68 60.2444 388.793 60.1505 387.853L57.2011 358.627C56.4038 350.826 58.4979 343.004 63.0859 336.644C67.674 330.284 74.4369 325.83 82.0915 324.126C82.4318 324.05 82.7717 323.977 83.1112 323.907H83.1115C88.3811 322.801 93.8462 323.066 98.984 324.677C104.122 326.288 108.76 329.19 112.455 333.106C116.25 337.054 118.968 341.909 120.35 347.208C121.731 352.506 121.731 358.071 120.347 363.369L111.391 398.046C111.146 399.012 110.586 399.868 109.8 400.48C109.014 401.091 108.046 401.423 107.05 401.423C106.713 401.423 106.377 401.386 106.048 401.312Z" fill="#6C63FF"/>
<path d="M0.910077 445.627C0.325937 444.435 0.0101738 443.13 -0.0149717 441.803C-0.0401172 440.476 0.225967 439.16 0.764539 437.947C1.30311 436.734 2.10107 435.654 3.10222 434.783C4.10336 433.912 5.28333 433.271 6.55902 432.905L37.2521 370.18L53.0856 381.97L18.0516 439.733C18.5241 441.917 18.179 444.198 17.0819 446.144C15.9848 448.091 14.2118 449.567 12.0988 450.294C9.9859 451.02 7.67987 450.946 5.6177 450.086C3.55554 449.226 1.88051 447.64 0.910031 445.627H0.910077Z" fill="#FFB8B8"/>
<path d="M209.704 411.867C209.704 410.54 209.413 409.229 208.851 408.026C208.29 406.824 207.471 405.759 206.454 404.907C205.436 404.055 204.244 403.437 202.962 403.095C201.679 402.754 200.338 402.698 199.031 402.931L143.859 360.122L134.833 377.679L191.718 414.121C192.255 416.29 193.569 418.186 195.411 419.451C197.253 420.715 199.495 421.261 201.712 420.983C203.929 420.705 205.967 419.623 207.44 417.943C208.913 416.263 209.719 414.101 209.704 411.867H209.704Z" fill="#FFB8B8"/>
<path d="M51.724 386.987C51.0997 386.987 50.4855 386.829 49.9386 386.528L33.3175 377.392C32.4827 376.934 31.8555 376.172 31.565 375.265C31.2745 374.358 31.3429 373.374 31.756 372.515L48.4982 337.724C50.0181 334.458 52.6816 331.862 55.9855 330.425C58.3608 329.421 60.9632 329.075 63.5184 329.426C66.0735 329.776 68.4869 330.81 70.504 332.417C72.0685 333.641 73.3473 335.192 74.2513 336.962C75.3568 339.063 75.921 341.407 75.8926 343.781C75.8642 346.155 75.2442 348.485 74.0887 350.559L54.9894 385.068C54.666 385.65 54.1926 386.135 53.6183 386.473C53.0441 386.81 52.39 386.988 51.724 386.987V386.987Z" fill="#6C63FF"/>
<path d="M135.386 380.859L103.045 358.282C101.094 356.928 99.5121 355.109 98.4414 352.99C97.3707 350.87 96.8454 348.517 96.913 346.144C96.9459 344.157 97.4113 342.202 98.2769 340.413C99.3806 338.082 101.093 336.092 103.233 334.653C105.373 333.213 107.861 332.378 110.436 332.234C114.035 332.069 117.57 333.228 120.372 335.492L150.721 359.36C151.469 359.949 151.964 360.802 152.103 361.745C152.241 362.687 152.013 363.647 151.466 364.426L140.563 379.946C139.996 380.752 139.133 381.3 138.163 381.471C137.193 381.642 136.194 381.422 135.386 380.859V380.859Z" fill="#6C63FF"/>
<path d="M64.9375 281.173C64.9375 274.41 67.6241 267.924 72.4063 263.142C77.1885 258.359 83.6745 255.673 90.4375 255.673C97.2005 255.673 103.687 258.359 108.469 263.142C113.251 267.924 115.937 274.41 115.938 281.173V282.673H109.335C109.067 282.673 108.802 282.608 108.563 282.485C108.324 282.362 108.117 282.184 107.961 281.966L106.762 280.288C106.673 280.163 106.544 280.071 106.397 280.028C106.25 279.984 106.093 279.99 105.95 280.046C105.807 280.102 105.687 280.203 105.608 280.335C105.53 280.467 105.497 280.621 105.516 280.773C105.546 281.011 105.525 281.253 105.454 281.482C105.384 281.711 105.265 281.922 105.107 282.102C104.948 282.281 104.753 282.425 104.535 282.524C104.316 282.622 104.079 282.673 103.84 282.673H64.9375V281.173Z" fill="#2F2E41"/>
<path d="M721.018 634.673H234.857C230.636 634.669 226.59 632.99 223.605 630.005C220.621 627.021 218.942 622.975 218.938 618.754V330.323C218.942 326.102 220.621 322.056 223.605 319.071C226.59 316.087 230.636 314.408 234.857 314.403C238.59 314.408 242.169 315.892 244.809 318.532C247.448 321.172 248.933 324.751 248.938 328.484V599.754C248.942 603.709 250.515 607.502 253.312 610.299C256.109 613.096 259.901 614.669 263.857 614.673H719.376C721.639 614.648 723.845 615.382 725.642 616.757C727.44 618.132 728.724 620.07 729.292 622.261C729.927 624.338 729.848 626.569 729.067 628.596C728.286 630.623 726.849 632.33 724.985 633.445C723.802 634.215 722.429 634.64 721.018 634.673Z" fill="#F2F2F2"/>
</g>
<defs>
<clipPath id="clip0">
<rect width="765.437" height="647.173" fill="white"/>
</clipPath>
</defs>
</svg>
