<?xml version="1.0"?>
<svg xmlns="http://www.w3.org/2000/svg" xmlns:xlink="http://www.w3.org/1999/xlink" xmlns:svgjs="http://svgjs.com/svgjs" version="1.1" width="512" height="512" x="0" y="0" viewBox="0 0 388.3 388.3" style="enable-background:new 0 0 512 512" xml:space="preserve" class=""><g>
<g xmlns="http://www.w3.org/2000/svg">
	<path style="" d="M169.7,26.95c28,0,83.2,0,83.2,0l36,79.6l16.4-6.8l-36.8,59.2l-68.4-16.8l18.4-9.2l-27.2-48.8   l-46.8,62l-61.2-45.6l61.2-73.6H169.7z" fill="#c6c3ff" data-original="#7ece29" class=""/>
	<path style="" d="M52.9,316.95c-15.6-23.2-46.4-68.8-46.4-68.8l45.6-74.4l-14.8-10l69.6-2.8l24.4,66l-17.6-10   l-25.2,50l77.2,3.6v73.2H70.5L52.9,316.95z" fill="#c6c3ff" data-original="#7ece29" class=""/>
	<path style="" d="M371.7,268.55c-11.6,25.6-34,75.6-34,75.6h-87.2l-0.8,17.6l-38.8-57.6l43.2-55.6l0.8,20.4l56-4.8   l-37.6-67.6l66.8-37.2l42,86L371.7,268.55z" fill="#c6c3ff" data-original="#7ece29" class=""/>
</g>
<g xmlns="http://www.w3.org/2000/svg">
	<path style="" d="M193.7,142.95c0.4,2.8,2.4,4.8,4.8,5.6l68.4,16.8c0.4,0,1.2,0,1.6,0c2,0,4.4-1.2,5.6-3.2l36.8-59.2   c1.6-2.4,1.2-5.6-0.4-7.6c-2-2-4.8-2.8-7.2-2l-10.8,4.4l-33.2-74c-1.2-2.4-3.2-4-6-4H144.5c-2,0-3.6,0.8-4.8,2.4l-61.2,74.4   c-1.2,1.2-1.6,3.2-1.6,4.8c0.4,1.6,1.2,3.2,2.4,4.4l61.2,45.6c2.8,2,6.8,1.6,9.2-1.2l40.4-54l19.2,34.4l-12,6   C194.9,137.75,193.3,140.15,193.7,142.95z M143.3,137.35l-50.8-37.6l54.8-66h8.8l27.2,50.4L143.3,137.35z M196.5,81.35L196.5,81.35   l-25.6-48h77.6l34,75.6c1.2,2.8,4,4,6.8,3.6l-24,38.8l-46.8-11.2l2.4-1.2c1.6-0.8,2.8-2,3.2-4c0.4-1.6,0.4-3.6-0.4-5.2L196.5,81.35   z" fill="#001747" data-original="#001b01" class=""/>
	<path style="" d="M65.3,347.75c1.2,2,3.2,2.8,5.6,2.8h95.2c3.6,0,6.4-2.8,6.4-6.4v-73.2c0-3.6-2.8-6.4-6-6.4   l-67.2-3.2l17.6-35.2l12,6.8c2.4,1.2,5.2,1.2,7.2-0.8c2-1.6,2.8-4.8,2-7.2l-24.4-66c-0.8-2.8-3.2-4.4-6.4-4.4l-69.6,2.8   c-2.8,0-5.2,2-6,4.8s0.4,5.6,2.4,7.2l9.6,6.4l-42.8,69.2c-1.2,2-1.2,4.8,0,7.2l46.4,68.8L65.3,347.75z M159.3,277.35v60.8H74.1   l-8.4-12.8l26.8-50.8L159.3,277.35z M57.7,177.35c1.6-2.4,1.2-5.6-0.8-7.6l45.6-1.6l16.8,45.2l-2.4-1.2c-1.6-0.8-3.2-1.2-5.2-0.4   c-1.6,0.4-3.2,1.6-4,3.2l-25.2,50l0,0l-25.2,48l-43.2-64.8L57.7,177.35z" fill="#001747" data-original="#001b01" class=""/>
	<path style="" d="M345.7,156.55c-0.8-1.6-2-2.8-4-3.2c-1.6-0.4-3.6-0.4-5.2,0.4l-66.8,37.2c-3.2,1.6-4.4,5.6-2.4,8.8   l32.8,58.8l-39.2,3.6l-0.4-13.6c0-2.8-2-5.2-4.4-6s-5.6,0-7.2,2l-43.2,56c-1.6,2.4-2,5.2-0.4,7.6l38.8,57.6c1.2,2,3.2,2.8,5.2,2.8   c0.4,0,1.2,0,1.6-0.4c2.8-0.8,4.4-3.2,4.8-6l0.4-11.6h81.2c2.4,0,4.8-1.6,6-4l44.4-98.8c0.8-1.6,0.8-3.6,0-5.6L345.7,156.55z    M281.7,199.35l55.2-30.8l37.6,77.2l-3.6,8l-56.8,4L281.7,199.35z M333.3,337.75h-83.2c-2.8,0-5.2,2-6,4.4l-25.2-37.6l29.6-38v2.8   c0,1.6,0.8,3.6,2,4.4c1.2,1.2,3.2,1.6,4.8,1.6l56-4.8l0,0l54-3.6L333.3,337.75z" fill="#001747" data-original="#001b01" class=""/>
</g>
<g xmlns="http://www.w3.org/2000/svg">
</g>
<g xmlns="http://www.w3.org/2000/svg">
</g>
<g xmlns="http://www.w3.org/2000/svg">
</g>
<g xmlns="http://www.w3.org/2000/svg">
</g>
<g xmlns="http://www.w3.org/2000/svg">
</g>
<g xmlns="http://www.w3.org/2000/svg">
</g>
<g xmlns="http://www.w3.org/2000/svg">
</g>
<g xmlns="http://www.w3.org/2000/svg">
</g>
<g xmlns="http://www.w3.org/2000/svg">
</g>
<g xmlns="http://www.w3.org/2000/svg">
</g>
<g xmlns="http://www.w3.org/2000/svg">
</g>
<g xmlns="http://www.w3.org/2000/svg">
</g>
<g xmlns="http://www.w3.org/2000/svg">
</g>
<g xmlns="http://www.w3.org/2000/svg">
</g>
<g xmlns="http://www.w3.org/2000/svg">
</g>
</g></svg>
