<svg width="611" height="512" viewBox="0 0 611 512" fill="none" xmlns="http://www.w3.org/2000/svg">
<path d="M0 512V183.986C0 82.545 75.2344 0 167.691 0H443.269C535.745 0 611 82.545 611 183.986V240.563C611 342.004 535.766 424.549 443.309 424.549H171.579L0 512ZM167.691 41.0183C95.8408 41.0183 37.3856 105.154 37.3856 183.986V447.71L163.34 383.508H443.309C515.159 383.508 573.614 319.373 573.614 240.541V183.964C573.614 105.132 515.139 40.9962 443.269 40.9962H167.691V41.0183ZM180.019 180.87C199.658 180.87 215.571 198.329 215.571 219.877C215.571 241.425 199.658 258.884 180.019 258.884C160.379 258.884 144.466 241.425 144.466 219.877C144.466 198.329 160.379 180.87 180.019 180.87ZM430.961 180.87C450.601 180.87 466.514 198.329 466.514 219.877C466.514 241.425 450.601 258.884 430.961 258.884C411.322 258.884 395.409 241.425 395.409 219.877C395.409 198.329 411.322 180.87 430.961 180.87ZM305.47 180.87C325.109 180.87 341.022 198.329 341.022 219.877C341.022 241.425 325.109 258.884 305.47 258.884C285.83 258.884 269.917 241.425 269.917 219.877C269.917 198.329 285.83 180.87 305.47 180.87Z" fill="white"/>
</svg>
