<svg width="1100" height="735" viewBox="0 0 1100 735" fill="none" xmlns="http://www.w3.org/2000/svg">
<g clip-path="url(#clip0)">
<path d="M900 653.892C986.156 653.892 1056 643.818 1056 631.392C1056 618.965 986.156 608.892 900 608.892C813.844 608.892 744 618.965 744 631.392C744 643.818 813.844 653.892 900 653.892Z" fill="#F2F2F2"/>
<path d="M801 80H-9V571.786H801V80Z" fill="#F2F2F2"/>
<path d="M13.0803 95.5991C16.31 95.5991 18.9282 92.9809 18.9282 89.7512C18.9282 86.5215 16.31 83.9033 13.0803 83.9033C9.8506 83.9033 7.23242 86.5215 7.23242 89.7512C7.23242 92.9809 9.8506 95.5991 13.0803 95.5991Z" fill="#6C63FF"/>
<path d="M28.0246 95.5991C31.2543 95.5991 33.8725 92.9809 33.8725 89.7512C33.8725 86.5215 31.2543 83.9033 28.0246 83.9033C24.7949 83.9033 22.1768 86.5215 22.1768 89.7512C22.1768 92.9809 24.7949 95.5991 28.0246 95.5991Z" fill="#6C63FF"/>
<path d="M42.969 95.5991C46.1987 95.5991 48.8168 92.9809 48.8168 89.7512C48.8168 86.5215 46.1987 83.9033 42.969 83.9033C39.7393 83.9033 37.1211 86.5215 37.1211 89.7512C37.1211 92.9809 39.7393 95.5991 42.969 95.5991Z" fill="#6C63FF"/>
<path d="M178.191 261.411C216.136 261.411 246.896 230.65 246.896 192.705C246.896 154.76 216.136 124 178.191 124C140.246 124 109.485 154.76 109.485 192.705C109.485 230.65 140.246 261.411 178.191 261.411Z" fill="#3F3D56"/>
<path d="M322.382 290.339H34V300.283H322.382V290.339Z" fill="#6C63FF"/>
<path d="M322.382 385.261H34V395.205H322.382V385.261Z" fill="#3F3D56"/>
<path d="M322.382 413.285H34V423.229H322.382V413.285Z" fill="#3F3D56"/>
<path d="M322.382 441.31H34V451.254H322.382V441.31Z" fill="#3F3D56"/>
<path d="M322.382 469.335H34V479.279H322.382V469.335Z" fill="#3F3D56"/>
<path d="M322.382 497.359H34V507.304H322.382V497.359Z" fill="#3F3D56"/>
<path d="M322.382 525.384H34V535.328H322.382V525.384Z" fill="#3F3D56"/>
<path d="M756.281 122H377V123.808H756.281V122Z" fill="#6C63FF"/>
<path d="M756.281 140.08H377V141.888H756.281V140.08Z" fill="#6C63FF"/>
<path d="M756.281 158.161H377V159.969H756.281V158.161Z" fill="#6C63FF"/>
<path d="M756.281 176.241H377V178.049H756.281V176.241Z" fill="#6C63FF"/>
<path d="M756.281 194.321H377V196.129H756.281V194.321Z" fill="#6C63FF"/>
<path d="M756.281 212.401H377V214.209H756.281V212.401Z" fill="#6C63FF"/>
<path d="M756.281 230.482H377V232.29H756.281V230.482Z" fill="#6C63FF"/>
<path d="M756.281 248.562H377V250.371H756.281V248.562Z" fill="#6C63FF"/>
<path d="M756.281 266.643H377V268.451H756.281V266.643Z" fill="#6C63FF"/>
<path d="M756.281 284.724H377V286.532H756.281V284.724Z" fill="#6C63FF"/>
<path d="M756.281 302.804H377V304.612H756.281V302.804Z" fill="#6C63FF"/>
<path d="M409.041 277.491H383.706V284.723H409.041V277.491Z" fill="#6C63FF"/>
<path d="M450.025 260.314H424.689V267.547H450.025V260.314Z" fill="#6C63FF"/>
<path d="M491.008 224.154H465.673V231.386H491.008V224.154Z" fill="#6C63FF"/>
<path d="M531.991 241.33H506.656V248.562H531.991V241.33Z" fill="#6C63FF"/>
<path opacity="0.1" d="M711.573 176.242V249.015H695.924V156.354H670.59V249.015H654.941V191.61H629.607V249.015H572.975V209.691H547.64V249.015H506.284V266.644H491.008V227.771H465.674V266.644H424.69V284.724H383.707V304.613H424.69H531.991H547.64H572.975H711.573H736.908V284.724V176.242H711.573Z" fill="#6C63FF"/>
<path d="M572.975 206.073H547.64V213.305H572.975V206.073Z" fill="#6C63FF"/>
<path d="M613.958 241.33H588.623V248.562H613.958V241.33Z" fill="#6C63FF"/>
<path d="M654.941 187.993H629.605V195.225H654.941V187.993Z" fill="#6C63FF"/>
<path d="M695.924 152.736H670.589V159.968H695.924V152.736Z" fill="#6C63FF"/>
<path d="M736.907 170.817H711.572V178.05H736.907V170.817Z" fill="#6C63FF"/>
<path d="M468.542 370.923C468.405 369.846 468.13 368.791 467.722 367.785C467.67 367.595 467.579 367.418 467.455 367.265C467.33 367.112 467.176 366.986 467 366.896C466.765 366.835 466.52 366.832 466.284 366.888L462.605 367.451C462.298 367.465 462.003 367.579 461.766 367.777C461.287 368.281 461.759 369.092 461.744 369.787C461.699 370.176 461.534 370.542 461.272 370.833C461.009 371.125 460.663 371.327 460.28 371.413C459.512 371.568 458.719 371.558 457.954 371.384L452.811 370.585C454.326 370.101 455.674 369.202 456.702 367.988C457.379 367.187 457.739 365.69 456.76 365.31C456.47 365.23 456.167 365.206 455.867 365.238C453.537 365.256 451.703 363.311 449.522 362.491C448.126 362.001 446.61 361.964 445.192 362.387C443.774 362.81 442.526 363.67 441.626 364.845L444.366 364.977C444.623 364.963 444.879 365.031 445.095 365.172C445.696 365.665 444.949 366.613 445.034 367.385C445.144 368.389 446.476 368.603 447.481 368.705C448.485 368.806 449.76 369.622 449.277 370.509C444.228 372.248 439.09 367.109 433.787 367.742C432.46 367.997 431.151 368.337 429.868 368.761C421.864 370.786 413.589 365.383 405.413 366.527C403.595 366.837 401.809 367.308 400.074 367.935C398.931 368.211 397.873 368.763 396.992 369.543C396.565 369.945 396.296 370.486 396.232 371.07C396.167 371.653 396.313 372.24 396.642 372.725C394.531 372.899 392.405 372.697 390.364 372.129C390.916 372.435 391.375 372.885 391.694 373.43C392.012 373.976 392.177 374.597 392.173 375.228C388.876 375.766 385.667 376.744 382.631 378.137C383.198 379.08 383.859 379.961 384.606 380.768L380.433 383.449C380.773 383.559 381.084 383.744 381.343 383.99C381.601 384.236 381.802 384.538 381.928 384.872C382.055 385.206 382.105 385.564 382.074 385.92C382.044 386.276 381.933 386.62 381.752 386.928C383.214 386.278 384.12 384.595 385.683 384.254C386.732 384.144 387.789 384.349 388.721 384.843C389.654 385.337 390.726 385.506 391.766 385.323C392.772 385.027 393.514 383.723 392.875 382.892C397.174 381.638 401.617 380.944 406.094 380.827C406.439 380.784 406.789 380.85 407.095 381.017C407.678 381.421 407.524 382.295 407.493 383.003C407.462 383.712 408.014 384.643 408.647 384.324C407.902 384.97 408.539 386.186 409.254 386.866C409.969 387.545 410.83 388.483 410.393 389.366C410.278 389.597 410.085 389.782 409.975 390.014C409.65 390.701 410.165 391.502 410.773 391.959C411.439 392.325 412.038 392.801 412.547 393.365C412.969 393.997 412.777 395.103 412.022 395.191L409.877 392.468C409.145 393.228 408.642 394.18 408.428 395.214C409.531 396.188 410.219 397.547 410.352 399.013C410.484 400.478 410.051 401.939 409.141 403.095C408.061 404.138 406.865 405.053 405.576 405.824C404.934 406.216 404.39 406.749 403.988 407.385C403.585 408.02 403.334 408.739 403.254 409.487C403.259 412.081 403.047 414.49 404.019 416.895C405.811 421.329 407.881 425.646 410.214 429.82C410.827 430.916 411.619 432.118 412.861 432.307C411.292 428.487 409.879 424.607 408.623 420.669C409.028 420.61 409.441 420.646 409.83 420.773C410.219 420.899 410.574 421.114 410.866 421.399C411.153 422.014 411.301 422.683 411.302 423.36C411.458 424.006 411.72 424.621 412.076 425.181L419.569 438.529C420.067 439.707 420.958 440.676 422.09 441.271C422.885 441.419 423.667 441.635 424.426 441.916C424.973 442.239 425.342 442.813 425.9 443.118C427.479 443.979 429.674 442.327 431.149 443.355C431.527 443.702 431.887 444.069 432.228 444.453C433.59 445.633 435.825 444.844 437.398 445.724C438.337 446.416 439.059 447.363 439.477 448.453C440.831 451.028 443.023 453.551 445.925 453.756C446.837 453.718 447.751 453.75 448.659 453.851C449.55 454.053 450.427 454.831 450.284 455.734C450.039 457.281 450.803 458.976 450.598 460.529C450.224 463.358 446.211 464.602 445.866 467.435C445.868 468.059 445.832 468.683 445.761 469.303C445.58 470.047 445.021 470.653 444.823 471.392C444.446 472.794 445.451 474.189 446.554 475.132C447.657 476.075 448.973 476.888 449.576 478.208C450.214 479.604 449.901 481.231 450.108 482.751C450.561 486.069 453.427 488.529 456.376 490.115C457.32 490.512 458.158 491.125 458.822 491.905C459.581 492.999 459.505 494.441 459.759 495.749C460.379 498.951 463.075 501.589 463.152 504.85C463.206 507.168 461.918 509.27 461.148 511.457C460.427 513.552 460.165 515.778 460.383 517.984C460.6 520.189 461.29 522.322 462.406 524.236C463.044 525.169 463.603 526.153 464.078 527.178C464.805 529.059 464.569 531.197 465.239 533.098C466.125 535.612 468.559 537.689 468.326 540.344C469.431 542.639 471.872 543.767 474.326 544.45L478.724 545.674C479.548 545.973 480.432 546.076 481.303 545.975C481.737 545.913 482.137 545.705 482.437 545.386C482.737 545.067 482.921 544.656 482.957 544.22C480.766 543.88 478.668 543.091 476.796 541.902C475.019 540.587 473.801 538.247 474.475 536.142C474.788 535.165 475.453 534.038 474.821 533.231C474.459 532.769 473.796 532.649 473.388 532.227C473.126 531.851 472.99 531.402 472.997 530.944C473.004 530.485 473.155 530.041 473.427 529.673C473.987 528.948 474.428 528.139 474.733 527.275C474.826 526.774 474.764 526.255 474.554 525.79C474.344 525.325 473.998 524.935 473.56 524.673C474.375 524.365 475.117 523.889 475.737 523.276C476.04 522.963 476.24 522.565 476.309 522.134C476.379 521.704 476.314 521.263 476.123 520.871C477.461 521.041 479.04 521.124 479.917 520.101C480.22 519.654 480.412 519.142 480.477 518.607C480.542 518.072 480.479 517.528 480.293 517.022C479.913 516.015 479.658 514.965 479.534 513.895C482.618 514.042 485.71 513.937 488.778 513.582C488.334 512.088 487.326 510.825 485.967 510.062C487.357 509.827 488.623 508.163 489.062 506.824C489.435 505.458 489.455 504.019 489.117 502.644C489.013 502.288 488.999 501.911 489.076 501.548C489.298 501.07 489.69 500.692 490.175 500.485L497.072 496.524C497.484 496.318 497.857 496.043 498.175 495.71C498.484 495.245 498.668 494.708 498.711 494.151C498.754 493.595 498.654 493.036 498.421 492.529C497.944 491.521 497.573 490.467 497.315 489.383C496.889 486.077 500.429 483.704 501.623 480.592C502.031 479.347 502.252 478.048 502.278 476.738C502.375 475.336 502.383 473.708 501.306 472.804C500.275 471.939 498.663 472.132 497.583 471.326C496.593 470.588 496.252 469.154 495.17 468.557C494.188 468.016 492.957 468.36 491.865 468.105C489.942 467.657 488.732 465.44 486.768 465.235C485.66 465.119 484.406 465.661 483.498 465.016C482.698 464.447 482.666 463.304 482.513 462.335C482.246 460.827 481.524 459.438 480.443 458.354C479.363 457.27 477.976 456.543 476.47 456.271C475.327 456.088 474.084 456.158 473.112 455.53C472.128 454.894 471.676 453.704 470.903 452.824C469.657 451.405 467.695 450.9 465.857 450.468L458.38 448.711C457.053 448.399 455.342 448.233 454.629 449.396C454.419 449.838 454.269 450.308 454.186 450.791C453.919 451.665 453.382 452.432 452.652 452.982C451.921 453.531 451.036 453.835 450.122 453.85C449.496 452.781 448.48 451.995 447.288 451.657C446.513 451.526 445.747 451.344 444.996 451.111C444.602 450.919 444.251 450.649 443.966 450.316C443.68 449.984 443.465 449.597 443.334 449.179C443.204 448.76 443.16 448.32 443.205 447.884C443.25 447.448 443.384 447.026 443.598 446.644C444.029 445.876 444.196 444.988 444.072 444.117C443.948 443.245 443.541 442.439 442.913 441.821C442.235 441.298 441.461 440.914 440.635 440.69C439.809 440.466 438.946 440.408 438.097 440.518C437.651 439.544 438.397 438.445 439.202 437.737C440.006 437.028 440.983 436.332 441.159 435.275C441.434 433.612 439.312 432.348 437.701 432.844C436.089 433.34 435.061 434.905 434.381 436.448C434.054 437.36 433.605 438.222 433.044 439.012C432.758 439.403 432.368 439.708 431.919 439.892C431.47 440.075 430.979 440.131 430.501 440.053C429.174 439.714 428.661 438.138 428.368 436.8C427.896 435.022 427.658 433.19 427.66 431.35C427.671 429.491 428.409 427.711 429.715 426.388C431.92 424.363 435.304 424.561 438.281 424.884C437.961 424.461 437.807 423.935 437.848 423.405C437.889 422.876 438.122 422.38 438.504 422.011C438.901 421.658 439.378 421.407 439.894 421.28C440.41 421.154 440.949 421.155 441.465 421.283C442.362 421.47 443.17 421.953 443.759 422.655C444.605 423.686 444.845 425.079 445.484 426.249C446.124 427.42 447.562 428.418 448.738 427.79C449.755 427.248 449.916 425.838 449.663 424.715C449.264 423.634 449.028 422.5 448.964 421.349C449.139 419.158 451.411 417.839 453.415 416.936C455.42 416.034 457.715 414.82 458.033 412.645C458.043 412.219 458.124 411.798 458.27 411.398C458.493 411.045 458.802 410.754 459.168 410.554C465.018 406.688 470.965 402.774 477.652 400.662C478 400.552 478.041 400.674 478.395 400.588C478.891 400.301 478.563 399.508 478.087 399.188C477.611 398.869 476.975 398.624 476.855 398.063C476.766 397.652 477.009 397.247 477.072 396.831C477.088 396.579 477.042 396.328 476.938 396.098C476.834 395.868 476.676 395.668 476.476 395.514C476.277 395.36 476.042 395.257 475.794 395.215C475.545 395.173 475.29 395.192 475.051 395.271C474.514 394.56 475.577 393.734 476.436 393.497C479.017 392.787 481.666 392.354 484.338 392.206C484.646 392.157 484.962 392.211 485.237 392.359C485.433 392.549 485.55 392.806 485.564 393.078C485.577 393.351 485.487 393.618 485.31 393.827C484.943 394.23 484.538 394.598 484.101 394.925C483.668 395.346 483.359 395.879 483.208 396.465C483.057 397.05 483.07 397.666 483.245 398.245C484.64 398.954 486.157 399.685 487.702 399.435C489.247 399.185 490.618 397.449 489.892 396.062C489.216 394.771 487.184 394.48 486.835 393.065C486.426 391.408 488.771 389.934 488.243 388.312C488.011 387.601 487.303 387.182 486.76 386.669C486.118 386.04 485.681 385.231 485.507 384.35C485.333 383.468 485.43 382.554 485.784 381.728C484.899 381.884 483.989 381.825 483.131 381.556C482.273 381.288 481.492 380.818 480.854 380.185C479.674 378.995 478.733 377.117 477.058 377.17C475.522 377.219 474.198 379.012 472.761 378.465C472.407 378.331 472.034 378.057 471.692 378.217C471.58 378.29 471.485 378.388 471.416 378.502C471.347 378.617 471.305 378.746 471.293 378.879C470.928 380.625 471.556 382.614 470.605 384.123C469.569 385.765 467.174 385.993 465.919 387.473C465.237 388.277 464.973 389.36 464.347 390.207C463.72 391.054 462.391 391.593 461.639 390.855C462.008 390.095 462.109 389.233 461.925 388.409C461.741 387.584 461.283 386.847 460.625 386.317C459.927 385.861 459.175 385.496 458.386 385.228C457.504 384.854 456.665 384.387 455.884 383.833C455.493 383.597 455.175 383.257 454.966 382.851C454.8 382.342 454.823 381.791 455.029 381.297C455.41 380.204 456.082 379.236 456.973 378.497C457.865 377.759 458.941 377.278 460.085 377.106C461.086 376.97 462.251 377.018 462.913 376.255C463.264 375.851 463.448 375.241 463.956 375.077C464.282 375.012 464.62 375.054 464.919 375.196L468.655 376.511C469.072 376.699 469.531 376.775 469.986 376.731C470.212 376.701 470.417 376.586 470.562 376.41C470.707 376.234 470.78 376.01 470.766 375.783C470.647 375.162 469.692 374.865 469.779 374.239C469.828 374.036 469.937 373.853 470.092 373.713C471.44 372.278 473.089 371.159 474.92 370.436C476.751 369.713 478.72 369.404 480.685 369.53C481.156 370.305 480.411 371.222 479.79 371.883C479.17 372.544 478.671 373.725 479.421 374.234C479.729 374.391 480.071 374.468 480.416 374.458C481.336 374.582 482.23 374.854 483.063 375.261C484.354 375.823 485.621 376.437 486.862 377.105C486.683 376.295 486.716 375.452 486.958 374.659C487.093 374.268 487.369 373.942 487.732 373.745C488.095 373.547 488.519 373.492 488.92 373.591C489.662 373.879 490.043 374.861 490.834 374.951C491.888 375.072 492.305 373.513 491.864 372.547C491.423 371.581 490.551 370.773 490.478 369.714C490.429 368.999 490.701 368.113 490.13 367.68C489.927 367.55 489.697 367.469 489.457 367.444L475.206 364.822C474.359 364.666 473.137 364.785 473.099 365.645C473.078 366.125 473.507 366.599 473.317 367.041C473.114 367.511 472.449 367.468 471.964 367.635C471.602 367.802 471.303 368.081 471.112 368.431C470.922 368.782 470.85 369.184 470.906 369.579C471.039 370.366 471.343 371.114 471.799 371.769C470.872 371.382 469.469 371.31 468.542 370.923Z" fill="#3F3D56"/>
<path d="M457.171 358.825C456.272 358.528 455.304 358.514 454.397 358.786C453.49 359.057 452.689 359.601 452.102 360.344C451.964 360.481 451.869 360.654 451.827 360.844C451.786 361.033 451.799 361.231 451.866 361.413C452.148 361.893 452.866 361.703 453.395 361.532C454.172 361.254 455.019 361.234 455.809 361.474C456.306 361.645 456.75 361.946 457.249 362.11C457.492 362.212 457.758 362.245 458.018 362.207C458.279 362.169 458.524 362.061 458.728 361.894C459.022 361.497 459.153 361.003 459.093 360.513C459.116 360.349 459.103 360.182 459.054 360.024C459.005 359.866 458.922 359.721 458.809 359.6C458.61 359.484 458.385 359.418 458.155 359.406C457.638 359.31 457.172 359.038 456.835 358.635" fill="#3F3D56"/>
<path d="M462.31 357.394C462.109 357.383 461.908 357.424 461.728 357.513C461.547 357.602 461.392 357.736 461.278 357.902C461.164 358.068 461.095 358.261 461.077 358.462C461.059 358.662 461.093 358.864 461.175 359.048C461.793 359.216 462.438 359.258 463.073 359.171C463.389 359.122 463.684 358.981 463.92 358.764C464.156 358.548 464.322 358.267 464.399 357.956C463.652 358.092 462.881 357.944 462.237 357.543" fill="#3F3D56"/>
<path d="M479.551 355.005C477.869 355.362 476.236 355.917 474.686 356.658C475.417 356.939 476.038 357.447 476.459 358.108C476.879 358.769 477.076 359.548 477.02 360.329C476.955 360.629 476.962 360.94 477.042 361.237C477.221 361.67 477.739 361.832 478.194 361.943C479.012 362.192 479.866 362.301 480.72 362.266C481.147 362.243 481.562 362.115 481.927 361.892C482.292 361.669 482.596 361.358 482.81 360.988C482.934 360.637 483.079 360.294 483.245 359.96C484.336 358.299 487.577 360.308 488.749 358.702C489.162 358.136 489.124 357.285 489.662 356.836C489.94 356.641 490.262 356.518 490.6 356.478C492.956 356.01 495.335 355.671 497.728 355.463C498.862 355.364 500.34 354.957 500.349 353.819C496.079 352.981 491.651 353.576 487.754 355.514C486.35 356.217 484.493 357.696 483.141 356.764C482.634 356.415 482.66 355.475 481.963 355.082C481.192 354.776 480.339 354.749 479.551 355.005V355.005Z" fill="#3F3D56"/>
<path d="M493.516 357.617L495.52 358.002C495.151 357.986 494.783 358.048 494.44 358.186C494.097 358.323 493.787 358.532 493.532 358.798C493.276 359.064 493.08 359.382 492.956 359.73C492.833 360.079 492.786 360.449 492.817 360.817C494.694 361.444 496.741 360.834 498.718 360.917C500.695 361.001 502.996 362.413 502.659 364.363C502.557 364.953 502.216 365.542 502.393 366.114C502.584 366.486 502.811 366.839 503.07 367.168C503.23 367.575 503.274 368.02 503.196 368.451C503.118 368.882 502.921 369.282 502.629 369.608C502.104 370.307 501.399 370.865 500.938 371.608C499.792 373.455 500.443 375.843 501.126 377.907C501.323 378.687 501.687 379.415 502.194 380.04C503.205 381.115 504.852 381.209 506.328 381.23C507.402 381.246 508.632 381.193 509.311 380.36C510.198 379.274 509.578 377.579 510.162 376.304C510.692 375.146 512.043 374.649 513.267 374.297C515.534 373.742 517.756 373.017 519.914 372.128C522.546 370.917 525.006 369.03 527.899 368.874C528.711 368.908 529.525 368.851 530.324 368.704C530.723 368.621 531.083 368.408 531.348 368.099C531.613 367.79 531.768 367.402 531.789 366.995C531.739 366.302 531.153 365.794 530.695 365.272C530.237 364.75 529.877 363.947 530.298 363.394L537.881 361.978C537.344 360.513 536.925 358.584 538.16 357.63C538.606 357.286 539.203 357.149 539.582 356.733C539.856 356.338 539.964 355.853 539.885 355.38C539.805 354.907 539.544 354.483 539.157 354.2C538.355 353.663 537.411 353.377 536.445 353.377C533.113 353.178 529.772 353.207 526.444 353.466L506.907 354.537C505.552 354.482 504.197 354.62 502.88 354.947C501.951 355.468 500.979 355.909 499.975 356.265C497.825 356.715 495.46 356.41 493.516 357.617Z" fill="#3F3D56"/>
<path d="M529.426 373.461C529.222 373.428 529.013 373.476 528.843 373.593C528.73 373.717 528.663 373.876 528.653 374.043C528.524 374.781 528.678 375.541 529.085 376.17C529.292 376.478 529.578 376.726 529.913 376.887C530.248 377.047 530.621 377.115 530.991 377.084C531.894 376.969 532.559 376.199 533.389 375.823C534.667 375.244 540.099 374.342 536.342 372.312C535.047 371.613 534.21 372.23 533.19 372.691C532.029 373.285 530.728 373.551 529.426 373.461V373.461Z" fill="#3F3D56"/>
<path d="M562.335 356.47C561.896 356.65 561.529 356.969 561.291 357.379C561.182 357.587 561.156 357.829 561.22 358.056C561.284 358.282 561.433 358.475 561.635 358.595C561.799 358.654 561.973 358.682 562.147 358.676L563.931 358.729C564.688 358.752 565.635 358.913 565.839 359.644C565.99 360.186 565.651 360.883 566.06 361.27C566.235 361.406 566.446 361.488 566.667 361.507C567.254 361.658 567.868 361.678 568.464 361.565C569.762 361.217 569.08 360.425 569.489 359.719C570.114 358.64 570.006 359.293 571.108 358.675C571.922 358.218 572.974 357.389 572.294 356.225C571.113 354.201 564.078 355.601 562.335 356.47Z" fill="#3F3D56"/>
<path d="M597.543 355.453L596.507 355.591C594.162 355.837 591.842 356.281 589.572 356.919C590.546 357.304 591.568 357.555 592.609 357.664C593.183 357.692 593.752 357.773 594.31 357.906C595.304 358.202 596.305 358.966 597.265 358.574C597.861 358.332 598.055 357.712 598.548 357.383C598.888 357.157 600.18 356.789 600.324 356.561C601.491 354.71 598.44 355.333 597.543 355.453Z" fill="#3F3D56"/>
<path d="M602.091 360.161C600.708 360.935 599.424 361.875 598.269 362.96C597.999 363.158 597.776 363.412 597.613 363.704C597.451 363.996 597.354 364.32 597.329 364.653C597.388 365.539 598.331 366.053 599.149 366.399L602.46 367.801C602.862 367.235 602.494 366.453 602.079 365.897C601.664 365.34 601.171 364.697 601.354 364.027C601.563 363.263 602.495 363.003 603.276 362.871C604.549 362.657 607.983 362.674 607.57 360.623C607.084 358.205 603.369 359.447 602.091 360.161Z" fill="#3F3D56"/>
<path d="M601.426 496.944C601.243 497.393 601.167 497.877 601.201 498.36C601.236 498.842 601.381 499.311 601.626 499.729C601.961 500.157 602.412 500.479 602.926 500.656C603.44 500.834 603.994 500.859 604.522 500.729C605.577 500.449 606.517 499.844 607.21 499.001C607.844 498.294 608.366 497.494 608.757 496.629C609.302 495.281 609.687 493.873 609.903 492.435L610.931 487.037C611.161 485.83 611.152 482.132 608.935 483.337C608.329 483.666 606.926 486.265 606.292 487.002C605.147 488.331 604.996 489.62 604.394 491.229C603.639 493.245 602.123 494.925 601.426 496.944Z" fill="#3F3D56"/>
<path d="M718.539 524.568C717.814 524.285 717.11 523.95 716.432 523.565C715.753 525.432 715.392 527.4 715.364 529.387L720.329 526.577C721.076 526.155 721.922 525.568 721.906 524.71C721.913 524.604 721.891 524.498 721.843 524.403C721.795 524.309 721.722 524.229 721.632 524.172C721.522 524.128 721.401 524.114 721.284 524.131C720.557 524.263 719.85 524.49 719.182 524.807C718.847 524.963 718.481 525.045 718.111 525.047C717.741 525.049 717.375 524.971 717.038 524.818" fill="#3F3D56"/>
<path d="M744.729 526.236C744.184 526.384 743.652 526.575 743.137 526.807C741.998 527.387 741.223 528.488 740.198 529.251C739.177 529.93 738.056 530.444 736.876 530.773C736.805 530.86 736.753 530.961 736.724 531.069C736.695 531.178 736.689 531.291 736.706 531.402C736.724 531.512 736.764 531.618 736.826 531.712C736.887 531.806 736.968 531.886 737.062 531.947C737.46 532.173 737.916 532.276 738.373 532.241C739.577 532.372 740.793 532.184 741.902 531.698C742.496 531.312 743.053 530.871 743.563 530.379C744.842 529.404 746.249 528.608 747.744 528.015C748.278 527.813 748.772 527.518 749.202 527.143C750.123 526.235 750.188 524.835 748.859 524.526C747.786 524.276 745.752 525.905 744.729 526.236Z" fill="#3F3D56"/>
<path d="M756.302 518.677C756.361 518.052 756.278 517.422 756.059 516.834C755.839 516.246 755.489 515.716 755.034 515.283C755.14 516.536 754.878 517.792 754.28 518.898C753.779 519.634 752.994 520.132 752.445 520.833C752.137 521.155 751.954 521.576 751.926 522.021C751.899 522.465 752.03 522.905 752.296 523.262C752.708 523.575 753.209 523.748 753.726 523.754C755.007 523.905 756.49 523.989 757.389 523.064C757.879 522.558 758.118 521.81 758.716 521.439C758.939 521.345 759.138 521.203 759.298 521.022C759.545 520.629 759.153 520.112 758.711 519.97C758.269 519.829 757.783 519.895 757.339 519.761C756.895 519.627 756.487 519.127 756.715 518.723" fill="#3F3D56"/>
<path d="M735.734 472.853C735.062 473.017 734.366 473.058 733.679 472.974C732.571 472.621 731.561 472.014 730.73 471.2C728.541 469.533 725.88 468.604 723.129 468.544C720.627 468.497 718.101 469.175 715.644 468.702C715.763 469.141 715.982 469.546 716.284 469.886C716.586 470.227 716.962 470.492 717.384 470.663C718.199 471.061 719.099 471.262 719.918 471.652C721.231 472.282 722.271 473.365 722.85 474.701C723.054 475.34 723.333 475.952 723.679 476.525C724.152 477.022 724.74 477.396 725.39 477.614C726.041 477.832 726.735 477.888 727.412 477.776C729.194 477.659 731.055 477.146 732.712 477.81C733.909 478.47 734.999 479.307 735.947 480.291C737.006 481.154 738.497 481.795 739.713 481.172C738.45 480.763 737.351 479.961 736.576 478.884C735.801 477.806 735.391 476.509 735.405 475.181C736.598 475.291 740.032 475.248 739.847 473.222C739.691 471.505 736.758 472.668 735.734 472.853Z" fill="#3F3D56"/>
<path d="M720.134 486.825C720.346 485.663 721.504 484.638 721.143 483.514C720.972 483.143 720.692 482.831 720.342 482.621C719.991 482.41 719.585 482.31 719.176 482.334C718.36 482.315 717.559 482.558 716.742 482.581C716.211 482.552 715.679 482.56 715.149 482.603C713.529 482.87 712.53 484.567 711.004 485.171C710.037 485.413 709.056 485.596 708.067 485.722C705.876 486.298 704.489 488.369 702.958 490.038C700.482 492.724 697.258 494.604 693.702 495.436C692.428 495.587 691.205 496.025 690.126 496.718C688.814 497.79 688.492 499.627 688.2 501.295C687.394 505.903 686.162 510.426 684.52 514.805L689.723 515.47C690.704 515.665 691.716 515.651 692.691 515.427C693.383 515.165 694.039 514.816 694.643 514.387C696.96 512.948 699.554 512.012 702.256 511.639C703.615 511.384 705.016 511.482 706.326 511.924C706.976 512.154 707.552 512.558 707.989 513.091C708.427 513.624 708.71 514.267 708.809 514.95C709.362 514.778 709.951 514.76 710.514 514.896C711.077 515.033 711.592 515.32 712.004 515.727C712.819 516.557 713.352 517.622 713.529 518.772C713.666 519.484 713.804 520.337 714.464 520.636C715.003 520.879 715.621 520.617 716.211 520.57C718.211 520.41 719.871 522.742 721.838 522.341C723.947 521.91 724.464 518.752 726.522 518.119C727.703 517.756 729.361 518.197 729.927 517.098C730.425 516.129 729.43 515.012 729.533 513.927C729.659 512.591 731.235 512.024 732.45 511.454C734.508 510.391 736.083 508.582 736.853 506.397C737.624 504.212 737.531 501.816 736.595 499.697C735.393 497.234 733.027 495.295 732.59 492.59C732.254 490.508 733.075 488.081 731.747 486.442C731.072 485.609 729.929 485.149 729.527 484.154C729.372 483.498 729.276 482.83 729.24 482.156C729.104 481.495 728.527 480.803 727.874 480.975C725.978 481.472 725.373 487.328 724.359 488.751C724.047 489.212 723.582 489.548 723.046 489.699C722.51 489.85 721.938 489.806 721.431 489.575C720.925 489.344 720.517 488.941 720.279 488.437C720.042 487.934 719.99 487.363 720.134 486.825V486.825Z" fill="#3F3D56"/>
<path d="M685.095 475.066C684.466 474.814 683.771 474.778 683.119 474.965C682.498 475.224 682.136 476.136 682.634 476.588C686.528 476.323 690.437 476.398 694.317 476.815C698.769 477.424 703.175 478.935 707.647 478.49C705.093 477.737 702.496 477.134 699.871 476.686L695.493 475.85C694.319 475.604 693.132 475.42 691.938 475.3C689.441 475.094 687.551 475.754 685.095 475.066Z" fill="#3F3D56"/>
<path d="M688.997 461.492C688.673 461.465 688.272 461.441 688.105 461.72C687.945 461.985 688.128 462.337 688.042 462.635C687.925 463.042 687.391 463.146 686.971 463.09C686.564 462.966 686.128 462.971 685.724 463.105C685.536 463.234 685.394 463.42 685.32 463.637C685.246 463.853 685.245 464.088 685.316 464.305C685.468 464.737 685.714 465.129 686.036 465.454C686.587 466.147 687.214 466.777 687.906 467.329C689.246 468.318 691.06 468.794 691.904 470.23C692.023 470.508 692.206 470.754 692.438 470.948C692.66 471.038 692.901 471.072 693.14 471.048C693.378 471.024 693.607 470.942 693.807 470.81L695.336 470.112C695.611 470.013 695.857 469.846 696.05 469.626C696.182 469.363 696.237 469.067 696.209 468.774C696.181 468.481 696.071 468.202 695.892 467.968C695.526 467.503 695.315 466.935 695.287 466.344C695.399 465.301 696.74 464.901 697.292 464.009C697.848 463.109 697.486 461.949 697.55 460.893C697.625 459.658 698.401 458.052 697.153 457.129C696.092 456.345 695.078 457.07 694.316 457.935C692.709 459.761 691.95 461.738 688.997 461.492Z" fill="#3F3D56"/>
<path d="M698.275 443.041C698.797 444.04 699.885 444.636 700.454 445.609C701.071 446.664 701.001 448.027 701.67 449.049C702.356 450.098 703.738 450.655 704.123 451.848C704.543 453.15 703.59 454.733 704.35 455.871C704.492 456.057 704.67 456.212 704.875 456.325C705.08 456.438 705.306 456.508 705.539 456.529C705.771 456.551 706.006 456.524 706.228 456.45C706.45 456.375 706.654 456.256 706.827 456.099C707.148 455.75 707.319 455.29 707.305 454.816C707.291 454.342 707.093 453.893 706.752 453.563C706.302 453.153 705.656 452.976 705.28 452.496C705.084 452.22 704.954 451.902 704.899 451.568C704.694 450.604 704.727 449.604 704.994 448.655C705.095 448.414 705.12 448.148 705.068 447.893C704.898 447.401 704.232 447.366 703.765 447.138C702.704 446.62 702.729 445.122 702.915 443.955C702.791 444.732 700.025 443.411 699.735 442.971C699.16 442.097 699.473 440.411 699.359 439.445C698.755 439.795 698.307 440.361 698.106 441.029C697.905 441.697 697.965 442.416 698.275 443.041V443.041Z" fill="#3F3D56"/>
<path d="M670.404 458.414C669.894 457.842 669.125 457.244 668.44 457.589C668.195 457.749 668.014 457.991 667.93 458.271C667.845 458.552 667.863 458.853 667.979 459.122C668.228 459.654 668.612 460.112 669.093 460.45C670.579 461.551 671.985 462.756 673.3 464.057C675.527 466.504 676.707 469.807 679.13 472.062C679.616 472.585 680.261 472.933 680.965 473.055C681.317 473.102 681.674 473.017 681.966 472.815C682.258 472.614 682.464 472.311 682.544 471.965C682.537 471.673 682.467 471.386 682.341 471.122C682.215 470.859 682.035 470.625 681.812 470.436C680.871 469.413 679.841 468.47 678.952 467.401C678.542 466.99 678.284 466.452 678.222 465.875C678.217 465.299 678.742 464.696 679.3 464.839C678.621 464.665 678.118 463.535 677.122 463.322C676.29 463.145 676.089 463.66 675.098 463.235C673.209 462.425 671.727 459.895 670.404 458.414Z" fill="#3F3D56"/>
<path d="M714.792 402.754C714.25 402.593 713.717 402.403 713.196 402.184C711.793 401.763 709.937 402.794 710.124 404.246C710.249 405.211 711.147 405.862 711.643 406.699C711.946 407.355 712.115 408.064 712.142 408.787C712.168 409.509 712.05 410.229 711.796 410.905C711.701 411.335 711.52 411.742 711.265 412.102C710.908 412.481 710.481 412.788 710.008 413.006C708.114 414.068 706.444 415.487 705.089 417.185C704.942 417.341 704.84 417.535 704.792 417.745C704.725 418.235 705.218 418.592 705.497 419.001C706.116 419.91 705.669 421.132 705.73 422.23C705.72 422.385 705.751 422.54 705.818 422.681C705.885 422.821 705.987 422.941 706.114 423.031C706.488 423.221 706.93 422.899 707.132 422.532C707.803 421.316 707.298 419.365 708.557 418.778C708.795 418.667 709.083 418.621 709.242 418.411C709.494 418.079 709.251 417.588 709.379 417.191C709.571 416.596 710.385 416.569 711.011 416.595C712.088 416.64 713.164 416.497 714.192 416.172C714.595 416.076 714.961 415.864 715.245 415.562C715.401 415.305 715.505 415.019 715.551 414.721C715.597 414.424 715.584 414.12 715.513 413.827C715.136 410.85 714.193 407.972 712.734 405.35C713.827 405.611 714.975 405.501 715.998 405.037C716.532 404.714 717.173 403.749 716.908 403.092C716.489 402.053 715.732 402.928 714.792 402.754Z" fill="#3F3D56"/>
<path d="M573.004 419.128C573.196 419.828 573.207 420.565 573.034 421.269C572.936 421.617 572.712 421.916 572.407 422.109C572.101 422.302 571.735 422.375 571.379 422.314C570.842 422.152 570.532 421.613 570.152 421.201C568.034 418.915 563.256 420.239 561.947 417.41C561.413 416.256 561.776 414.873 561.412 413.654C561.182 412.95 560.725 412.342 560.112 411.925C559.499 411.509 558.766 411.308 558.026 411.354C557.352 411.451 556.695 411.647 556.078 411.936C551.942 413.592 547.599 414.678 543.17 415.164C542.328 415.216 541.495 415.367 540.689 415.616C538.914 416.433 537.507 417.883 536.744 419.682C535.995 421.466 535.084 423.177 534.021 424.794C532.664 426.311 531.11 427.639 529.4 428.742C528.772 429.146 528.25 429.694 527.875 430.34C527.582 431.095 527.478 431.909 527.569 432.714L527.902 442.502C527.856 443.765 528.081 445.023 528.562 446.191C529.266 447.598 530.656 448.52 531.62 449.763C532.604 451.04 533.117 452.618 533.071 454.23C533.051 454.878 532.987 455.644 533.491 456.051C533.798 456.25 534.157 456.353 534.523 456.348L547.764 457.431C550.093 457.622 552.674 457.935 554.195 459.71C554.912 460.547 555.489 461.752 556.588 461.842C557.06 461.815 557.528 461.751 557.99 461.649C558.587 461.673 559.169 461.851 559.676 462.167C560.184 462.484 560.6 462.927 560.885 463.453C561.883 464.969 562.336 466.779 562.17 468.587C562.062 469.722 561.71 470.825 561.634 471.962C561.345 476.289 565.014 480.049 565.085 484.385C565.127 486.936 563.916 489.319 562.735 491.581C564.641 494.467 563.08 498.311 563.839 501.685C564.559 504.887 567.228 507.393 567.893 510.606C568.197 512.077 568.215 513.887 569.512 514.645C570.081 514.922 570.712 515.048 571.344 515.011C575.157 515.057 578.926 514.199 582.344 512.507C583.948 511.711 585.61 510.523 585.89 508.755C586.116 507.329 585.392 505.733 586.128 504.491C586.996 503.027 589.218 503.143 590.495 502.017C592.565 500.191 590.95 496.709 591.789 494.078C592.544 491.714 595.139 490.458 596.426 488.336C596.933 487.423 597.296 486.438 597.504 485.416C598.093 482.971 598.46 480.478 598.6 477.967C598.634 476.442 598.747 474.919 598.937 473.405C600.324 464.786 608.845 459.015 611.612 450.735C611.876 449.944 612 448.891 611.297 448.443C610.879 448.244 610.406 448.195 609.957 448.303L603.853 449.072C603.103 449.236 602.322 449.191 601.595 448.942C601.24 448.803 600.953 448.529 600.799 448.18C600.644 447.831 600.634 447.435 600.769 447.078C601.806 445.2 599.674 442.827 598.726 440.903C596.175 435.721 593.137 430.794 589.653 426.187C589.43 425.95 589.29 425.647 589.255 425.324L590.987 425.381C590.402 423.283 589.437 420.987 587.399 420.22C586.211 419.897 584.97 419.824 583.752 420.004C580.149 420.076 576.548 419.783 573.004 419.128Z" fill="#3F3D56"/>
<path d="M583.755 371.844C584.566 372.923 585.723 373.692 587.032 374.024C589.379 374.324 591.067 371.896 592.142 369.788C592.182 370.325 592.43 370.826 592.833 371.184C593.236 371.541 593.763 371.728 594.302 371.703C594.881 371.605 595.434 371.389 595.926 371.068C600.577 368.526 605.787 367.179 611.087 367.148C611.036 366.747 611.136 366.341 611.367 366.008C611.598 365.676 611.943 365.441 612.338 365.348C613.415 365.135 614.386 366.066 614.906 367.034C615.291 368.064 615.857 369.017 616.576 369.848C617.402 370.573 619.001 370.541 619.327 369.492C619.64 368.485 618.591 367.626 617.719 367.032C616.847 366.438 615.929 365.339 616.516 364.463C620.941 363.348 625.455 362.621 630.007 362.292C630.783 362.319 631.556 362.186 632.278 361.901C632.635 361.749 632.933 361.485 633.124 361.147C633.316 360.81 633.391 360.419 633.338 360.034C632.344 360.268 631.302 360.2 630.347 359.84C629.391 359.479 628.564 358.842 627.972 358.01C634.295 357.488 641.02 357.044 646.624 360.019C647.296 361.462 643.869 362.663 644.786 363.965C644.965 364.145 645.184 364.281 645.424 364.363C645.664 364.445 645.92 364.471 646.172 364.439C650.065 364.621 653.966 364.473 657.833 363.994C659.224 363.687 660.651 363.571 662.074 363.65C664.427 363.94 666.439 365.51 668.754 366.022C669.218 366.159 669.704 366.199 670.184 366.142C670.664 366.085 671.128 365.931 671.547 365.69C671.747 365.56 671.919 365.391 672.053 365.194C672.186 364.996 672.278 364.773 672.323 364.539C672.369 364.305 672.366 364.064 672.316 363.83C672.266 363.597 672.169 363.376 672.031 363.182C674.211 361.045 677.828 361.575 680.703 362.598C683.579 363.62 686.303 365.269 689.346 365.497C691.528 365.661 693.74 365.074 695.897 365.447C697.23 365.783 698.545 366.186 699.837 366.655C702.342 367.355 704.992 367.207 707.592 367.241C714.228 367.33 720.791 368.634 726.957 371.089C727.759 371.35 728.494 371.784 729.109 372.36C729.411 372.654 729.619 373.032 729.705 373.445C729.79 373.858 729.75 374.287 729.59 374.676L723.219 373.745C723.819 374.927 725.372 375.129 726.633 375.536C727.894 375.944 729.202 377.337 728.444 378.424C727.078 377.989 725.839 379.355 725.149 380.612C724.459 381.869 723.618 383.375 722.186 383.451C720.903 383.52 719.352 382.428 718.516 383.403C719.671 384.859 720.66 386.44 721.465 388.116C722.29 389.837 722.879 392.004 721.763 393.552C721.587 393.829 721.321 394.035 721.009 394.136C720.098 394.367 719.505 393.252 718.852 392.576C717.917 391.843 716.828 391.333 715.667 391.084C714.551 390.684 713.376 389.898 713.289 388.717C713.328 387.979 713.541 387.26 713.909 386.619C714.389 385.473 714.599 384.233 714.523 382.993C714.517 381.983 714.14 381.011 713.464 380.261C713.117 379.901 712.653 379.675 712.154 379.624C711.656 379.572 711.156 379.699 710.742 379.981C710.384 380.279 710.096 380.756 709.63 380.773C708.807 380.805 708.175 379.37 707.512 379.86C707.59 380.382 707.482 380.914 707.206 381.365C705.23 383.084 702.193 382.357 699.645 382.964C698.434 383.311 697.274 383.817 696.196 384.47C695.792 384.643 695.449 384.931 695.21 385.298C695.086 385.624 695.077 385.982 695.185 386.313C695.293 386.644 695.511 386.928 695.803 387.119C696.398 387.483 697.066 387.711 697.759 387.786C700.866 388.375 704.017 389.285 706.47 391.281C708.923 393.276 710.531 396.574 709.755 399.639L703.629 393.786C703.861 396.244 703.993 398.708 704.025 401.18C704.064 401.662 703.998 402.147 703.831 402.602C703.394 403.566 702.21 403.891 701.173 404.104C700.884 404.159 700.611 404.274 700.37 404.442C700.129 404.61 699.927 404.827 699.776 405.079C699.625 405.331 699.529 405.612 699.494 405.904C699.46 406.195 699.487 406.491 699.575 406.771C700.054 407.937 700.78 408.985 701.704 409.842C702.63 410.705 703.254 411.843 703.483 413.087C703.593 414.339 702.649 415.75 701.395 415.663C700.927 415.57 700.491 415.358 700.13 415.046C699.769 414.734 699.495 414.334 699.335 413.884C699.026 412.983 698.604 412.125 698.08 411.33C696.236 409.113 692.096 410.063 690.445 407.699C690.024 408.177 689.732 408.754 689.597 409.376C689.462 409.998 689.488 410.644 689.673 411.253C690.087 411.069 690.553 411.034 690.99 411.156C691.428 411.277 691.809 411.546 692.07 411.918C692.569 412.673 693.005 413.469 693.372 414.297C693.984 415.356 694.957 416.295 695.043 417.515C695.02 417.976 695.028 418.439 695.066 418.899C695.338 419.603 695.749 420.245 696.276 420.787C696.733 421.539 697 422.392 697.054 423.27C697.108 424.149 696.946 425.028 696.584 425.83C695.844 427.427 694.839 428.886 693.611 430.146C691.65 432.506 689.483 434.687 687.138 436.666C686.412 437.158 685.788 437.786 685.3 438.515C685.065 438.885 684.958 439.323 684.996 439.76C685.033 440.197 685.212 440.609 685.507 440.935C685.039 440.958 684.2 441.188 683.732 441.212C683.568 439.335 683.532 437.45 683.625 435.568C681.779 434.682 679.792 437.055 680.03 439.089C680.268 441.123 681.739 442.755 682.786 444.515C683.638 445.764 684.02 447.274 683.866 448.778C683.764 449.521 683.398 450.203 682.836 450.7C682.273 451.196 681.551 451.475 680.801 451.484C678.428 451.277 677.436 447.871 675.086 447.481C674.879 447.432 674.661 447.454 674.468 447.542C674.119 447.734 674.058 448.2 674.039 448.598C673.798 450.543 673.997 452.517 674.621 454.375C675.734 457.005 678.612 459.215 678.008 462.007C674.757 460.496 673.066 456.849 672.298 453.346C671.531 449.844 671.403 446.166 670.027 442.855C668.982 444.194 666.786 443.087 665.831 441.682C664.926 440.35 664.369 438.81 663.491 437.46C663.101 436.753 662.551 436.147 661.886 435.69C661.221 435.233 660.458 434.938 659.659 434.827C657.972 434.749 656.509 435.906 655.223 437C654.105 437.829 653.165 438.876 652.461 440.077C651.561 441.886 651.797 444.018 651.753 446.038C651.847 448.242 651.137 450.405 649.755 452.124C648.267 453.723 645.52 454.28 643.878 452.839C643.085 452.013 642.519 450.995 642.237 449.884C640.455 444.685 638.971 439.388 637.792 434.019C637.517 435.244 636.441 436.824 635.413 436.102C635.182 435.908 634.995 435.667 634.865 435.395C632.947 432.146 629.396 430.197 625.809 429.028C622.221 427.859 618.447 427.314 614.899 426.029C612.911 425.309 611.012 424.364 609.239 423.21C608.788 423.874 608.524 424.648 608.476 425.449C608.428 426.251 608.598 427.051 608.967 427.763C609.364 428.462 609.981 429.008 610.721 429.318C611.462 429.628 612.284 429.684 613.06 429.476C613.847 429.224 614.513 428.678 615.294 428.407C615.671 428.236 616.096 428.203 616.494 428.316C616.892 428.429 617.237 428.679 617.467 429.023C617.794 429.744 617.3 430.616 617.545 431.368C617.919 432.515 619.647 432.603 620.252 433.646C620.431 434.058 620.473 434.517 620.372 434.956C620.271 435.394 620.031 435.787 619.689 436.079C618.994 436.646 618.226 437.119 617.406 437.485C614.862 438.899 613.054 441.314 610.83 443.193C608.607 445.071 605.471 446.443 602.822 445.238C603.453 442.04 599.644 439.692 598.943 436.509C598.712 435.461 598.832 434.348 598.503 433.327C598.026 431.849 596.714 430.832 595.638 429.712C594.333 428.338 593.316 426.717 592.648 424.944C591.98 423.171 591.673 421.282 591.746 419.389C591.925 418.083 591.925 416.759 591.747 415.454C591.641 414.802 591.319 414.206 590.834 413.759C590.348 413.312 589.727 413.04 589.069 412.988C586.064 413.121 582.279 413.344 580.702 410.783C580.14 409.869 579.895 408.53 580.708 407.829C581.028 407.626 581.385 407.488 581.758 407.424C582.131 407.36 582.514 407.371 582.883 407.456L589.654 408.122C591.237 408.277 592.949 408.406 594.308 407.578C595.667 406.75 596.256 404.553 594.997 403.579C594.078 402.867 592.431 402.906 592.163 401.774C591.941 400.832 592.984 399.763 592.421 398.975C592.017 398.41 591.109 398.567 590.558 398.99C590.077 399.489 589.553 399.945 588.993 400.353C587.912 400.916 586.622 400.38 585.459 400.017C584.297 399.653 582.739 399.622 582.175 400.702C581.544 401.909 582.734 403.491 582.108 404.701C581.281 406.301 578.479 405.39 577.317 406.766C575.984 408.345 578.225 410.699 577.775 412.716C577.201 413 576.563 413.131 575.923 413.095C575.284 413.059 574.664 412.858 574.126 412.511C573.596 412.151 573.174 411.653 572.904 411.072C572.635 410.491 572.527 409.848 572.594 409.211C572.706 408.303 573.179 407.377 572.862 406.52C572.518 405.859 571.951 405.34 571.262 405.056L564.683 401.421C564.072 402.554 564.844 403.959 565.81 404.81C566.776 405.661 567.986 406.302 568.62 407.422C569.022 408.198 569.112 409.098 568.872 409.938C568.632 410.779 568.08 411.495 567.33 411.943C567.236 412.008 567.129 412.051 567.016 412.071C566.904 412.091 566.788 412.086 566.678 412.057C566.573 411.995 566.481 411.913 566.409 411.815C566.336 411.717 566.284 411.606 566.255 411.488C565.094 408.517 563.351 405.588 560.564 404.036C557.778 402.484 553.774 402.803 551.946 405.417C551.512 406.038 551.221 406.746 550.843 407.403C548.834 410.89 544.528 412.542 540.504 412.434C540.111 412.456 539.719 412.364 539.376 412.169C538.726 411.72 538.755 410.767 538.855 409.983L539.277 406.656C539.279 405.976 539.543 405.323 540.014 404.833C540.759 404.245 541.834 404.616 542.784 404.602C543.503 404.568 544.194 404.314 544.764 403.874C545.334 403.435 545.755 402.83 545.97 402.143C546.162 401.449 546.16 400.716 545.966 400.023C545.772 399.33 545.393 398.702 544.868 398.209C544.433 397.8 543.849 397.287 544.079 396.736C544.171 396.584 544.295 396.453 544.442 396.354C544.59 396.255 544.757 396.189 544.933 396.161C546.638 395.666 548.44 395.536 550.116 394.952C550.975 394.718 551.763 394.275 552.408 393.663C553.054 393.05 553.538 392.287 553.816 391.442C553.938 390.912 553.993 390.269 554.469 390.006C554.708 389.905 554.965 389.853 555.225 389.852C556.134 389.723 556.961 389.258 557.545 388.549C558.128 387.84 558.425 386.938 558.377 386.021C558.819 385.81 559.316 385.74 559.8 385.82C560.284 385.901 560.732 386.127 561.083 386.47C561.773 387.168 562.591 387.726 563.493 388.113C565.255 388.593 566.959 387.033 568.786 387.025C569.542 387.157 570.315 387.159 571.072 387.033C571.804 386.769 572.242 386.04 572.804 385.501C573.367 384.962 574.353 384.634 574.873 385.214L574.43 381.939C575.321 382.164 576.249 382.196 577.153 382.033C578.057 381.869 578.915 381.514 579.67 380.992L573.956 379.061C573.757 379.011 573.573 378.913 573.422 378.775C573.006 378.328 573.419 377.631 573.757 377.122C574.565 375.906 574.7 373.902 573.371 373.296C572.464 372.882 571.423 373.379 570.552 373.864L566.381 376.19C566.249 376.983 567.218 377.432 567.819 377.966C568.183 378.289 568.44 378.715 568.557 379.186C568.674 379.658 568.646 380.155 568.476 380.611C568.306 381.066 568.002 381.46 567.604 381.739C567.206 382.019 566.733 382.172 566.247 382.178C566.522 382.535 566.713 382.949 566.805 383.39C566.898 383.831 566.891 384.287 566.783 384.725L563.977 384.927C563.662 384.99 563.335 384.926 563.067 384.749C562.767 384.482 562.808 384.015 562.738 383.62C562.612 383.151 562.349 382.729 561.983 382.41C561.617 382.09 561.164 381.887 560.682 381.825C559.716 381.72 558.739 381.81 557.809 382.091C557.408 382.235 556.968 382.225 556.574 382.062C556.348 381.916 556.176 381.699 556.085 381.445C555.921 380.926 555.894 380.374 556.005 379.841C556.117 379.308 556.364 378.813 556.723 378.404C557.448 377.595 558.249 376.858 559.115 376.203C561.07 374.488 562.506 372.26 563.262 369.772C564.807 369.125 566.406 368.245 567.951 367.598C570.333 366.392 573.004 365.874 575.663 366.103L580.895 366.203C582.447 366.138 583.997 366.361 585.467 366.861C586.199 367.122 586.846 367.578 587.338 368.18C587.829 368.781 588.147 369.506 588.257 370.275C588.287 370.45 588.272 370.63 588.213 370.798C588.154 370.965 588.054 371.115 587.921 371.233C587.719 371.344 587.49 371.395 587.26 371.382C585.815 371.433 585.199 371.793 583.755 371.844Z" fill="#3F3D56"/>
<path d="M542.054 388.241C542.259 388.047 542.406 387.801 542.479 387.529C542.553 387.258 542.55 386.971 542.472 386.701C541.974 386.509 541.433 386.46 540.909 386.559C540.385 386.657 539.9 386.901 539.506 387.261C539.196 387.574 538.929 387.927 538.712 388.311C538.31 388.832 538.022 389.433 537.867 390.073C537.713 390.713 537.695 391.378 537.815 392.026C537.847 392.163 537.907 392.292 537.99 392.405C538.073 392.518 538.178 392.614 538.298 392.687C538.476 392.758 538.669 392.788 538.861 392.775C539.618 392.774 540.375 392.727 541.127 392.635C541.588 392.579 542.124 392.449 542.303 392.019C542.537 391.454 541.97 390.815 542.135 390.227C542.244 389.964 542.409 389.727 542.619 389.535C542.723 389.438 542.803 389.317 542.852 389.184C542.902 389.051 542.919 388.908 542.904 388.766C542.837 388.49 542.414 388.333 542.262 388.573" fill="#3F3D56"/>
<path d="M545.982 383.149C545.309 382.995 544.616 382.951 543.929 383.02C543.777 383.016 543.626 383.05 543.491 383.12C543.36 383.216 543.265 383.353 543.222 383.51C543.077 383.976 543.112 384.479 543.321 384.919C543.531 385.36 543.898 385.705 544.351 385.887C544.597 385.944 544.834 386.039 545.051 386.168C545.632 386.619 545.262 387.54 545.371 388.266C545.495 389.082 546.285 389.767 546.14 390.58C546.026 391.22 545.342 391.727 545.452 392.368C545.568 393.039 546.419 393.241 547.098 393.294C547.492 393.363 547.897 393.317 548.264 393.161C548.633 392.909 548.895 392.529 549 392.095C549.278 391.268 549.395 390.395 549.344 389.524C549.341 389.128 549.241 388.738 549.054 388.389C548.85 388.112 548.623 387.853 548.376 387.613C547.076 386.1 548.445 383.843 545.982 383.149Z" fill="#3F3D56"/>
<path d="M433.662 397.686C436.072 397.686 438.026 395.732 438.026 393.322C438.026 390.912 436.072 388.958 433.662 388.958C431.252 388.958 429.298 390.912 429.298 393.322C429.298 395.732 431.252 397.686 433.662 397.686Z" fill="#6C63FF"/>
<path d="M473.088 490.984C475.498 490.984 477.452 489.03 477.452 486.62C477.452 484.21 475.498 482.256 473.088 482.256C470.677 482.256 468.724 484.21 468.724 486.62C468.724 489.03 470.677 490.984 473.088 490.984Z" fill="#6C63FF"/>
<path d="M640.272 397.084C642.682 397.084 644.636 395.131 644.636 392.72C644.636 390.31 642.682 388.356 640.272 388.356C637.862 388.356 635.908 390.31 635.908 392.72C635.908 395.131 637.862 397.084 640.272 397.084Z" fill="#6C63FF"/>
<path d="M717.017 506.033C719.427 506.033 721.381 504.079 721.381 501.669C721.381 499.258 719.427 497.305 717.017 497.305C714.607 497.305 712.653 499.258 712.653 501.669C712.653 504.079 714.607 506.033 717.017 506.033Z" fill="#6C63FF"/>
<path d="M574.511 459.684C576.922 459.684 578.875 457.73 578.875 455.32C578.875 452.91 576.922 450.956 574.511 450.956C572.101 450.956 570.147 452.91 570.147 455.32C570.147 457.73 572.101 459.684 574.511 459.684Z" fill="#6C63FF"/>
<path d="M204.001 237.355C204.01 256.664 192.534 263.411 178.375 263.418C178.046 263.418 177.719 263.415 177.393 263.408C176.737 263.394 176.087 263.364 175.445 263.319C162.665 262.42 152.732 255.338 152.724 237.38C152.715 218.795 176.455 195.331 178.236 193.596L178.239 193.594C178.306 193.528 178.341 193.495 178.341 193.495C178.341 193.495 203.992 218.047 204.001 237.355Z" fill="#6C63FF"/>
<path d="M177.441 260.465L186.811 247.358L177.418 261.903L177.393 263.408C176.737 263.394 176.088 263.364 175.445 263.319L176.446 244.001L176.438 243.851L176.455 243.823L176.551 241.998L167.119 227.426L176.578 240.63L176.602 241.017L177.358 226.422L169.283 211.363L177.456 223.857L178.236 193.596L178.239 193.495L178.239 193.594L178.119 217.458L186.144 207.994L178.085 219.513L177.879 232.582L185.374 220.037L177.85 234.503L177.735 241.77L188.613 224.308L177.694 244.306L177.441 260.465Z" fill="#F2F2F2"/>
<path d="M856 149.892C856 149.892 860 176.892 859 178.892C858 180.892 862 191.892 878 188.892C894 185.892 900 164.892 900 164.892C900 164.892 887 147.892 889 142.892L856 149.892Z" fill="#A0616A"/>
<path d="M851.5 572.392V605.392L872.5 612.392L868.5 567.392L851.5 572.392Z" fill="#A0616A"/>
<path d="M929.5 576.392L926.5 617.392L944.5 606.392V573.392L929.5 576.392Z" fill="#A0616A"/>
<path d="M829.5 344.392C829.5 344.392 816.5 367.392 820.5 374.392C824.5 381.392 824.5 384.392 824.5 384.392C824.5 384.392 826.5 438.392 840.5 464.392C840.5 464.392 837.5 515.392 843.5 546.392L849.5 577.392L872.5 574.392L874.5 541.392C874.5 541.392 878.5 502.392 874.5 484.392C870.5 466.392 885.5 406.392 885.5 406.392L911.5 493.392C911.5 493.392 912.5 525.392 917.5 546.392C922.5 567.392 924.5 579.392 924.5 579.392L946.5 580.392C946.5 580.392 953.5 515.392 946.5 483.392C946.5 483.392 943.5 385.392 946.5 379.392C949.5 373.392 943.5 354.392 937.5 350.392C931.5 346.392 829.5 344.392 829.5 344.392Z" fill="#2F2E41"/>
<path d="M860.5 598.392C860.5 598.392 859.5 592.392 854.5 592.392H849.5L848.5 600.392L830.5 618.392C830.5 618.392 801.5 640.392 826.5 641.392C851.5 642.392 857.5 631.392 857.5 631.392C857.5 631.392 880.5 624.392 880.5 623.392C880.5 622.392 874.5 597.392 874.5 597.392L871.233 598.133L868.5 605.392L860.5 598.392Z" fill="#2F2E41"/>
<path d="M947.5 598.392C947.5 598.392 936.5 594.392 936.5 598.392V602.392C936.5 602.392 932.5 599.392 932.5 602.392C932.5 605.392 926.5 607.392 926.5 607.392L925.5 602.392C925.5 602.392 919.5 626.392 922.5 628.392C925.5 630.392 935.5 635.392 936.5 638.392C937.5 641.392 939.5 652.392 960.5 648.392C981.5 644.392 968.5 632.392 968.5 632.392L957.5 621.392L947.5 598.392Z" fill="#2F2E41"/>
<path d="M867.5 160.392C882.964 160.392 895.5 147.856 895.5 132.392C895.5 116.928 882.964 104.392 867.5 104.392C852.036 104.392 839.5 116.928 839.5 132.392C839.5 147.856 852.036 160.392 867.5 160.392Z" fill="#A0616A"/>
<path d="M872.5 183.392C872.5 183.392 861.609 180.338 859.054 174.865C856.5 169.392 836.5 179.392 836.5 179.392L829.5 267.392L827 344.892C827 344.892 877.5 364.392 893.5 358.392C909.5 352.392 928.5 349.392 928.5 349.392L931.5 199.392L926.5 171.392C926.5 171.392 902.934 161.531 898.217 162.461C898.217 162.461 892.5 184.392 872.5 183.392Z" fill="#D0CDE1"/>
<path d="M858.268 166.892C858.268 166.892 853.5 171.392 851.5 171.392C849.5 171.392 817.5 173.392 814.5 186.392C811.5 199.392 819.5 237.392 819.5 237.392C819.5 237.392 820.5 276.392 825.5 289.392C830.5 302.392 826 310.892 826 310.892C826 310.892 819.5 344.392 825.5 347.392C831.5 350.392 843.433 354.994 843.433 354.994C843.433 354.994 859.5 337.392 854.5 312.392C849.5 287.392 842.5 251.392 846.5 239.392C850.5 227.392 858.268 166.892 858.268 166.892Z" fill="#575A89"/>
<path d="M798.5 309.392L805.5 322.392C805.5 322.392 838.5 359.392 844.5 338.392C850.5 317.392 820.5 312.392 820.5 312.392L811.5 303.392L798.5 309.392Z" fill="#A0616A"/>
<path d="M896.768 160.392C896.768 160.392 934.5 165.392 944.5 175.392C954.5 185.392 946.5 232.392 946.5 232.392C946.5 232.392 934.5 304.392 935.5 308.392C936.5 312.392 936.5 346.392 936.5 346.392C936.5 346.392 923.5 360.392 912.5 356.392C901.5 352.392 887.5 323.392 901.5 288.392C907.382 273.686 906.733 259.333 904.002 247.632C897.228 219.08 894.789 189.67 896.768 160.392V160.392Z" fill="#575A89"/>
<path d="M953.5 301.392L943.5 310.392C943.5 310.392 886.5 312.392 901.5 327.392C916.5 342.392 952.5 327.392 952.5 327.392L965.5 313.392L952.5 301.392H953.5Z" fill="#A0616A"/>
<path d="M844.954 102.809L839.807 100.749C839.807 100.749 850.569 88.9009 865.541 89.9311L861.33 85.295C861.33 85.295 871.624 81.1741 880.981 91.9916C885.901 97.6781 891.592 104.362 895.14 111.892H900.652L898.352 116.957L906.403 122.023L898.139 121.113C898.922 125.486 898.654 129.982 897.358 134.231C897.358 134.231 888 123.414 888 121.353V126.505C888 126.505 882.853 121.869 882.853 118.778L880.046 122.384L878.642 116.717L861.33 122.384L864.137 117.748L853.376 119.293L857.587 113.627C857.587 113.627 848.609 121.635 844.954 125.99C840 131.892 835.596 133.716 835.596 133.716C835.596 133.716 831.385 110.536 844.954 102.809Z" fill="#2F2E41"/>
<path d="M822.5 182.392L813.5 186.392C813.5 186.392 777.5 234.392 774.5 244.392C771.5 254.392 768.5 277.392 797.5 313.392L815.5 304.392C815.5 304.392 795.5 275.392 802.5 264.392C809.5 253.392 825.5 234.392 825.5 234.392L822.5 182.392Z" fill="#575A89"/>
<path d="M938.5 174.392L944.5 175.392C944.5 175.392 1019.5 230.392 1013.5 251.392C1007.5 272.392 965.5 317.392 965.5 317.392L949.5 302.392C949.5 302.392 984.5 261.392 970.5 251.392C956.5 241.392 938.5 224.392 938.5 224.392V174.392Z" fill="#575A89"/>
</g>
<defs>
<clipPath id="clip0">
<rect width="1099.22" height="734.892" fill="white"/>
</clipPath>
</defs>
</svg>
