<svg id="circle_like" width="513" height="513" viewBox="0 0 513 513" fill="none" xmlns="http://www.w3.org/2000/svg">
<g clip-path="url(#clip0)">
<g id="Heart">
<path id="Heart_2" d="M378.703 154.968C364.514 138.867 344.829 130 323.275 130C292.962 130 273.77 148.104 263.008 163.293C260.216 167.234 257.841 171.186 255.847 174.904C253.853 171.186 251.478 167.234 248.685 163.293C237.924 148.104 218.732 130 188.419 130C166.865 130 147.18 138.867 132.99 154.968C119.455 170.327 112 190.897 112 212.889C112 236.828 121.346 259.093 141.413 282.958C159.347 304.288 185.148 326.274 215.025 351.733C226.158 361.22 237.671 371.031 249.927 381.755L250.295 382.078C251.884 383.469 253.866 384.164 255.847 384.164C257.828 384.164 259.809 383.468 261.399 382.078L261.767 381.755C274.023 371.031 285.536 361.221 296.671 351.732C326.546 326.275 352.347 304.289 370.281 282.958C390.348 259.092 399.694 236.828 399.694 212.889C399.694 190.897 392.239 170.327 378.703 154.968ZM285.736 338.903C276.139 347.081 266.262 355.497 255.847 364.551C245.433 355.499 235.555 347.081 225.956 338.902C167.485 289.076 128.857 256.159 128.857 212.889C128.857 195.004 134.816 178.392 145.637 166.113C156.581 153.696 171.775 146.857 188.419 146.857C211.529 146.857 226.468 161.095 234.931 173.038C242.521 183.75 246.482 194.549 247.833 198.694C248.963 202.164 252.198 204.512 255.847 204.512C259.496 204.512 262.731 202.164 263.861 198.694C265.212 194.549 269.172 183.75 276.763 173.038C285.225 161.095 300.165 146.857 323.275 146.857C339.919 146.857 355.113 153.696 366.057 166.113C376.878 178.392 382.837 195.004 382.837 212.889C382.837 256.159 344.209 289.076 285.736 338.903Z" fill="white"/>
</g>
<g id="Circle">
<path id="Vector" d="M46.6149 402.832C53.1639 412.145 60.3329 421.008 68.0709 429.36L91.5429 407.632C84.7759 400.332 78.5049 392.587 72.7749 384.448L46.6149 402.832Z" fill="white"/>
<path id="Vector_2" d="M32.0069 255.632C32.1849 143.562 115.054 48.821 226.103 33.728L221.911 2C81.7869 20.843 -16.5301 149.712 2.31393 289.835C6.25593 319.145 15.2459 347.551 28.8869 373.792L57.2549 359.008C40.5629 327.113 31.8969 291.63 32.0069 255.632Z" fill="white"/>
<path id="Vector_3" d="M92.8069 452.832C101.572 460.084 110.802 466.755 120.439 472.8L137.415 445.6C128.967 440.308 120.88 434.461 113.207 428.096L92.8069 452.832Z" fill="white"/>
<path id="Vector_4" d="M361.761 22.544C339.005 12.236 314.863 5.315 290.103 2L285.911 33.728C408.466 50.608 494.132 163.643 477.252 286.197C462.017 396.803 367.656 479.303 256.007 479.632C224.176 479.71 192.701 472.938 163.719 459.776L150.503 488.928C279.291 547.265 430.987 490.153 489.324 361.365C547.661 232.577 490.549 80.881 361.761 22.544Z" fill="white"/>
</g>
</g>
<defs>
<clipPath id="clip0">
<rect width="512.195" height="512.195" fill="white"/>
</clipPath>
</defs>
</svg>
