<svg id="circle_like" width="513" height="513" viewBox="0 0 513 513" fill="none" xmlns="http://www.w3.org/2000/svg">
<g clip-path="url(#clip0)">
<g id="Heart">
<path id="Heart_2" d="M378.703 153.968C364.514 137.867 344.829 129 323.275 129C292.962 129 273.77 147.104 263.008 162.293C260.216 166.234 257.841 170.186 255.847 173.904C253.853 170.186 251.478 166.234 248.685 162.293C237.924 147.104 218.732 129 188.419 129C166.865 129 147.18 137.867 132.99 153.968C119.455 169.327 112 189.897 112 211.889C112 235.828 121.346 258.093 141.413 281.958C159.347 303.288 185.148 325.274 215.025 350.733C226.158 360.22 237.671 370.031 249.927 380.755L250.295 381.078C251.884 382.469 253.866 383.164 255.847 383.164C257.828 383.164 259.809 382.468 261.398 381.078L261.767 380.755C274.023 370.031 285.536 360.221 296.671 350.732C326.546 325.275 352.347 303.289 370.281 281.958C390.348 258.092 399.694 235.828 399.694 211.889C399.694 189.897 392.239 169.327 378.703 153.968ZM285.736 337.903C276.139 346.081 266.262 354.497 255.847 363.551C245.433 354.499 235.555 346.081 225.956 337.902C167.485 288.076 128.857 255.159 128.857 211.889C128.857 194.004 134.816 177.392 145.637 165.113C156.581 152.696 171.775 145.857 188.419 145.857C211.529 145.857 226.468 160.095 234.931 172.038C242.521 182.75 246.482 193.549 247.833 197.694C248.963 201.164 252.198 203.512 255.847 203.512C259.496 203.512 262.731 201.164 263.861 197.694C265.212 193.549 269.172 182.75 276.763 172.038C285.225 160.095 300.165 145.857 323.275 145.857C339.919 145.857 355.113 152.696 366.057 165.113C376.878 177.392 382.837 194.004 382.837 211.889C382.837 255.159 344.209 288.076 285.736 337.903Z" fill="black"/>
</g>
<g id="Circle">
<path id="Vector" d="M46.6149 401.832C53.1639 411.145 60.3329 420.008 68.0709 428.36L91.5429 406.632C84.7759 399.332 78.5049 391.587 72.7749 383.448L46.6149 401.832Z" fill="black"/>
<path id="Vector_2" d="M32.0069 254.632C32.1849 142.562 115.054 47.821 226.103 32.728L221.911 1C81.7869 19.843 -16.5301 148.712 2.31393 288.835C6.25593 318.145 15.2459 346.551 28.8869 372.792L57.2549 358.008C40.5629 326.113 31.8969 290.63 32.0069 254.632Z" fill="black"/>
<path id="Vector_3" d="M92.8069 451.832C101.572 459.084 110.802 465.755 120.439 471.8L137.415 444.6C128.967 439.308 120.88 433.461 113.207 427.096L92.8069 451.832Z" fill="black"/>
<path id="Vector_4" d="M361.761 21.544C339.005 11.236 314.863 4.315 290.103 1L285.911 32.728C408.466 49.608 494.132 162.643 477.252 285.197C462.017 395.803 367.656 478.303 256.007 478.632C224.176 478.71 192.701 471.938 163.719 458.776L150.503 487.928C279.291 546.265 430.987 489.153 489.324 360.365C547.661 231.577 490.549 79.881 361.761 21.544Z" fill="black"/>
</g>
</g>
<defs>
<clipPath id="clip0">
<rect width="512.195" height="512.195" fill="white"/>
</clipPath>
</defs>
</svg>
