<svg width="385" height="352" viewBox="0 0 385 352" fill="none" xmlns="http://www.w3.org/2000/svg">
<path d="M374.739 258.332L320.922 209.21C301.701 191.666 269.027 198.684 261.339 221.49C255.572 237.28 236.352 246.052 219.054 242.543C180.613 233.771 128.718 188.157 119.107 151.315C113.341 135.525 124.873 117.981 142.172 112.719C167.158 105.701 174.847 75.8769 155.626 58.3331L101.809 9.21049C86.4325 -3.07016 63.368 -3.07016 49.9137 9.21049L13.3949 42.5437C-23.124 77.6312 17.239 170.613 107.575 253.069C197.911 335.525 299.779 374.122 338.22 339.034L374.739 305.7C388.194 291.665 388.194 270.613 374.739 258.332Z" fill="#C6C3FF"/>
</svg>
