<svg width="512" height="512" viewBox="0 0 512 512" fill="none" xmlns="http://www.w3.org/2000/svg">
<path d="M171.195 332.124L256 287.54L340.805 332.124L324.609 237.693L393.217 170.816L298.403 157.039L256 71.1221L213.598 157.039L118.784 170.816L187.392 237.693L171.195 332.124ZM183.252 191.763L233.52 184.458L256 138.908L278.481 184.458L328.749 191.763L292.375 227.219L300.962 277.283L256 253.646L211.039 277.283L219.626 227.219L183.252 191.763Z" fill="black"/>
<path d="M451 60.0146V0.0146484H61V60.0146V90.0146V511.986L256 392.603L451 511.986V90.0146V60.0146ZM421 458.444L256 357.427L91 458.443V30.0146H421V458.444Z" fill="black"/>
</svg>
