<svg width="512" height="356" viewBox="0 0 512 356" fill="none" xmlns="http://www.w3.org/2000/svg">
<path d="M500.672 50.8412L501.312 54.9444C495.125 33.4064 478.421 16.7869 457.196 10.7379L456.748 10.6332C416.833 0.000284449 256.216 0.000289147 256.216 0.000289147C256.216 0.000289147 96.0051 -0.208993 55.6856 10.6332C34.0538 16.7869 17.3287 33.4064 11.2488 54.5048L11.1422 54.9444C-3.76969 131.363 -3.87635 223.187 11.8035 305.007L11.1422 300.862C17.3287 322.4 34.0325 339.02 55.2589 345.069L55.7069 345.174C95.5785 355.827 256.238 355.827 256.238 355.827C256.238 355.827 416.428 355.827 456.769 345.174C478.421 339.02 495.147 322.4 501.227 301.302L501.333 300.862C508.117 265.322 512 224.423 512 182.644C512 181.116 512 179.567 511.979 178.019C512 176.595 512 174.9 512 173.204C512 131.405 508.117 90.5058 500.672 50.8412ZM204.975 254.333V101.683L338.647 178.123L204.975 254.333Z" fill="#C6C3FF"/>
</svg>
