<?xml version="1.0" encoding="utf-8"?>
<!-- Generator: Adobe Illustrator 15.0.2, SVG Export Plug-In . SVG Version: 6.00 Build 0)  -->
<!DOCTYPE svg PUBLIC "-//W3C//DTD SVG 1.1//EN" "http://www.w3.org/Graphics/SVG/1.1/DTD/svg11.dtd">
<svg version="1.1" id="Layer_1" xmlns="http://www.w3.org/2000/svg" xmlns:xlink="http://www.w3.org/1999/xlink" x="0px" y="0px"
	 width="77.451px" height="78.002px" viewBox="0 0 77.451 78.002" enable-background="new 0 0 77.451 78.002" xml:space="preserve">
<g>
	<path fill="#FFFFFF" d="M40.953,52.826c-7.018,1.142-13.772-3.166-15.705-10.017c-0.411-1.463-0.58-2.988-0.499-4.538
		c0.036-0.653,0.357-1.255,0.886-1.64c0.282-0.212,0.61-0.344,0.949-0.396c0.284-0.046,0.584-0.041,0.885,0.035l1.289,0.32
		l0.568-2.448c0.197-0.842,0.88-1.502,1.754-1.655l3.194-0.57l0.341-1.084c0.238-0.748,0.872-1.309,1.645-1.46
		c0.031-0.001,0.063-0.009,0.096-0.022c0.735-0.119,1.494,0.148,1.994,0.719l1.28,1.471l1.34-1.372
		c0.335-0.325,0.763-0.552,1.221-0.628c0.159-0.027,0.335-0.046,0.513-0.027c0.636,0.055,1.223,0.382,1.607,0.909l1.03,1.439
		l2.003-1.279c0.263-0.17,0.546-0.277,0.828-0.319c0.812-0.133,1.679,0.206,2.171,0.945c0.823,1.236,1.46,2.585,1.856,3.997
		c1.007,3.594,0.569,7.369-1.262,10.635c-1.822,3.268-4.812,5.621-8.412,6.646C42.003,52.62,41.474,52.742,40.953,52.826"/>
	<path fill="#FFFFFF" d="M29.655,39.651c-0.28,0.043-0.58,0.038-0.871-0.039l-2.214-0.552c-1.105-0.264-1.82-1.362-1.629-2.498
		c0.954-5.336,4.775-9.564,9.975-11.036c5.168-1.456,10.858,0.263,14.375,4.311c0.406,0.471,0.6,1.11,0.512,1.738
		c-0.099,0.625-0.449,1.185-0.979,1.531L46.333,34.7c-0.98,0.625-2.272,0.388-2.951-0.566l-0.931-1.299l-1.287,1.324
		c-0.431,0.435-1.011,0.678-1.623,0.654c-0.609-0.022-1.183-0.29-1.589-0.75l-0.946-1.087L36.91,33.25
		c-0.245,0.761-0.895,1.327-1.692,1.466l-3.154,0.579l-0.618,2.693c-0.141,0.571-0.501,1.057-0.988,1.373
		C30.208,39.507,29.944,39.603,29.655,39.651"/>
	<path fill="#FFFFFF" d="M34.864,77.816c-0.65,0.114-1.3,0.168-1.959,0.183c-7.234,0.148-13.48-5.375-14.211-12.57
		c-0.029-0.296,0.005-0.586,0.08-0.869c-0.104-0.267-0.162-0.555-0.152-0.86c0.148-6.75,5.077-12.432,11.725-13.508
		c0.646-0.105,1.304-0.168,1.972-0.177c3.73-0.083,7.282,1.289,9.98,3.88c2.7,2.585,4.227,6.078,4.305,9.815
		C46.753,70.65,41.704,76.719,34.864,77.816"/>
	<path fill="#FFFFFF" d="M22.347,35.062c-6.202,0.997-12.363-2.296-14.971-8.017c-0.616-1.354-1.01-2.81-1.173-4.311
		c-0.124-1.117,0.638-2.153,1.74-2.384c1.42-0.276,4.205-0.93,6.902-2.173c3.192-1.474,5.176-3.223,5.9-5.199
		c0.254-0.712,0.848-1.221,1.567-1.384c0.048-0.005,0.096-0.023,0.142-0.025c0.675-0.11,1.369,0.102,1.874,0.59
		c1.061,1.032,2.853,2.188,5.334,1.79c0.155-0.027,0.334-0.064,0.506-0.099c0.053-0.018,0.114-0.025,0.169-0.041
		c0.957-0.156,1.906,0.35,2.328,1.241c0.069,0.144,0.128,0.251,0.18,0.361c3.202,7.021,0.112,15.339-6.911,18.547
		C24.787,34.484,23.58,34.844,22.347,35.062"/>
	<path fill="#FFFFFF" d="M18.569,11.726c-0.847,0.131-1.676,0.379-2.464,0.752c-2.449,1.117-4.253,3.152-5.092,5.601
		c1-0.307,2.11-0.71,3.228-1.213c1.833-0.841,4.965-2.622,5.326-5.075l0.029-0.185C19.25,11.622,18.913,11.667,18.569,11.726
		 M8.659,23.19c-0.623,0.098-1.271-0.078-1.757-0.49c-0.503-0.424-0.792-1.055-0.773-1.715c0.092-5.36,3.299-10.257,8.164-12.499
		c1.144-0.524,2.344-0.884,3.577-1.081c5.405-0.875,10.852,1.502,13.872,6.063c0.415,0.61,0.49,1.387,0.21,2.055
		c-0.289,0.679-0.891,1.175-1.612,1.306l-0.243,0.042c-2.18,0.354-4.256-0.087-6.175-1.328c-0.319-0.195-0.588-0.401-0.849-0.601
		c-1.197,2.314-3.578,4.325-7.015,5.898c-2.167,0.981-4.353,1.626-5.8,1.985c-0.585,0.14-1.1,0.264-1.542,0.351
		C8.703,23.176,8.678,23.185,8.659,23.19"/>
	<path fill="#FFFFFF" d="M14.051,51.174c-0.94,0.149-1.745,0.444-2.345,0.835c-0.448,0.302-0.633,0.575-0.628,0.664
		c0.002,0.036,0.244,0.271,0.749,0.475c0.778,0.306,1.827,0.408,2.924,0.291c0.158-0.01,0.312-0.032,0.469-0.059
		c0.928-0.15,1.739-0.441,2.352-0.831c0.434-0.298,0.622-0.558,0.611-0.665c0.003-0.04-0.233-0.273-0.736-0.467
		c-0.778-0.316-1.818-0.42-2.93-0.306C14.351,51.127,14.2,51.145,14.051,51.174 M16.249,60.045
		c-0.268,0.045-0.537,0.084-0.811,0.109c-3.718,0.379-7.36-0.7-10.26-3.057c-2.913-2.364-4.72-5.707-5.103-9.433
		c-0.761-7.365,4.369-14.072,11.672-15.258c0.27-0.046,0.548-0.075,0.826-0.113c3.708-0.376,7.351,0.704,10.25,3.069
		c2.909,2.354,4.716,5.709,5.099,9.431C28.692,52.161,23.564,58.863,16.249,60.045"/>
	<path fill="#FFFFFF" d="M15.711,56.268L15.711,56.268c-0.218,0.038-0.441,0.064-0.668,0.084c-1.553,0.17-3.097-0.006-4.31-0.497
		c-1.516-0.605-2.455-1.669-2.559-2.91c-0.147-1.243,0.55-2.459,1.912-3.368c1.08-0.705,2.537-1.207,4.124-1.372
		c1.558-0.167,3.091,0.013,4.313,0.492c1.512,0.606,2.464,1.694,2.58,2.923c0.069,0.67-0.042,2.103-1.916,3.363
		C18.262,55.604,17.024,56.051,15.711,56.268"/>
	<path fill="#FFFFFF" d="M59.556,70.615c-6.558,1.058-13.012-2.7-15.343-8.928c-2.703-7.233,0.988-15.31,8.211-18.007
		c0.877-0.328,1.768-0.572,2.676-0.723c6.56-1.058,13.012,2.697,15.34,8.935c1.309,3.503,1.185,7.306-0.372,10.697
		c-1.551,3.41-4.339,6.009-7.845,7.317C61.361,70.219,60.464,70.465,59.556,70.615"/>
	<path fill="#FFFFFF" d="M65.974,28.773c0.032,0.136,0.045,0.279,0.054,0.422c-0.002,0.228,0.024,0.404,0.063,0.537
		c0.31,1.047,1.357,1.702,2.425,1.531c0.1-0.015,0.19-0.04,0.29-0.066c0.552-0.175,1.011-0.541,1.281-1.058
		c0.278-0.506,0.345-1.096,0.184-1.65c-0.324-1.042-1.365-1.705-2.427-1.527c-0.101,0.011-0.188,0.031-0.281,0.06
		c-0.689,0.208-1.215,0.716-1.453,1.41C66.078,28.546,66.023,28.664,65.974,28.773 M58.333,29.792
		c-0.093,0.013-0.182,0.035-0.279,0.058c-1.142,0.346-1.794,1.562-1.45,2.712c0.308,1.046,1.35,1.701,2.42,1.525
		c0.095-0.013,0.186-0.028,0.291-0.066c0.553-0.16,1.014-0.537,1.285-1.05c0.277-0.505,0.341-1.096,0.169-1.657
		c-0.035-0.136-0.11-0.293-0.219-0.479c-0.063-0.117-0.129-0.241-0.172-0.365c-0.115-0.067-0.236-0.141-0.335-0.221
		C59.563,29.86,58.939,29.698,58.333,29.792 M65.661,45.611c-6.91,1.117-13.645-3.102-15.643-9.833
		c-2.197-7.386,2.024-15.214,9.423-17.413c0.586-0.176,1.175-0.307,1.769-0.405c6.91-1.11,13.646,3.104,15.646,9.816
		c1.081,3.593,0.677,7.376-1.1,10.664c-1.777,3.293-4.731,5.699-8.316,6.771C66.855,45.375,66.264,45.511,65.661,45.611"/>
	<path fill="#FFFFFF" d="M58.566,31.224c-0.037,0.009-0.063,0.01-0.094,0.017c-0.374,0.11-0.595,0.524-0.489,0.911
		c0.117,0.371,0.525,0.601,0.919,0.48c0.376-0.118,0.595-0.515,0.477-0.896C59.283,31.386,58.924,31.171,58.566,31.224
		 M59.511,36.971L59.511,36.971c-2.519,0.41-4.977-1.126-5.713-3.573c-0.788-2.696,0.746-5.533,3.423-6.345
		c0.219-0.066,0.432-0.112,0.643-0.141c2.512-0.418,4.974,1.126,5.707,3.569c0.798,2.685-0.742,5.529-3.422,6.339
		C59.926,36.892,59.724,36.937,59.511,36.971"/>
	<path fill="#FFFFFF" d="M68.05,28.393c-0.022,0.001-0.059,0.011-0.088,0.025c-0.372,0.112-0.601,0.519-0.484,0.906
		c0.111,0.342,0.46,0.565,0.818,0.508c0.026-0.003,0.054-0.012,0.092-0.026c0.384-0.116,0.595-0.522,0.483-0.9
		C68.771,28.562,68.423,28.334,68.05,28.393 M68.996,34.145c-2.513,0.398-4.967-1.126-5.7-3.573
		c-0.796-2.695,0.739-5.536,3.418-6.349c0.229-0.065,0.432-0.117,0.645-0.146c2.52-0.403,4.961,1.125,5.707,3.573
		c0.798,2.703-0.739,5.543-3.432,6.347C69.42,34.059,69.206,34.107,68.996,34.145"/>
	<path fill="#FFFFFF" d="M47.053,27.827C40.1,28.95,33.37,24.699,31.396,17.93c-2.165-7.402,2.099-15.199,9.51-17.365
		c0.553-0.167,1.129-0.29,1.693-0.385c6.954-1.126,13.681,3.127,15.674,9.899c2.171,7.401-2.105,15.196-9.517,17.368
		c-0.551,0.17-1.132,0.29-1.698,0.38H47.053z"/>
	<path fill="#1B75BB" d="M43.278,38.815c-0.805,0.231-1.653-0.24-1.885-1.052c-0.226-0.816,0.242-1.653,1.057-1.882
		c0.815-0.222,1.655,0.242,1.878,1.058C44.564,37.746,44.083,38.591,43.278,38.815 M35.088,41.131
		c-0.802,0.234-1.639-0.246-1.871-1.053c-0.24-0.813,0.244-1.66,1.044-1.889c0.821-0.227,1.668,0.242,1.891,1.063
		C36.383,40.05,35.911,40.904,35.088,41.131 M48.52,32.416l-3.742,2.4l-2.251-3.115l-2.989,3.053l-2.833-3.253l-0.756,2.342
		l-4.494,0.798l-1.061,4.629l-3.457-0.881c-0.077,1.256,0.049,2.548,0.411,3.83c1.774,6.275,8.305,9.922,14.584,8.15
		c6.277-1.769,9.928-8.286,8.16-14.569C49.752,34.561,49.204,33.44,48.52,32.416"/>
	<path fill="#1B75BB" d="M27.097,36.948l2.214,0.55l0.95-4.114l4.576-0.814l1.275-3.945l3.502,4.006l3.084-3.18l2.456,3.405
		l2.487-1.589c-2.908-3.341-7.582-4.912-12.128-3.639C31.014,28.906,27.858,32.634,27.097,36.948"/>
	<path fill="#EE4037" d="M36.594,66.307c-0.841,0.015-1.543-0.657-1.568-1.498c-0.013-0.85,0.664-1.543,1.498-1.563
		c0.849-0.016,1.538,0.651,1.559,1.5C38.108,65.582,37.439,66.287,36.594,66.307 M28.097,66.474
		c-0.85,0.027-1.549-0.645-1.566-1.487c-0.016-0.842,0.662-1.549,1.502-1.556c0.839-0.02,1.536,0.651,1.554,1.49
		C29.606,65.757,28.945,66.458,28.097,66.474 M32.368,52.196c-6.361,0.129-11.42,5.266-11.563,11.561
		c0.513-0.05,0.563-0.137,0.675-0.298c0.138-0.192,0.243-0.713,0.374-1.389c0.275-1.363,0.92-3.352,3.481-4.948
		c0.889-0.574,1.943-0.928,3.061-0.952c1.429-0.028,2.96,0.468,4.566,1.549c1.44,0.984,3.381,1.962,5.115,1.92
		c1.102-0.022,2.126-0.403,3.13-1.476l1.062,0.984c-1.23,1.353-2.724,1.919-4.156,1.945c-2.293,0.031-4.411-1.13-5.963-2.179
		c-1.43-0.962-2.657-1.303-3.722-1.294c-0.849,0.017-1.614,0.279-2.322,0.732c-3.273,2.151-2.458,4.08-3.368,5.846
		c-0.33,0.589-1.045,0.994-1.876,1.017c0.618,6.062,5.796,10.726,11.999,10.593c6.516-0.13,11.704-5.525,11.56-12.055
		C44.286,57.227,38.894,52.05,32.368,52.196"/>
	<path fill="#F05A2A" d="M24.64,20.787c-0.773,0.353-1.68,0.015-2.026-0.748c-0.349-0.77-0.01-1.67,0.75-2.023
		c0.773-0.362,1.682-0.014,2.028,0.748C25.734,19.535,25.406,20.45,24.64,20.787 M16.914,24.32
		c-0.773,0.358-1.677,0.021-2.026-0.751c-0.35-0.751-0.011-1.673,0.76-2.025c0.76-0.344,1.667-0.007,2.009,0.76
		C18.018,23.068,17.675,23.975,16.914,24.32 M30.683,15.968c-3.83,0.922-6.548-0.948-7.874-2.246
		c-1.122,3.078-4.115,5.094-7.062,6.441c-2.92,1.353-5.896,2.05-7.371,2.337c0.129,1.23,0.456,2.454,0.994,3.648
		c2.705,5.923,9.724,8.536,15.653,5.827c5.939-2.724,8.542-9.735,5.829-15.663C30.8,16.192,30.733,16.086,30.683,15.968"/>
	<path fill="#F05A2A" d="M15.145,18.856c3.23-1.482,6.144-3.706,6.581-6.754l0.286-1.79l1.04,1.497
		c-0.003-0.012,0.155,0.231,0.512,0.607c0.338,0.369,0.869,0.861,1.533,1.287c1.191,0.764,2.788,1.364,4.837,0.979
		c-3.158-4.753-9.386-6.645-14.735-4.199c-4.27,1.95-6.803,6.14-6.894,10.54c0.402-0.075,0.873-0.184,1.426-0.311
		C11.241,20.337,13.224,19.734,15.145,18.856"/>
	<path fill="#0EA74F" d="M18.764,54.366c-0.977,0.649-2.299,1.094-3.795,1.254c-1.477,0.151-2.859-0.024-3.96-0.441
		c-1.068-0.437-1.97-1.182-2.108-2.303c-0.098-1.136,0.638-2.05,1.599-2.683c0.984-0.65,2.3-1.091,3.789-1.256
		c1.479-0.152,2.872,0.017,3.964,0.446c1.077,0.432,1.979,1.168,2.113,2.314C20.466,52.819,19.733,53.736,18.764,54.366
		 M8.713,39.531c0.838-0.096,1.594,0.518,1.672,1.352c0.087,0.846-0.527,1.596-1.363,1.681c-0.839,0.08-1.591-0.522-1.677-1.368
		C7.26,40.365,7.876,39.611,8.713,39.531 M17.171,38.653c0.836-0.09,1.582,0.528,1.678,1.354c0.071,0.847-0.531,1.594-1.374,1.685
		c-0.84,0.08-1.588-0.52-1.67-1.361C15.717,39.485,16.319,38.736,17.171,38.653 M12.796,34.475c-6.5,0.67-11.214,6.47-10.548,12.96
		c0.673,6.49,6.475,11.216,12.965,10.542c6.492-0.67,11.214-6.469,10.539-12.961C25.084,38.525,19.278,33.803,12.796,34.475"/>
	<path fill="#0EA74F" d="M17.714,50.737c-0.814-0.325-2-0.493-3.28-0.354c-1.279,0.13-2.401,0.531-3.136,1.012
		c-0.758,0.507-0.996,1.015-0.957,1.327c0.017,0.319,0.37,0.77,1.217,1.101c0.804,0.323,1.979,0.498,3.278,0.359
		c1.269-0.138,2.4-0.532,3.133-1.024c0.755-0.503,1.004-1.014,0.959-1.323C18.912,51.517,18.556,51.066,17.714,50.737"/>
	<path fill="#BED63A" d="M60.824,65.035c-0.019-0.006-0.031,0.002-0.031,0.002c-3.485,1.289-7.474,0.277-9.959-2.16l1.128-1.124
		c2.005,1.995,5.447,2.863,8.265,1.792c2.292-0.874,4.274-2.936,4.938-6.957l0.003-0.001l1.576,0.243
		C66.044,61.279,63.659,63.967,60.824,65.035 M51.744,54.268c0.789-0.298,1.676,0.103,1.964,0.895
		c0.307,0.784-0.106,1.668-0.896,1.96c-0.786,0.3-1.662-0.098-1.973-0.904C50.552,55.441,50.957,54.558,51.744,54.268
		 M59.709,51.284c0.785-0.297,1.669,0.119,1.963,0.895c0.298,0.794-0.107,1.678-0.894,1.958c-0.792,0.308-1.678-0.087-1.97-0.893
		C58.52,52.462,58.912,51.586,59.709,51.284 M53.195,45.723c-6.121,2.287-9.223,9.087-6.931,15.196
		c2.287,6.111,9.095,9.227,15.205,6.932c6.104-2.272,9.208-9.091,6.921-15.191C66.117,46.537,59.301,43.436,53.195,45.723"/>
	<path fill="#FAAF40" d="M69.43,33.281c-2.313,0.697-4.739-0.619-5.439-2.925c-0.099-0.372-0.147-0.73-0.157-1.095
		c-0.147-0.159-0.357-0.251-0.843-0.157l-0.033,0.002c-0.297,0.069-0.447,0.376-0.525,0.627c0.182,0.3,0.343,0.611,0.435,0.958
		c0.688,2.309-0.625,4.736-2.937,5.426c-2.31,0.696-4.737-0.626-5.421-2.935c-0.688-2.308,0.623-4.736,2.929-5.424
		c1.434-0.425,2.906-0.078,3.974,0.795c0.246-0.331,0.598-0.651,1.148-0.836c0.023-0.007,0.066-0.024,0.115-0.033
		c0.535-0.145,0.989-0.089,1.364,0.051c0.44-1.306,1.477-2.383,2.891-2.804c2.312-0.688,4.736,0.629,5.425,2.937
		C73.055,30.168,71.731,32.601,69.43,33.281 M60.071,20.46c-6.255,1.868-9.819,8.446-7.953,14.697
		c1.867,6.257,8.446,9.817,14.696,7.948c6.263-1.864,9.81-8.447,7.956-14.7C72.9,22.153,66.313,18.597,60.071,20.46"/>
	<path fill="#FAAF40" d="M57.852,29.144c-1.543,0.462-2.413,2.09-1.96,3.632c0.47,1.536,2.082,2.416,3.627,1.96
		c1.541-0.469,2.416-2.088,1.961-3.618C61.013,29.573,59.393,28.693,57.852,29.144"/>
	<path fill="#FAAF40" d="M67.344,26.317c-1.536,0.461-2.412,2.074-1.965,3.625c0.476,1.54,2.093,2.415,3.629,1.96
		c1.544-0.467,2.422-2.079,1.968-3.625C70.507,26.739,68.89,25.858,67.344,26.317"/>
	<path fill="#895D3B" d="M44.267,9.499l6.174,7.406l-5.131,1.821l-0.477-1.369l3.164-1.134l-6.102-7.29l7.379-3.165h0.002
		l0.571,1.33L44.267,9.499z M49.391,12.028c-0.81,0.244-1.653-0.225-1.891-1.04c-0.235-0.807,0.227-1.648,1.037-1.887
		c0.812-0.232,1.652,0.232,1.889,1.038C50.667,10.947,50.206,11.796,49.391,12.028 M41.236,14.412
		c-0.814,0.232-1.655-0.238-1.897-1.035c-0.229-0.813,0.235-1.659,1.038-1.893c0.822-0.237,1.658,0.225,1.9,1.038
		C42.516,13.323,42.042,14.179,41.236,14.412 M41.526,2.663c-6.27,1.838-9.872,8.397-8.034,14.657
		c1.826,6.263,8.38,9.854,14.658,8.025c6.257-1.827,9.854-8.388,8.025-14.651C54.335,4.438,47.781,0.841,41.526,2.663"/>
</g>
</svg>
